<?xml version="1.0" encoding="utf-8"?>
<!-- Generator: Adobe Illustrator 16.0.0, SVG Export Plug-In . SVG Version: 6.00 Build 0)  -->
<!DOCTYPE svg PUBLIC "-//W3C//DTD SVG 1.1//EN" "http://www.w3.org/Graphics/SVG/1.1/DTD/svg11.dtd">
<svg version="1.1" xmlns="http://www.w3.org/2000/svg" xmlns:xlink="http://www.w3.org/1999/xlink" x="0px" y="0px" width="600px"
	 height="600px" viewBox="0 0 500 500" enable-background="new 0 0 500 500" xml:space="preserve">
<g id="BACKGROUND">
	<g>
		<g>
			<g>
				<path opacity="0.75" fill="#D4EEFF" d="M139.044,413.056c-16.074,5.163-34.006-5.769-41.523-20.885
					c-7.517-15.117-6.748-33.022-3.64-49.616c3.108-16.595,8.382-32.865,9.365-49.719c1.59-27.269-8.109-53.777-17.447-79.447
					c-9.338-25.669-18.599-52.434-16.093-79.633c2.505-27.2,20.203-54.99,47.025-60.156c18.069-3.48,36.254,3.576,53.893,8.817
					c46.579,13.839,96.753,15.373,144.09,4.406c18.385-4.26,36.531-10.393,55.384-11.255c18.854-0.862,39.239,4.559,50.95,19.359
					c15.528,19.626,11.001,48.125,3.048,71.854s-18.713,48.451-13.133,72.848c5.131,22.436,23.088,39.55,32.627,60.496
					c12.816,28.142,8.755,63.228-10.151,87.697s-51.831,37.254-82.297,31.954"/>
				<ellipse fill="#D4EEFF" cx="252.976" cy="420.96" rx="165.911" ry="20.664"/>
			</g>
			<g>
				<g>
					<g>
						
							<line fill="none" stroke="#D8BFC7" stroke-width="2" stroke-linecap="round" stroke-linejoin="round" x1="116.562" y1="425.282" x2="116.562" y2="425.282"/>
						
							<path fill="none" stroke="#D8BFC7" stroke-width="2" stroke-linecap="round" stroke-linejoin="round" stroke-dasharray="0,8.0077" d="
							M110.453,420.104c-17.194-14.7-34.012-30.532-42.836-51.194c-9.868-23.108-6.24-54.072,14.853-67.728
							c6.811-4.409,14.859-6.713,21.438-11.462c14.685-10.599,18.794-31.287,15.414-49.079
							c-3.381-17.792-12.767-33.75-20.566-50.095c-13.812-28.949-22.68-63.953-7.868-92.404
							c14.034-26.957,49.426-40.511,77.876-29.825c27.197,10.216,44.586,41.283,39.789,69.797"/>
						
							<line fill="none" stroke="#D8BFC7" stroke-width="2" stroke-linecap="round" stroke-linejoin="round" x1="207.748" y1="142.036" x2="207.748" y2="142.036"/>
					</g>
				</g>
				<g>
					<g>
						
							<line fill="none" stroke="#D8BFC7" stroke-width="2" stroke-linecap="round" stroke-linejoin="round" x1="174.16" y1="124.76" x2="174.16" y2="124.76"/>
						
							<path fill="none" stroke="#D8BFC7" stroke-width="2" stroke-linecap="round" stroke-linejoin="round" stroke-dasharray="0,8.0193" d="
							M175.957,116.945c6.766-24.021,24.292-44.921,46.971-55.432c25.107-11.635,55.849-10.219,79.78,3.674
							c11.272,6.544,21.087,15.643,33.099,20.7c31.964,13.458,73.056-4.009,101.286,16.137
							c17.725,12.649,23.916,36.873,21.165,58.475c-2.751,21.601-12.855,41.452-22.151,61.143
							c-9.296,19.692-18.093,40.449-17.922,62.225c0.139,17.756,6.273,35.232,4.934,52.938c-1.354,17.9-10.763,35.037-25.139,45.788
							c-13.305,9.95-30.654,14.272-47.08,11.881"/>
						
							<line fill="none" stroke="#D8BFC7" stroke-width="2" stroke-linecap="round" stroke-linejoin="round" x1="346.952" y1="393.765" x2="346.952" y2="393.765"/>
					</g>
				</g>
			</g>
		</g>
	</g>
</g>
<g id="OBJECTS">
	<g>
		<g>
			<g>
				<g>
					<linearGradient id="SVGID_1_" gradientUnits="userSpaceOnUse" x1="134.2573" y1="266.7803" x2="371.6943" y2="266.7803">
						<stop  offset="0" style="stop-color:#9CD1E2"/>
						<stop  offset="1" style="stop-color:#6775F5"/>
					</linearGradient>
					<path fill="url(#SVGID_1_)" d="M358.188,422.499H147.763c-7.459,0-13.506-6.047-13.506-13.506V124.568
						c0-7.459,6.047-13.506,13.506-13.506h210.425c7.459,0,13.506,6.047,13.506,13.506v284.425
						C371.694,416.452,365.647,422.499,358.188,422.499z"/>
					<path fill="#8CB7E7" d="M165.775,135.494c2.615-8.407,5.971-16.638,10.098-24.432h-28.109c-7.459,0-13.506,6.047-13.506,13.505
						v284.426c0,7.459,6.047,13.506,13.506,13.506h49.192c-29.755-70.22-43.856-147.063-40.728-223.274
						C157.111,177.7,159.375,156.064,165.775,135.494z"/>
				</g>
			</g>
			<g>
				<g>
					<g>
						<path fill="#EFDADD" d="M355.253,408.309H150.699c-1.243,0-2.251-1.008-2.251-2.251V127.503c0-1.244,1.008-2.251,2.251-2.251
							h204.554c1.243,0,2.251,1.007,2.251,2.251v278.554C357.504,407.301,356.496,408.309,355.253,408.309z"/>
						<path fill="#E0C6CB" d="M165.775,135.494c1.073-3.45,2.28-6.867,3.602-10.241h-18.678c-1.243,0-2.251,1.007-2.251,2.251
							v278.554c0,1.243,1.008,2.251,2.251,2.251h40.491c-25.801-66.315-37.881-137.975-34.962-209.083
							C157.111,177.7,159.375,156.064,165.775,135.494z"/>
					</g>
					<g>
						<g>
							<g>
								<path fill="#C28900" d="M336.027,177.532h-114.57c-0.742,0-1.343-0.601-1.343-1.343l0,0c0-0.742,0.601-1.343,1.343-1.343
									h114.57c0.741,0,1.343,0.601,1.343,1.343l0,0C337.37,176.931,336.769,177.532,336.027,177.532z"/>
								<path fill="#C28900" d="M336.027,169.316h-114.57c-0.742,0-1.343-0.601-1.343-1.343l0,0c0-0.742,0.601-1.343,1.343-1.343
									h114.57c0.741,0,1.343,0.601,1.343,1.343l0,0C337.37,168.715,336.769,169.316,336.027,169.316z"/>
								<path fill="#C28900" d="M336.027,183.062h-114.57c-0.742,0-1.343,0.601-1.343,1.343l0,0c0,0.742,0.601,1.343,1.343,1.343
									h114.57c0.741,0,1.343-0.601,1.343-1.343l0,0C337.37,183.663,336.769,183.062,336.027,183.062z"/>
							</g>
							<g>
								<g>
									<circle fill="#DE927A" cx="189.514" cy="176.189" r="20.932"/>
								</g>
								<g>
									<path fill="#FFFFFF" d="M184.489,186.366c-0.019,0-0.038,0-0.057-0.001c-0.551-0.016-1.071-0.258-1.438-0.669l-5.486-6.15
										c-0.736-0.826-0.664-2.093,0.162-2.83c0.826-0.737,2.093-0.665,2.83,0.162l4.073,4.567l14.845-14.845
										c0.783-0.782,2.051-0.782,2.834,0c0.783,0.783,0.783,2.051,0,2.834l-16.345,16.345
										C185.53,186.155,185.02,186.366,184.489,186.366z"/>
								</g>
							</g>
						</g>
						<g>
							<g>
								<path fill="#C28900" d="M336.027,307.61h-114.57c-0.742,0-1.343-0.602-1.343-1.343l0,0c0-0.742,0.601-1.343,1.343-1.343
									h114.57c0.741,0,1.343,0.601,1.343,1.343l0,0C337.37,307.009,336.769,307.61,336.027,307.61z"/>
								<path fill="#C28900" d="M336.027,299.395h-114.57c-0.742,0-1.343-0.601-1.343-1.343l0,0c0-0.741,0.601-1.343,1.343-1.343
									h114.57c0.741,0,1.343,0.602,1.343,1.343l0,0C337.37,298.794,336.769,299.395,336.027,299.395z"/>
								<path fill="#C28900" d="M336.027,313.14h-114.57c-0.742,0-1.343,0.602-1.343,1.343l0,0c0,0.742,0.601,1.343,1.343,1.343
									h114.57c0.741,0,1.343-0.601,1.343-1.343l0,0C337.37,313.741,336.769,313.14,336.027,313.14z"/>
							</g>
							<g>
								<g>
									<g>
										<circle fill="#DE927A" cx="189.514" cy="306.268" r="20.932"/>
									</g>
								</g>
								<g>
									<path fill="#FFFFFF" d="M184.489,316.444c-0.019,0-0.038-0.001-0.057-0.001c-0.551-0.016-1.071-0.258-1.438-0.67
										l-5.486-6.15c-0.736-0.826-0.664-2.093,0.162-2.829c0.826-0.737,2.093-0.665,2.83,0.161l4.073,4.567l14.845-14.845
										c0.783-0.782,2.051-0.782,2.834,0c0.783,0.782,0.783,2.051,0,2.834l-16.345,16.346
										C185.53,316.233,185.02,316.444,184.489,316.444z"/>
								</g>
							</g>
						</g>
						<g>
							<g>
								<circle fill="#DE927A" cx="189.514" cy="241.228" r="20.932"/>
								<g>
									<path fill="#FFFFFF" d="M184.489,251.405c-0.019,0-0.038-0.001-0.057-0.001c-0.551-0.016-1.071-0.258-1.438-0.669
										l-5.486-6.151c-0.736-0.826-0.664-2.093,0.162-2.83c0.826-0.737,2.093-0.665,2.83,0.162l4.073,4.567l14.845-14.845
										c0.783-0.782,2.051-0.782,2.834,0c0.783,0.783,0.783,2.052,0,2.834l-16.345,16.345
										C185.53,251.194,185.02,251.405,184.489,251.405z"/>
								</g>
							</g>
							<g>
								<path fill="#C28900" d="M336.027,242.571h-114.57c-0.742,0-1.343-0.601-1.343-1.343l0,0c0-0.742,0.601-1.343,1.343-1.343
									h114.57c0.741,0,1.343,0.601,1.343,1.343l0,0C337.37,241.97,336.769,242.571,336.027,242.571z"/>
								<path fill="#C28900" d="M336.027,234.355h-114.57c-0.742,0-1.343-0.601-1.343-1.343l0,0c0-0.742,0.601-1.343,1.343-1.343
									h114.57c0.741,0,1.343,0.601,1.343,1.343l0,0C337.37,233.754,336.769,234.355,336.027,234.355z"/>
								<path fill="#C28900" d="M336.027,248.101h-114.57c-0.742,0-1.343,0.601-1.343,1.343l0,0c0,0.742,0.601,1.343,1.343,1.343
									h114.57c0.741,0,1.343-0.602,1.343-1.343l0,0C337.37,248.702,336.769,248.101,336.027,248.101z"/>
							</g>
						</g>
						<g>
							<g>
								<g>
									<g>
										<g>
											<circle fill="#DE927A" cx="189.514" cy="371.307" r="20.932"/>
										</g>
									</g>
									<path fill="#D3826C" d="M174.256,357.007c-3.51,3.743-5.675,8.764-5.675,14.3c0,10.04,7.072,18.419,16.503,20.453
										C181.073,380.306,177.458,368.714,174.256,357.007z"/>
								</g>
								<g>
									<g>
										<g>
											<g>
												<path fill="#FFFFFF" d="M184.489,381.483c-0.019,0-0.038,0-0.057-0.001c-0.551-0.016-1.071-0.258-1.438-0.669
													l-5.486-6.151c-0.736-0.826-0.664-2.093,0.162-2.829c0.826-0.737,2.093-0.665,2.83,0.161l4.073,4.567l14.845-14.845
													c0.783-0.782,2.051-0.782,2.834,0c0.783,0.782,0.783,2.052,0,2.834l-16.345,16.346
													C185.53,381.272,185.02,381.483,184.489,381.483z"/>
											</g>
										</g>
									</g>
									<path fill="#F4F3F2" d="M178.44,371.411c-0.277,0.081-0.542,0.217-0.771,0.422c-0.826,0.736-0.898,2.003-0.162,2.829
										l2.999,3.362C179.803,375.824,179.114,373.62,178.44,371.411z"/>
								</g>
							</g>
							<g>
								<path fill="#C28900" d="M336.027,372.649h-114.57c-0.742,0-1.343-0.602-1.343-1.343l0,0c0-0.742,0.601-1.343,1.343-1.343
									h114.57c0.741,0,1.343,0.601,1.343,1.343l0,0C337.37,372.048,336.769,372.649,336.027,372.649z"/>
								<path fill="#C28900" d="M336.027,364.434h-114.57c-0.742,0-1.343-0.601-1.343-1.343l0,0c0-0.741,0.601-1.343,1.343-1.343
									h114.57c0.741,0,1.343,0.602,1.343,1.343l0,0C337.37,363.833,336.769,364.434,336.027,364.434z"/>
								<path fill="#C28900" d="M336.027,378.179h-114.57c-0.742,0-1.343,0.602-1.343,1.343l0,0c0,0.742,0.601,1.344,1.343,1.344
									h114.57c0.741,0,1.343-0.602,1.343-1.344l0,0C337.37,378.78,336.769,378.179,336.027,378.179z"/>
							</g>
						</g>
					</g>
				</g>
				<g>
					<path fill="#DE927A" d="M302.961,107.935c-3.058,0-5.536-2.479-5.536-5.536v-2.856c0-4.313-3.497-7.81-7.81-7.81h-16.316
						c0-11.224-9.099-20.323-20.323-20.323c-11.224,0-20.323,9.099-20.323,20.323h-16.316c-4.313,0-7.81,3.497-7.81,7.81v2.856
						c0,3.057-2.478,5.536-5.536,5.536c-8.23,0-15.29,6.438-15.44,14.667c-0.153,8.384,6.596,15.228,14.945,15.228h100.961
						c8.349,0,15.099-6.844,14.945-15.228C318.251,114.373,311.19,107.935,302.961,107.935z M252.976,101.151
						c-5.202,0-9.418-4.217-9.418-9.418s4.217-9.418,9.418-9.418c5.202,0,9.419,4.217,9.419,9.418S258.178,101.151,252.976,101.151z
						"/>
					<path fill="#D3826C" d="M237.789,106.668c0.128-12.402,4.195-24.683,11.252-34.87c-9.34,1.833-16.389,10.058-16.389,19.935
						h-16.316c-4.313,0-7.81,3.497-7.81,7.81v2.856c0,3.057-2.478,5.536-5.536,5.536c-8.23,0-15.29,6.438-15.44,14.667
						c-0.153,8.384,6.596,15.228,14.945,15.228h43.436C240.604,128.363,237.676,117.535,237.789,106.668z"/>
				</g>
			</g>
		</g>
		<g>
			<g>
				<g>
					<path fill="#F9BA2D" d="M396.221,148.509h-56.802c-13.642,0-24.701,11.059-24.701,24.701v20.262
						c0,13.642,11.06,24.701,24.701,24.701h22.698l28.562,16.302c2.47,1.41,5.542-0.374,5.542-3.218v-13.084
						c13.642,0,24.7-11.059,24.7-24.701V173.21C420.921,159.568,409.862,148.509,396.221,148.509z"/>
					<path fill="#EAA326" d="M360.057,148.509h-20.638c-13.642,0-24.701,11.059-24.701,24.701v20.262
						c0,13.642,11.06,24.701,24.701,24.701h14.728c-5.423-10.678-8.012-22.811-7.164-34.763
						C347.873,170.842,352.55,158.616,360.057,148.509z"/>
					<g>
						<path fill="#FFFFFF" d="M401.303,185.749h-66.966c-1.33,0-2.408-1.078-2.408-2.408l0,0c0-1.33,1.078-2.408,2.408-2.408h66.966
							c1.329,0,2.407,1.078,2.407,2.408l0,0C403.71,184.671,402.632,185.749,401.303,185.749z"/>
						<path fill="#FFFFFF" d="M401.303,171.816h-66.966c-1.33,0-2.408-1.078-2.408-2.408l0,0c0-1.33,1.078-2.408,2.408-2.408h66.966
							c1.329,0,2.407,1.078,2.407,2.408l0,0C403.71,170.738,402.632,171.816,401.303,171.816z"/>
						<path fill="#FFFFFF" d="M401.303,194.866h-66.966c-1.33,0-2.408,1.078-2.408,2.408l0,0c0,1.33,1.078,2.408,2.408,2.408h66.966
							c1.329,0,2.407-1.078,2.407-2.408l0,0C403.71,195.943,402.632,194.866,401.303,194.866z"/>
						<g>
							<path fill="#F4F3F2" d="M334.337,180.933c-1.33,0-2.408,1.078-2.408,2.408s1.078,2.408,2.408,2.408h12.542
								c0.026-0.78,0.048-1.561,0.104-2.34c0.059-0.828,0.15-1.652,0.241-2.476H334.337z"/>
							<path fill="#F4F3F2" d="M347.22,194.866h-12.883c-1.33,0-2.408,1.078-2.408,2.408s1.078,2.408,2.408,2.408h13.568
								C347.614,198.085,347.394,196.478,347.22,194.866z"/>
							<path fill="#F4F3F2" d="M334.337,167c-1.33,0-2.408,1.078-2.408,2.408c0,1.33,1.078,2.408,2.408,2.408h14.569
								c0.42-1.621,0.881-3.23,1.422-4.816H334.337z"/>
						</g>
					</g>
				</g>
				<g>
					<g>
						<g>
							<circle fill="#F2C714" cx="356.926" cy="314.216" r="35.308"/>
							<path fill="#E5B10C" d="M344.093,315.645c-1.6-12.626,1.559-25.703,8.352-36.443c-17.383,2.203-30.826,17.034-30.826,35.015
								c0,19.5,15.808,35.309,35.308,35.309c1.602,0,3.175-0.117,4.719-0.323C352.184,340.463,345.713,328.44,344.093,315.645z"/>
						</g>
					</g>
					<g>
						<g>
							<path fill="#272525" d="M356.926,336.376c-10.52,0-19.596-7.486-21.582-17.8c-0.116-0.611,0.283-1.201,0.893-1.319
								c0.613-0.112,1.2,0.282,1.319,0.893c1.781,9.257,9.928,15.976,19.37,15.976s17.589-6.719,19.37-15.977
								c0.119-0.609,0.701-1.004,1.319-0.893c0.609,0.118,1.009,0.708,0.893,1.319C376.521,328.889,367.445,336.376,356.926,336.376
								z"/>
						</g>
						<g>
							<ellipse fill="#272525" cx="368.846" cy="303.934" rx="3.302" ry="4.279"/>
						</g>
						<g>
							<ellipse fill="#272525" cx="345.007" cy="303.934" rx="3.302" ry="4.279"/>
						</g>
						<g>
							<path d="M349.227,332.541c-5.896-2.507-10.402-7.798-11.671-14.392c-0.119-0.61-0.706-1.005-1.319-0.893
								c-0.609,0.118-1.009,0.708-0.893,1.319c1.586,8.231,7.692,14.648,15.439,16.909
								C350.235,334.52,349.717,333.537,349.227,332.541z"/>
							<path d="M343.709,307.868c0.064-2.732,0.339-5.458,0.812-8.151c-1.591,0.308-2.815,2.068-2.815,4.217
								C341.705,305.699,342.531,307.214,343.709,307.868z"/>
						</g>
					</g>
				</g>
				<g>
					<g>
						<g>
							<path fill="#F9BA2D" d="M166.354,319.414h-51.979c-4.973,0-9.004,4.031-9.004,9.004v45.948c0,4.973,4.031,9.004,9.004,9.004
								h4.097v11.709c0,1.694,1.801,2.781,3.3,1.992l26.022-13.701h18.559c4.973,0,9.004-4.031,9.004-9.004v-45.948
								C175.358,323.445,171.327,319.414,166.354,319.414z"/>
							<path fill="#EAA326" d="M114.375,319.414c-4.973,0-9.004,4.031-9.004,9.004v45.948c0,4.973,4.031,9.004,9.004,9.004h4.097
								v11.709c0,1.694,1.801,2.781,3.3,1.992l17.19-9.051c-6.63-9.703-11.125-20.873-12.9-32.493
								c-1.841-12.051-0.76-24.517,2.988-36.113H114.375z"/>
						</g>
					</g>
					<g>
						<g>
							<path fill="#FFFFFF" d="M165.836,380.373h-50.942c-3.413,0-6.19-2.777-6.19-6.189v-45.583c0-3.412,2.777-6.189,6.19-6.189
								h50.942c3.413,0,6.19,2.777,6.19,6.189v45.583C172.026,377.596,169.249,380.373,165.836,380.373z M114.894,323.536
								c-2.792,0-5.064,2.272-5.064,5.064v45.583c0,2.793,2.272,5.064,5.064,5.064h50.942c2.792,0,5.064-2.271,5.064-5.064v-45.583
								c0-2.792-2.272-5.064-5.064-5.064H114.894z"/>
						</g>
						<path fill="#F4F3F2" d="M133.784,379.248h-18.89c-2.792,0-5.064-2.271-5.064-5.064v-45.583c0-2.792,2.272-5.064,5.064-5.064
							h12.949c0.1-0.376,0.206-0.75,0.311-1.125h-13.26c-3.413,0-6.19,2.777-6.19,6.189v45.583c0,3.412,2.777,6.189,6.19,6.189
							h19.45C134.148,380.003,133.975,379.621,133.784,379.248z"/>
					</g>
					<g>
						<g>
							<path fill="#FFFFFF" d="M131.164,368.636c-0.032,0-0.064,0-0.097-0.001c-0.934-0.026-1.815-0.437-2.438-1.134l-9.296-10.423
								c-1.248-1.399-1.125-3.546,0.274-4.795c1.399-1.249,3.545-1.125,4.795,0.274l6.902,7.739l25.154-25.154
								c1.327-1.326,3.476-1.326,4.803,0c1.326,1.326,1.326,3.476,0,4.803l-27.697,27.696
								C132.928,368.279,132.063,368.636,131.164,368.636z"/>
						</g>
						<path fill="#F4F3F2" d="M128.63,367.501c0.12,0.135,0.258,0.249,0.396,0.361c-1.318-4.022-2.324-8.147-2.963-12.335
							c-0.067-0.437-0.121-0.874-0.18-1.312l-1.479-1.658c-1.25-1.4-3.396-1.523-4.795-0.274c-1.4,1.249-1.522,3.396-0.274,4.795
							L128.63,367.501z"/>
					</g>
				</g>
				<g>
					<g>
						<g>
							<path fill="#3D7FFF" d="M201.417,195.671H46.391c-14.039,0-25.419,11.38-25.419,25.419s11.38,25.419,25.419,25.419h50.854
								h3.637l19.831,19.83c1.762,1.763,4.62,1.763,6.382,0l19.831-19.83h54.491c14.039,0,25.419-11.38,25.419-25.419
								S215.456,195.671,201.417,195.671z"/>
							<path fill="#2572EF" d="M57.241,195.671h-10.85c-14.039,0-25.419,11.38-25.419,25.419s11.38,25.419,25.419,25.419h17.065
								c-7.347-12.327-10.633-27.12-8.572-41.341C55.353,201.939,56.1,198.723,57.241,195.671z"/>
						</g>
					</g>
					<g>
						<g>
							<g>
								<path fill="#FFD527" d="M52.639,230.466l-6.309,3.317c-0.733,0.386-1.591-0.237-1.451-1.054l1.205-7.025
									c0.056-0.324-0.052-0.655-0.288-0.885l-5.104-4.975c-0.594-0.579-0.266-1.586,0.554-1.706l7.053-1.025
									c0.326-0.047,0.607-0.252,0.753-0.547l3.154-6.392c0.367-0.743,1.427-0.743,1.793,0l3.154,6.392
									c0.146,0.295,0.427,0.5,0.753,0.547l7.054,1.025c0.82,0.119,1.147,1.127,0.554,1.706l-5.104,4.975
									c-0.236,0.23-0.343,0.561-0.288,0.885l1.205,7.025c0.14,0.817-0.717,1.44-1.451,1.054l-6.309-3.317
									C53.278,230.313,52.93,230.313,52.639,230.466z"/>
								<path fill="#F4BA14" d="M52.45,230.565c-0.713-1.305-1.225-2.715-1.466-4.192c-0.765-4.69,1.187-9.635,4.695-12.799
									l-1.678-3.4c-0.367-0.744-1.427-0.744-1.793,0l-3.154,6.392c-0.146,0.295-0.427,0.5-0.753,0.547l-7.053,1.025
									c-0.82,0.119-1.148,1.127-0.555,1.706l5.104,4.975c0.236,0.23,0.343,0.561,0.288,0.885l-1.205,7.025
									c-0.14,0.817,0.717,1.44,1.451,1.054L52.45,230.565z"/>
							</g>
						</g>
						<g>
							<g>
								<path fill="#FFD527" d="M87.813,230.466l-6.309,3.317c-0.734,0.386-1.591-0.237-1.451-1.054l1.205-7.025
									c0.056-0.324-0.052-0.655-0.288-0.885l-5.104-4.975c-0.593-0.579-0.266-1.586,0.554-1.706l7.054-1.025
									c0.326-0.047,0.607-0.252,0.753-0.547l3.154-6.392c0.367-0.743,1.427-0.743,1.793,0l3.154,6.392
									c0.146,0.295,0.427,0.5,0.753,0.547l7.053,1.025c0.82,0.119,1.148,1.127,0.554,1.706l-5.104,4.975
									c-0.236,0.23-0.343,0.561-0.288,0.885l1.205,7.025c0.14,0.817-0.717,1.44-1.451,1.054l-6.309-3.317
									C88.453,230.313,88.104,230.313,87.813,230.466z"/>
								<path fill="#F4BA14" d="M87.624,230.565c-0.713-1.305-1.225-2.715-1.466-4.192c-0.765-4.69,1.187-9.635,4.695-12.799
									l-1.678-3.4c-0.367-0.744-1.427-0.744-1.793,0l-3.154,6.392c-0.146,0.295-0.427,0.5-0.753,0.547l-7.054,1.025
									c-0.82,0.119-1.147,1.127-0.554,1.706l5.104,4.975c0.235,0.23,0.343,0.561,0.288,0.885l-1.205,7.025
									c-0.14,0.817,0.717,1.44,1.451,1.054L87.624,230.565z"/>
							</g>
						</g>
						<g>
							<g>
								<path fill="#FFD527" d="M122.987,230.466l-6.309,3.317c-0.733,0.386-1.591-0.237-1.451-1.054l1.205-7.025
									c0.056-0.324-0.052-0.655-0.288-0.885l-5.104-4.975c-0.594-0.579-0.266-1.586,0.554-1.706l7.053-1.025
									c0.326-0.047,0.607-0.252,0.753-0.547l3.154-6.392c0.367-0.743,1.427-0.743,1.793,0l3.155,6.392
									c0.146,0.295,0.427,0.5,0.753,0.547l7.053,1.025c0.82,0.119,1.147,1.127,0.554,1.706l-5.104,4.975
									c-0.236,0.23-0.343,0.561-0.288,0.885l1.205,7.025c0.14,0.817-0.717,1.44-1.451,1.054l-6.309-3.317
									C123.626,230.313,123.278,230.313,122.987,230.466z"/>
								<path fill="#F4BA14" d="M122.798,230.565c-0.713-1.305-1.225-2.715-1.466-4.192c-0.765-4.69,1.187-9.635,4.695-12.799
									l-1.678-3.4c-0.367-0.744-1.427-0.744-1.793,0l-3.154,6.392c-0.146,0.295-0.427,0.5-0.753,0.547l-7.053,1.025
									c-0.82,0.119-1.148,1.127-0.554,1.706l5.104,4.975c0.236,0.23,0.343,0.561,0.288,0.885l-1.205,7.025
									c-0.14,0.817,0.717,1.44,1.451,1.054L122.798,230.565z"/>
							</g>
						</g>
						<g>
							<g>
								<path fill="#FFD527" d="M158.161,230.466l-6.309,3.317c-0.733,0.386-1.591-0.237-1.451-1.054l1.205-7.025
									c0.056-0.324-0.052-0.655-0.288-0.885l-5.104-4.975c-0.593-0.579-0.266-1.586,0.554-1.706l7.054-1.025
									c0.326-0.047,0.607-0.252,0.753-0.547l3.154-6.392c0.367-0.743,1.426-0.743,1.793,0l3.154,6.392
									c0.146,0.295,0.427,0.5,0.753,0.547l7.053,1.025c0.82,0.119,1.148,1.127,0.554,1.706l-5.104,4.975
									c-0.236,0.23-0.343,0.561-0.288,0.885l1.205,7.025c0.14,0.817-0.717,1.44-1.451,1.054l-6.309-3.317
									C158.801,230.313,158.453,230.313,158.161,230.466z"/>
								<path fill="#F4BA14" d="M157.972,230.565c-0.713-1.305-1.225-2.715-1.465-4.192c-0.765-4.69,1.187-9.635,4.695-12.799
									l-1.678-3.4c-0.367-0.744-1.427-0.744-1.793,0l-3.154,6.392c-0.146,0.295-0.427,0.5-0.753,0.547l-7.054,1.025
									c-0.82,0.119-1.147,1.127-0.554,1.706l5.104,4.975c0.236,0.23,0.343,0.561,0.288,0.885l-1.205,7.025
									c-0.14,0.817,0.718,1.44,1.451,1.054L157.972,230.565z"/>
							</g>
						</g>
						<g>
							<g>
								<path fill="#FFD527" d="M193.335,230.466l-6.309,3.317c-0.733,0.386-1.591-0.237-1.451-1.054l1.205-7.025
									c0.056-0.324-0.052-0.655-0.288-0.885l-5.104-4.975c-0.594-0.579-0.266-1.586,0.554-1.706l7.053-1.025
									c0.326-0.047,0.607-0.252,0.753-0.547l3.154-6.392c0.367-0.743,1.427-0.743,1.793,0l3.154,6.392
									c0.146,0.295,0.428,0.5,0.753,0.547l7.053,1.025c0.82,0.119,1.147,1.127,0.554,1.706l-5.104,4.975
									c-0.236,0.23-0.343,0.561-0.288,0.885l1.205,7.025c0.14,0.817-0.717,1.44-1.451,1.054l-6.309-3.317
									C193.975,230.313,193.626,230.313,193.335,230.466z"/>
								<path fill="#F4BA14" d="M193.146,230.565c-0.713-1.305-1.225-2.715-1.466-4.192c-0.765-4.69,1.187-9.635,4.695-12.799
									l-1.678-3.4c-0.367-0.744-1.427-0.744-1.793,0l-3.154,6.392c-0.146,0.295-0.427,0.5-0.753,0.547l-7.053,1.025
									c-0.82,0.119-1.148,1.127-0.554,1.706l5.104,4.975c0.236,0.23,0.343,0.561,0.288,0.885l-1.205,7.025
									c-0.14,0.817,0.717,1.44,1.451,1.054L193.146,230.565z"/>
							</g>
						</g>
					</g>
				</g>
			</g>
			<g>
				<g>
					<g>
						<path fill="#F2C714" d="M271.098,406.101l-9.117,4.793c-1.06,0.558-2.299-0.343-2.097-1.523l1.741-10.151
							c0.081-0.469-0.075-0.947-0.415-1.279l-7.376-7.189c-0.857-0.836-0.384-2.292,0.801-2.464l10.193-1.481
							c0.471-0.068,0.877-0.364,1.088-0.791l4.558-9.235c0.53-1.074,2.063-1.074,2.592,0l4.559,9.235
							c0.211,0.427,0.617,0.723,1.088,0.791l10.192,1.481c1.186,0.172,1.659,1.628,0.802,2.464l-7.376,7.189
							c-0.341,0.332-0.496,0.811-0.416,1.279l1.741,10.151c0.203,1.181-1.036,2.081-2.097,1.523l-9.116-4.793
							C272.021,405.88,271.519,405.88,271.098,406.101z"/>
					</g>
					<g>
						<polygon fill="#FFDB43" points="281.555,387.218 273.964,406.9 275.521,407.72 283.329,387.476 						"/>
						<path fill="#FFDB43" d="M278.938,386.838l-7.375,19.122c0.298-0.043,0.605-0.003,0.879,0.141l0.349,0.184l7.428-19.261
							L278.938,386.838z"/>
					</g>
					<path fill="#E5B10C" d="M259.884,409.37c-0.202,1.181,1.037,2.081,2.097,1.523l8.879-4.668
						c-1.355-1.506-2.483-3.217-3.321-5.063c-1.097-2.418-1.701-5.141-1.195-7.746c0.559-2.877,2.431-5.37,4.718-7.201
						c1.564-1.254,3.322-2.229,5.139-3.089l-3.134-6.349c-0.529-1.074-2.062-1.074-2.592,0l-4.558,9.235
						c-0.211,0.427-0.617,0.723-1.088,0.791l-10.193,1.481c-1.185,0.172-1.658,1.628-0.801,2.464l7.376,7.189
						c0.34,0.332,0.496,0.811,0.415,1.279L259.884,409.37z"/>
				</g>
				<g>
					<g>
						<path fill="#F2C714" d="M126.566,174.054l-9.117,4.793c-1.06,0.557-2.299-0.343-2.097-1.523l1.741-10.151
							c0.08-0.469-0.075-0.947-0.416-1.279l-7.375-7.189c-0.858-0.836-0.385-2.292,0.801-2.465l10.192-1.481
							c0.471-0.068,0.878-0.364,1.088-0.791l4.558-9.236c0.53-1.074,2.062-1.074,2.592,0l4.558,9.236
							c0.21,0.427,0.618,0.722,1.088,0.791l10.193,1.481c1.186,0.172,1.659,1.629,0.801,2.465l-7.375,7.189
							c-0.34,0.332-0.496,0.811-0.416,1.279l1.741,10.151c0.203,1.181-1.037,2.081-2.097,1.523l-9.117-4.793
							C127.49,173.833,126.987,173.833,126.566,174.054z"/>
					</g>
					<g>
						<polygon fill="#FFDB43" points="137.023,155.17 129.432,174.854 130.99,175.672 138.797,155.428 						"/>
						<path fill="#FFDB43" d="M134.406,154.791l-7.375,19.122c0.298-0.043,0.605-0.003,0.879,0.141l0.348,0.183l7.428-19.261
							L134.406,154.791z"/>
					</g>
					<path fill="#E5B10C" d="M115.353,177.323c-0.203,1.181,1.037,2.081,2.097,1.523l8.878-4.668
						c-1.355-1.507-2.484-3.217-3.321-5.063c-1.097-2.418-1.702-5.14-1.195-7.746c0.559-2.876,2.43-5.37,4.717-7.201
						c1.565-1.253,3.322-2.229,5.139-3.088l-3.133-6.349c-0.53-1.074-2.062-1.074-2.592,0l-4.558,9.236
						c-0.21,0.427-0.618,0.722-1.088,0.791l-10.192,1.481c-1.186,0.172-1.659,1.629-0.801,2.465l7.375,7.189
						c0.34,0.332,0.496,0.811,0.416,1.279L115.353,177.323z"/>
				</g>
				<g>
					<g>
						<path fill="#F2C714" d="M302.939,412.109l-6.458,3.395c-0.751,0.395-1.628-0.243-1.485-1.079l1.233-7.19
							c0.058-0.332-0.053-0.671-0.294-0.906l-5.225-5.092c-0.607-0.593-0.271-1.624,0.567-1.746l7.22-1.049
							c0.334-0.049,0.622-0.258,0.771-0.561l3.229-6.542c0.375-0.761,1.46-0.761,1.835,0l3.229,6.542
							c0.148,0.303,0.437,0.512,0.771,0.561l7.219,1.049c0.84,0.122,1.175,1.153,0.567,1.746l-5.224,5.092
							c-0.241,0.235-0.352,0.574-0.295,0.906l1.233,7.19c0.144,0.836-0.734,1.474-1.485,1.079l-6.457-3.395
							C303.594,411.952,303.237,411.952,302.939,412.109z"/>
					</g>
					<g>
						<polygon fill="#FFDB43" points="310.347,398.733 304.97,412.676 306.072,413.256 311.603,398.916 						"/>
						<path fill="#FFDB43" d="M308.493,398.465l-5.224,13.544c0.211-0.03,0.429-0.002,0.622,0.101l0.247,0.129l5.261-13.643
							L308.493,398.465z"/>
					</g>
					<path fill="#E5B10C" d="M294.996,414.425c-0.143,0.836,0.734,1.474,1.485,1.079l6.289-3.307
						c-0.96-1.067-1.76-2.278-2.353-3.586c-0.776-1.713-1.205-3.641-0.847-5.487c0.396-2.037,1.722-3.803,3.342-5.1
						c1.108-0.889,2.353-1.579,3.64-2.188l-2.22-4.497c-0.375-0.761-1.46-0.761-1.835,0l-3.229,6.542
						c-0.148,0.303-0.437,0.512-0.771,0.561l-7.22,1.049c-0.839,0.122-1.175,1.153-0.567,1.746l5.225,5.092
						c0.241,0.235,0.352,0.574,0.294,0.906L294.996,414.425z"/>
				</g>
				<g>
					<g>
						<path fill="#F2C714" d="M158.004,152.838l-6.458,3.395c-0.75,0.395-1.628-0.243-1.485-1.079l1.233-7.19
							c0.057-0.332-0.053-0.671-0.294-0.906l-5.224-5.092c-0.607-0.592-0.272-1.624,0.567-1.746l7.22-1.049
							c0.333-0.048,0.622-0.258,0.771-0.56l3.229-6.542c0.375-0.761,1.46-0.761,1.836,0l3.229,6.542
							c0.149,0.302,0.437,0.512,0.771,0.56l7.22,1.049c0.839,0.122,1.175,1.154,0.567,1.746l-5.225,5.092
							c-0.241,0.235-0.351,0.574-0.294,0.906l1.233,7.19c0.144,0.836-0.734,1.474-1.485,1.079l-6.458-3.395
							C158.658,152.681,158.302,152.681,158.004,152.838z"/>
					</g>
					<g>
						<polygon fill="#FFDB43" points="165.411,139.463 160.034,153.405 161.138,153.984 166.667,139.646 						"/>
						<path fill="#FFDB43" d="M163.558,139.193l-5.224,13.545c0.211-0.031,0.429-0.002,0.623,0.1l0.247,0.13l5.262-13.643
							L163.558,139.193z"/>
					</g>
					<path fill="#E5B10C" d="M150.062,155.154c-0.144,0.836,0.734,1.474,1.485,1.079l6.289-3.306
						c-0.96-1.067-1.759-2.279-2.353-3.586c-0.777-1.712-1.205-3.641-0.847-5.487c0.396-2.037,1.721-3.803,3.341-5.101
						c1.109-0.888,2.354-1.578,3.64-2.188l-2.219-4.497c-0.376-0.761-1.46-0.761-1.836,0l-3.229,6.542
						c-0.149,0.302-0.438,0.512-0.771,0.56l-7.22,1.049c-0.839,0.122-1.174,1.154-0.567,1.746l5.224,5.092
						c0.241,0.235,0.351,0.574,0.294,0.906L150.062,155.154z"/>
				</g>
			</g>
		</g>
	</g>
</g>
</svg>
