<?xml version="1.0" encoding="utf-8"?>
<!-- Generator: Adobe Illustrator 16.0.0, SVG Export Plug-In . SVG Version: 6.00 Build 0)  -->
<!DOCTYPE svg PUBLIC "-//W3C//DTD SVG 1.1//EN" "http://www.w3.org/Graphics/SVG/1.1/DTD/svg11.dtd">
<svg version="1.1" xmlns="http://www.w3.org/2000/svg" xmlns:xlink="http://www.w3.org/1999/xlink" x="0px" y="0px" width="500px"
	 height="500px" viewBox="0 0 500 500" enable-background="new 0 0 500 500" xml:space="preserve">
<g id="BACKGROUND">
	<g>
		<g>
			<g>
				<g>
					<g>
						<g>
							<path fill="#DA0000" d="M433.455,145.678l-6.419-10.512c-0.526-0.862-0.254-1.988,0.607-2.514
								c0.862-0.526,1.986-0.254,2.515,0.606l4.538,7.433l12.069-7.142c0.87-0.515,1.991-0.228,2.506,0.642
								c0.514,0.87,0.228,1.991-0.643,2.505L433.455,145.678z"/>
						</g>
					</g>
				</g>
			</g>
		</g>
		<g>
			<path fill="#DA0000" d="M437.766,161.88c-12.729,0-23.087-10.357-23.087-23.087c0-12.73,10.357-23.087,23.087-23.087
				c12.73,0,23.088,10.356,23.088,23.087C460.854,151.523,450.496,161.88,437.766,161.88z M437.766,119.003
				c-10.911,0-19.789,8.878-19.789,19.79c0,10.911,8.878,19.788,19.789,19.788c10.912,0,19.789-8.877,19.789-19.788
				C457.555,127.881,448.678,119.003,437.766,119.003z"/>
		</g>
	</g>
	<g>
		<g>
			<g>
				<g>
					<g>
						<g>
							<path fill="#DA0000" d="M361.956,111.72l-3.967-6.494c-0.326-0.533-0.156-1.229,0.375-1.555
								c0.532-0.325,1.229-0.156,1.555,0.376l2.805,4.594l7.459-4.415c0.536-0.317,1.229-0.14,1.548,0.396
								c0.318,0.538,0.14,1.23-0.397,1.549L361.956,111.72z"/>
						</g>
					</g>
				</g>
			</g>
		</g>
		<g>
			<path fill="#DA0000" d="M364.621,121.735c-7.868,0-14.268-6.401-14.268-14.269s6.399-14.268,14.268-14.268
				c7.866,0,14.267,6.4,14.267,14.268S372.487,121.735,364.621,121.735z M364.621,95.237c-6.743,0-12.229,5.486-12.229,12.229
				s5.486,12.23,12.229,12.23c6.742,0,12.229-5.487,12.229-12.23S371.363,95.237,364.621,95.237z"/>
		</g>
	</g>
	<g>
		<g>
			<g>
				<g>
					<g>
						<g>
							<path fill="#DA0000" d="M288.59,87.746l-6.087-9.964c-0.498-0.817-0.24-1.885,0.577-2.383
								c0.816-0.499,1.883-0.241,2.383,0.575l4.303,7.046l11.441-6.771c0.824-0.486,1.888-0.214,2.374,0.609
								c0.488,0.823,0.216,1.887-0.608,2.375L288.59,87.746z"/>
						</g>
					</g>
				</g>
			</g>
		</g>
		<g>
			<path fill="#DA0000" d="M292.676,103.106c-12.068,0-21.888-9.818-21.888-21.887s9.819-21.886,21.888-21.886
				c12.067,0,21.886,9.817,21.886,21.886S304.743,103.106,292.676,103.106z M292.676,62.46c-10.344,0-18.76,8.415-18.76,18.759
				c0,10.345,8.416,18.76,18.76,18.76c10.345,0,18.76-8.415,18.76-18.76C311.436,70.875,303.021,62.46,292.676,62.46z"/>
		</g>
	</g>
	<g>
		<g>
			<g>
				<g>
					<g>
						<g>
							<path fill="#DA0000" d="M224.22,111.63l-4.021-6.584c-0.331-0.54-0.16-1.246,0.38-1.575c0.54-0.33,1.245-0.159,1.575,0.38
								l2.843,4.656l7.56-4.474c0.545-0.322,1.248-0.143,1.57,0.401c0.322,0.545,0.143,1.247-0.402,1.569L224.22,111.63z"/>
						</g>
					</g>
				</g>
			</g>
		</g>
		<g>
			<path fill="#DA0000" d="M226.92,121.78c-7.976,0-14.463-6.488-14.463-14.462c0-7.975,6.487-14.463,14.463-14.463
				c7.974,0,14.46,6.488,14.46,14.463C241.38,115.292,234.894,121.78,226.92,121.78z M226.92,94.921
				c-6.836,0-12.396,5.561-12.396,12.396c0,6.835,5.561,12.396,12.396,12.396c6.835,0,12.396-5.561,12.396-12.396
				C239.315,100.482,233.755,94.921,226.92,94.921z"/>
		</g>
	</g>
	<g>
		<g>
			<g>
				<g>
					<g>
						<g>
							<path fill="#DA0000" d="M167.724,80.002l-5.034-8.241c-0.413-0.676-0.199-1.558,0.478-1.972
								c0.675-0.412,1.558-0.199,1.97,0.478l3.561,5.827l9.463-5.6c0.683-0.404,1.563-0.18,1.964,0.503
								c0.404,0.682,0.18,1.561-0.503,1.964L167.724,80.002z"/>
						</g>
					</g>
				</g>
			</g>
		</g>
		<g>
			<path fill="#DA0000" d="M171.104,92.708c-9.982,0-18.104-8.121-18.104-18.104s8.121-18.104,18.104-18.104
				c9.981,0,18.104,8.121,18.104,18.104S181.085,92.708,171.104,92.708z M171.104,59.087c-8.557,0-15.519,6.961-15.519,15.518
				s6.962,15.518,15.519,15.518s15.518-6.961,15.518-15.518S179.66,59.087,171.104,59.087z"/>
		</g>
	</g>
	<g>
		<g>
			<g>
				<g>
					<g>
						<g>
							<path fill="#DA0000" d="M103.598,120.977l-5.581-9.137c-0.458-0.75-0.221-1.729,0.528-2.186
								c0.749-0.458,1.728-0.222,2.185,0.527l3.947,6.462l10.492-6.21c0.755-0.447,1.73-0.197,2.177,0.559
								c0.448,0.756,0.197,1.73-0.558,2.178L103.598,120.977z"/>
						</g>
					</g>
				</g>
			</g>
		</g>
		<g>
			<path fill="#DA0000" d="M107.344,135.063c-11.067,0-20.07-9.004-20.07-20.071c0-11.066,9.003-20.07,20.07-20.07
				s20.071,9.004,20.071,20.07C127.415,126.059,118.411,135.063,107.344,135.063z M107.344,97.789
				c-9.485,0-17.203,7.718-17.203,17.203c0,9.486,7.718,17.204,17.203,17.204c9.486,0,17.204-7.718,17.204-17.204
				C124.548,105.506,116.83,97.789,107.344,97.789z"/>
		</g>
	</g>
	<g>
		<g>
			<g>
				<g>
					<g>
						<g>
							<path fill="#DA0000" d="M409.792,83.407l-3.172-5.196c-0.261-0.426-0.126-0.982,0.299-1.242
								c0.427-0.261,0.982-0.126,1.243,0.3l2.244,3.674l5.967-3.531c0.429-0.254,0.983-0.111,1.237,0.318s0.112,0.984-0.316,1.238
								L409.792,83.407z"/>
						</g>
					</g>
				</g>
			</g>
		</g>
		<g>
			<path fill="#DA0000" d="M411.924,91.417c-6.294,0-11.414-5.121-11.414-11.414c0-6.292,5.12-11.412,11.414-11.412
				c6.293,0,11.412,5.12,11.412,11.412C423.336,86.295,418.217,91.417,411.924,91.417z M411.924,70.22
				c-5.395,0-9.783,4.389-9.783,9.782c0,5.396,4.389,9.784,9.783,9.784c5.394,0,9.782-4.389,9.782-9.784
				C421.706,74.609,417.317,70.22,411.924,70.22z"/>
		</g>
	</g>
	<g>
		<g>
			<g>
				<g>
					<g>
						<g>
							<path fill="#DA0000" d="M76.063,163.884l-3.172-5.197c-0.261-0.425-0.126-0.982,0.3-1.241
								c0.427-0.261,0.982-0.126,1.242,0.299l2.244,3.675l5.967-3.531c0.429-0.254,0.983-0.112,1.237,0.317
								c0.255,0.431,0.112,0.985-0.316,1.239L76.063,163.884z"/>
						</g>
					</g>
				</g>
			</g>
		</g>
		<g>
			<path fill="#DA0000" d="M78.195,171.893c-6.294,0-11.414-5.12-11.414-11.413c0-6.292,5.12-11.412,11.414-11.412
				s11.412,5.12,11.412,11.412C89.607,166.773,84.489,171.893,78.195,171.893z M78.195,150.698c-5.395,0-9.783,4.389-9.783,9.782
				c0,5.395,4.389,9.783,9.783,9.783s9.782-4.389,9.782-9.783C87.978,155.086,83.59,150.698,78.195,150.698z"/>
		</g>
	</g>
	<g>
		<rect x="250.082" y="304.461" fill="#8B8B8B" width="31.479" height="95.609"/>
	</g>
	<path fill="#EDEDED" d="M387.901,158.768h-244.16c-7.636,0-13.825,6.189-13.825,13.825v164.098c0,7.637,6.189,13.824,13.825,13.824
		h244.16c7.636,0,13.826-6.188,13.826-13.824V172.593C401.728,164.958,395.537,158.768,387.901,158.768z"/>
	<g>
		<rect x="140.562" y="138.359" fill="#FFFFFF" width="250.521" height="182.108"/>
	</g>
	<g>
		<linearGradient id="SVGID_1_" gradientUnits="userSpaceOnUse" x1="140.5615" y1="149.3569" x2="391.082" y2="149.3569">
			<stop  offset="0" style="stop-color:#9CD1E2"/>
			<stop  offset="1" style="stop-color:#6775F5"/>
		</linearGradient>
		<rect x="140.562" y="138.359" fill="url(#SVGID_1_)" width="250.521" height="21.996"/>
	</g>
	<g>
		<ellipse fill="#C8C8C8" cx="370.905" cy="334.217" rx="10.31" ry="8.77"/>
	</g>
	<rect x="195.015" y="396.461" fill="#C8C8C8" width="141.613" height="7.219"/>
	<path fill="#F3F5FF" d="M182.601,153.512H155.18c-2.294,0-4.154-1.86-4.154-4.154l0,0c0-2.296,1.86-4.156,4.154-4.156h27.421
		c2.295,0,4.155,1.86,4.155,4.156l0,0C186.756,151.652,184.896,153.512,182.601,153.512z"/>
	<rect x="158.916" y="236.993" fill="#E2E2E2" width="131.162" height="4.509"/>
	<rect x="158.916" y="245.113" fill="#E2E2E2" width="97.283" height="4.508"/>
	<rect x="158.916" y="262.758" fill="#E2E2E2" width="61.685" height="4.508"/>
	<rect x="158.916" y="270.877" fill="#E2E2E2" width="110.821" height="4.508"/>
	<rect x="158.916" y="290.279" fill="#E2E2E2" width="103.815" height="4.51"/>
	<rect x="158.916" y="298.4" fill="#E2E2E2" width="126.771" height="4.508"/>
	<rect x="152.515" y="236.993" fill="#9DBEF9" width="3.296" height="12.628"/>
	<rect x="152.515" y="262.758" fill="#9DBEF9" width="3.296" height="12.627"/>
	<rect x="152.515" y="290.279" fill="#9DBEF9" width="3.296" height="12.629"/>
	<g>
		<g>
			<path fill="#9DBEF9" d="M328.387,308.594L328.387,308.594c-4.988,0-9.032-4.043-9.032-9.031l0,0c0-4.99,4.044-9.033,9.032-9.033
				l0,0c4.988,0,9.033,4.043,9.033,9.033l0,0C337.42,304.551,333.375,308.594,328.387,308.594z"/>
		</g>
		<g>
			<g>
				<g>
					<path fill="#F1F1F1" d="M327.815,303.541l-4.567-3.98c-0.375-0.326-0.413-0.896-0.087-1.27
						c0.326-0.375,0.895-0.414,1.269-0.088l3.229,2.816l4.606-5.137c0.332-0.371,0.9-0.402,1.271-0.068
						c0.369,0.33,0.4,0.898,0.069,1.27L327.815,303.541z"/>
				</g>
			</g>
		</g>
	</g>
	<g>
		<g>
			<g>
				<path fill="#9DBEF9" d="M333.312,281.082h-9.848c-2.271,0-4.118-1.848-4.118-4.117v-9.85c0-2.27,1.847-4.117,4.118-4.117h9.848
					c2.27,0,4.117,1.848,4.117,4.117v9.85C337.429,279.234,335.581,281.082,333.312,281.082z M323.464,264.145
					c-1.639,0-2.972,1.334-2.972,2.971v9.85c0,1.639,1.333,2.971,2.972,2.971h9.848c1.638,0,2.971-1.332,2.971-2.971v-9.85
					c0-1.637-1.333-2.971-2.971-2.971H323.464z"/>
			</g>
		</g>
	</g>
	<g>
		<g>
			<g>
				<path fill="#9DBEF9" d="M360.512,253.559h-9.849c-2.27,0-4.117-1.846-4.117-4.117v-9.849c0-2.27,1.848-4.117,4.117-4.117h9.849
					c2.271,0,4.118,1.848,4.118,4.117v9.849C364.63,251.713,362.782,253.559,360.512,253.559z M350.663,236.622
					c-1.638,0-2.971,1.333-2.971,2.972v9.849c0,1.638,1.333,2.972,2.971,2.972h9.849c1.637,0,2.971-1.334,2.971-2.972v-9.849
					c0-1.639-1.334-2.972-2.971-2.972H350.663z"/>
			</g>
		</g>
	</g>
	<g>
		<g>
			<g>
				<path fill="#9DBEF9" d="M360.512,308.604h-9.849c-2.27,0-4.117-1.848-4.117-4.117v-9.848c0-2.271,1.848-4.117,4.117-4.117h9.849
					c2.271,0,4.118,1.846,4.118,4.117v9.848C364.63,306.756,362.782,308.604,360.512,308.604z M350.663,291.668
					c-1.638,0-2.971,1.332-2.971,2.971v9.848c0,1.639,1.333,2.971,2.971,2.971h9.849c1.637,0,2.971-1.332,2.971-2.971v-9.848
					c0-1.639-1.334-2.971-2.971-2.971H350.663z"/>
			</g>
		</g>
	</g>
	<g>
		<g>
			<path fill="#9DBEF9" d="M355.587,281.072L355.587,281.072c-4.988,0-9.032-4.043-9.032-9.033l0,0c0-4.986,4.044-9.033,9.032-9.033
				l0,0c4.989,0,9.034,4.047,9.034,9.033l0,0C364.621,277.029,360.576,281.072,355.587,281.072z"/>
		</g>
		<g>
			<g>
				<g>
					<path fill="#F1F1F1" d="M355.016,276.02l-4.567-3.982c-0.374-0.326-0.414-0.895-0.087-1.27
						c0.326-0.373,0.895-0.412,1.269-0.086l3.23,2.814l4.605-5.135c0.331-0.371,0.9-0.402,1.271-0.07
						c0.37,0.33,0.401,0.9,0.069,1.271L355.016,276.02z"/>
				</g>
			</g>
		</g>
	</g>
	<g>
		<g>
			<path fill="#9DBEF9" d="M328.387,253.551L328.387,253.551c-4.988,0-9.032-4.044-9.032-9.034l0,0c0-4.987,4.044-9.032,9.032-9.032
				l0,0c4.988,0,9.033,4.045,9.033,9.032l0,0C337.42,249.506,333.375,253.551,328.387,253.551z"/>
		</g>
		<g>
			<g>
				<g>
					<path fill="#F1F1F1" d="M327.815,248.497l-4.567-3.981c-0.375-0.326-0.413-0.895-0.087-1.27
						c0.326-0.374,0.895-0.413,1.269-0.087l3.229,2.815l4.606-5.137c0.332-0.37,0.9-0.4,1.271-0.069
						c0.369,0.332,0.4,0.9,0.069,1.271L327.815,248.497z"/>
				</g>
			</g>
		</g>
	</g>
	<g>
		
			<linearGradient id="SVGID_2_" gradientUnits="userSpaceOnUse" x1="-7277.0889" y1="325.626" x2="-7227.6284" y2="325.626" gradientTransform="matrix(-1 0 0 1 -7161.2598 0)">
			<stop  offset="0" style="stop-color:#9CD1E2"/>
			<stop  offset="1" style="stop-color:#6775F5"/>
		</linearGradient>
		<path fill="url(#SVGID_2_)" d="M111.508,260.27c-4.265-2.041-8.51,11.537-8.51,11.537c-7.248,9.578-17.378-3.164-16.388,11.154
			c1.732,25.055-28.84,7.879-14.735,34.037s-12.454,14.791-3.689,35.883c8.766,21.094-2.595,46.25,10.594,35.912
			c0,0,11.612-25.467,23.589-33.344c11.976-7.881-7.175-17.229-3.428-27.93c5.442-15.545,18.557-14.934,9.101-31.637
			C98.586,279.178,126.005,267.201,111.508,260.27z"/>
		<g>
			<path fill="#FFFFFF" d="M74.603,379.209c5.717-4.02,12.408-32.039,12.808-48.727c0.204-8.547,2.73-12.109,4.96-15.252
				c2.131-3.002,3.971-5.598,2.899-11.553c-2.049-11.383,3.337-16.295,3.392-16.344l-0.622-0.711
				c-0.24,0.209-5.85,5.277-3.699,17.223c1.001,5.564-0.65,7.893-2.74,10.838c-2.194,3.092-4.925,6.939-5.136,15.777
				c-0.429,17.908-7.268,44.361-12.405,47.975L74.603,379.209z"/>
		</g>
		<g>
			
				<linearGradient id="SVGID_3_" gradientUnits="userSpaceOnUse" x1="-7240.8062" y1="353.2246" x2="-7196.0786" y2="353.2246" gradientTransform="matrix(-1 0 0 1 -7161.2598 0)">
				<stop  offset="0" style="stop-color:#9CD1E2"/>
				<stop  offset="1" style="stop-color:#6775F5"/>
			</linearGradient>
			<path fill="url(#SVGID_3_)" d="M62.62,371.037c-0.54-1.225-1.098-2.488-1.73-3.822c-3.266-6.895-6.158-8.029-10.951-9.91
				c-1.171-0.461-2.499-0.98-3.956-1.635c-6.865-3.086-5.536-7.635-4.363-11.646c0.164-0.561,0.328-1.119,0.47-1.674
				c0.604-2.357-0.557-3.543-2.313-5.334c-1.305-1.332-2.93-2.988-4.182-5.607c-1.37-2.863-0.672-4.4,0.155-5.184
				c1.742-1.652,5.758-1.348,9.55,0.723l0,0c1.178,0.643,2.147,1.658,3.174,2.734c2.418,2.529,5.426,5.682,13.034,5.717
				c4.338,0.02,6.714,0.619,7.945,2.002c1.396,1.568,1.133,3.918,0.769,7.17c-0.126,1.125-0.27,2.4-0.355,3.777
				c-0.518,8.217,4.333,14.145,4.381,14.203c2.899,3.451,6.469,10.611,4.928,15.018c-0.646,1.848-2.09,3.01-4.293,3.455
				c-0.879,0.178-1.681,0.264-2.418,0.262C67.143,381.285,65.194,376.873,62.62,371.037z M44.847,327.777
				c-3.387-1.85-7.018-2.221-8.446-0.867c-1.086,1.029-0.573,2.793,0.048,4.09c1.184,2.477,2.682,4.006,4.004,5.354
				c1.837,1.875,3.288,3.357,2.553,6.232c-0.145,0.563-0.311,1.133-0.479,1.705c-1.168,3.994-2.271,7.768,3.844,10.516
				c1.437,0.645,2.753,1.162,3.913,1.617c4.839,1.9,8.035,3.154,11.462,10.385c0.637,1.346,1.197,2.617,1.74,3.848
				c2.957,6.701,4.742,10.748,11.208,9.441c1.853-0.375,3.061-1.33,3.59-2.842c1.358-3.883-1.893-10.684-4.761-14.098
				c-0.21-0.252-5.142-6.266-4.601-14.871c0.089-1.4,0.233-2.688,0.36-3.822c0.337-3.008,0.581-5.182-0.535-6.436
				c-1.021-1.146-3.255-1.668-7.243-1.686c-8.011-0.039-11.173-3.35-13.714-6.01C46.773,329.27,45.896,328.35,44.847,327.777
				L44.847,327.777z"/>
		</g>
		<g>
			
				<linearGradient id="SVGID_4_" gradientUnits="userSpaceOnUse" x1="-7236.9834" y1="359.7295" x2="-7203.4121" y2="359.7295" gradientTransform="matrix(-1 0 0 1 -7161.2598 0)">
				<stop  offset="0" style="stop-color:#9CD1E2"/>
				<stop  offset="1" style="stop-color:#6775F5"/>
			</linearGradient>
			<path fill="url(#SVGID_4_)" d="M74.779,386.744l0.944-0.049c-0.047-0.889-1.238-21.797-9.634-27.916
				c-9.21-6.713-12.114-13.93-13.497-18.771c-1.63-5.707-9.924-7.232-10.276-7.293l-0.164,0.93c0.08,0.016,8.064,1.486,9.531,6.623
				c1.422,4.979,4.403,12.391,13.85,19.275C73.569,365.4,74.768,386.531,74.779,386.744z"/>
		</g>
		
			<linearGradient id="SVGID_5_" gradientUnits="userSpaceOnUse" x1="-7249.1064" y1="332.7129" x2="-7210.0093" y2="332.7129" gradientTransform="matrix(-1 0 0 1 -7161.2598 0)">
			<stop  offset="0" style="stop-color:#9CD1E2"/>
			<stop  offset="1" style="stop-color:#6775F5"/>
		</linearGradient>
		<path fill="url(#SVGID_5_)" d="M55.584,281.369c5.968-2.045,4.728,9.455,7.249,17.965c2.521,8.51,28.05,3.711,17.334,25.02
			s13.552,7.127,6.304,25.723c-7.249,18.594-0.632,38.48-8.51,33.422c-7.88-5.059-4.427-28.473-12.621-31.256
			s-9.531-6.027-1.418-13.592c8.113-7.563-21.26-15.072-14.011-30.348C57.16,293.031,48.689,283.732,55.584,281.369z"/>
		<g>
			<path fill="#FFFFFF" d="M74.305,382.607c0.75-3.184,7.159-31.197,1.18-34.584c-5.271-2.984-5.141-14.592-4.318-25.553
				c0.728-9.705-11.734-14.24-12.265-14.428l-0.316,0.893c0.123,0.043,12.312,4.482,11.638,13.465
				c-0.844,11.256-0.935,23.201,4.796,26.447c4.541,2.57,0.359,25.084-1.634,33.543L74.305,382.607z"/>
		</g>
		
			<linearGradient id="SVGID_6_" gradientUnits="userSpaceOnUse" x1="54.7129" y1="388.7939" x2="90.791" y2="388.7939" gradientTransform="matrix(1 0 0 1 6.0278 0)">
			<stop  offset="0" style="stop-color:#CF8F4E"/>
			<stop  offset="1" style="stop-color:#E6CA5C"/>
		</linearGradient>
		<polygon fill="url(#SVGID_6_)" points="96.818,372.633 88.299,404.955 69.26,404.955 60.74,372.633 		"/>
		
			<linearGradient id="SVGID_7_" gradientUnits="userSpaceOnUse" x1="54.7129" y1="388.7939" x2="90.791" y2="388.7939" gradientTransform="matrix(1 0 0 1 6.0278 0)">
			<stop  offset="0" style="stop-color:#A1713F"/>
			<stop  offset="1" style="stop-color:#E6CA5C"/>
		</linearGradient>
		<path fill="url(#SVGID_7_)" d="M96.818,372.633c0,0-18.755,3.521-18.755,32.322H69.26l-8.52-32.322H96.818z"/>
	</g>
	<rect x="165.314" y="221.157" fill="#D2D2D2" width="19.301" height="2.377"/>
	<rect x="160.632" y="216.922" fill="#D2D2D2" width="28.666" height="2.377"/>
	<linearGradient id="SVGID_8_" gradientUnits="userSpaceOnUse" x1="170.0254" y1="184.2808" x2="179.9912" y2="184.2808">
		<stop  offset="0" style="stop-color:#9CD1E2"/>
		<stop  offset="1" style="stop-color:#6775F5"/>
	</linearGradient>
	<circle fill="url(#SVGID_8_)" cx="175.008" cy="184.281" r="4.983"/>
	<linearGradient id="SVGID_9_" gradientUnits="userSpaceOnUse" x1="165.9316" y1="201.7231" x2="183.998" y2="201.7231">
		<stop  offset="0" style="stop-color:#9CD1E2"/>
		<stop  offset="1" style="stop-color:#6775F5"/>
	</linearGradient>
	<path fill="url(#SVGID_9_)" d="M183.998,200.528v9.477c-2.753,1.253-5.812,1.948-9.032,1.948c-3.222,0-6.281-0.695-9.034-1.948
		v-9.477c0-4.987,4.043-9.034,9.034-9.034C179.955,191.494,183.998,195.541,183.998,200.528z"/>
	<g>
		<linearGradient id="SVGID_10_" gradientUnits="userSpaceOnUse" x1="174.9658" y1="174.6113" x2="174.9658" y2="221.3233">
			<stop  offset="0" style="stop-color:#D2D6DC"/>
			<stop  offset="1" style="stop-color:#FFFFFF"/>
		</linearGradient>
		<path fill="url(#SVGID_10_)" d="M174.966,212.545c-3.238,0-6.36-0.674-9.279-2.001c-8.002-3.637-13.172-11.663-13.172-20.448
			c0-12.38,10.071-22.45,22.451-22.45c12.378,0,22.45,10.07,22.45,22.45c0,8.785-5.17,16.812-13.171,20.448
			C181.325,211.872,178.202,212.545,174.966,212.545z M174.966,168.831c-11.726,0-21.266,9.539-21.266,21.266
			c0,8.321,4.898,15.924,12.478,19.369c2.764,1.257,5.72,1.895,8.788,1.895c3.066,0,6.023-0.638,8.788-1.895
			c7.579-3.445,12.476-11.048,12.476-19.369C196.229,178.37,186.691,168.831,174.966,168.831z"/>
	</g>
	<rect x="209.93" y="168.44" fill="#E2E2E2" width="10.414" height="2.307"/>
	<rect x="240.309" y="168.44" fill="#E2E2E2" width="12.205" height="2.307"/>
	<rect x="270.788" y="168.44" fill="#E2E2E2" width="7.638" height="2.307"/>
	<rect x="300.613" y="168.44" fill="#E2E2E2" width="13.948" height="2.307"/>
	<rect x="328.387" y="168.44" fill="#E2E2E2" width="11.537" height="2.307"/>
	<rect x="355.587" y="168.44" fill="#E2E2E2" width="14.563" height="2.307"/>
	<rect x="209.93" y="175.045" fill="#E2E2E2" width="0.348" height="35.644"/>
	<rect x="240.135" y="175.045" fill="#E2E2E2" width="0.348" height="35.644"/>
	<rect x="270.788" y="175.045" fill="#E2E2E2" width="0.349" height="35.644"/>
	<rect x="300.44" y="175.045" fill="#E2E2E2" width="0.346" height="35.644"/>
	<rect x="328.214" y="175.045" fill="#E2E2E2" width="0.348" height="35.644"/>
	<rect x="355.414" y="175.045" fill="#E2E2E2" width="0.347" height="35.644"/>
	<g>
		<polygon fill="#8CB7E7" points="209.93,210.689 219.392,197.363 226.532,207.422 237.612,191.816 242.714,191.816 
			250.284,196.426 259.388,183.606 271.892,201.219 279.684,190.247 281.77,190.247 285.901,184.427 297.026,200.098 
			302.251,192.74 307.57,200.231 316.737,187.318 323.721,197.154 328.828,197.154 339.637,181.93 350.937,197.846 370.149,181.93 
			370.149,210.689 		"/>
	</g>
	<g>
		<polygon fill="#6E82F1" points="236.413,210.689 244.156,199.782 248.688,206.164 257.911,193.171 266.663,205.498 
			273.559,205.498 279.765,196.756 287.893,196.756 296.709,209.175 302.454,201.085 305.663,205.605 316.187,190.78 
			324.002,201.788 330.812,201.788 338.535,190.911 341.933,195.694 344.711,191.781 351.891,201.892 359.324,201.892 
			370.149,186.646 370.149,210.689 		"/>
	</g>
	<g>
		<path fill="#B67153" d="M419.555,280.283c0,0,1.058,10.436-0.869,13.055c0,0,5.104-1.111,6.287-2.869
			C426.154,288.711,419.555,280.283,419.555,280.283z"/>
		<g>
			<path fill="#CBA284" d="M387.683,313.609c0,0-1.852-1.244-2.14-1.426c-0.289-0.182-1.24-0.152-2.33-0.021
				c-1.089,0.129-2.501,0.791-2.588,0.959c-0.084,0.17-0.249,0.301-0.181,0.781s0.391,0.85,0.391,0.85s-0.194,0.631,0.236,1.057
				c0,0-0.155,0.602,0.414,1.004c0,0-0.137,0.592,0.301,0.85c0,0,0.954-0.027,1.31,0.063c0.356,0.092,2.334-0.104,4.203-0.582
				C387.299,317.143,389.383,316.695,387.683,313.609z"/>
		</g>
		<g>
			<path fill="#AE886E" d="M384.531,314.473c0,0,0.557,0.973,0.853,1.166c0.294,0.193-1.426,2.043-1.426,2.043
				S383.368,315.182,384.531,314.473z"/>
		</g>
		<g>
			<path fill="#CBA284" d="M388.779,313.787c0,0-1.165-0.129-1.885-0.461s0.135,3.627,0.135,3.627s1.745-1.203,2.884-1.238
				C391.051,315.68,388.779,313.787,388.779,313.787z"/>
		</g>
		<g>
			<path fill="#2C3442" d="M437.053,419.25c0,0-3.643,5.324-4.913,6.453c0,0-2.542,1.32-2.62,2.373
				c-0.147,1.992-0.327,3.848,3.015,3.943c3.343,0.094,5.506-0.695,6.117-2.719c0.612-2.023,2.073-3.766,2.073-3.766v4.236h0.753
				c0,0,0.188-4.096,0.235-4.85c0.047-0.752,0.542-3.648-1.048-4.932C439.076,418.709,437.053,419.25,437.053,419.25z"/>
		</g>
		<g>
			<path fill="#2C3442" d="M431.654,425.977c0,0,1.808,0.512,3.957-0.031c2.148-0.541,4.213-5.686,4.84-6.115l0.558-2.074h-4.19
				c0,0-0.034,1.535-0.712,2.85C435.43,421.922,431.654,425.977,431.654,425.977z"/>
		</g>
		<g>
			<path fill="#2C3442" d="M413.409,417.26c0,0-0.546,1.291-1.576,2.637c-0.757,0.986-3.107,5.037-4.143,5.32
				c-1.036,0.281-4.236,0.846-4.52,2.635c-0.283,1.791-0.424,3.063,2.73,3.203s5.226,0.328,6.731-1.883
				c1.507-2.213,3.907-3.814,3.907-3.814v5.773h1.225c0,0,0.564-6.01,0.895-6.434c0.329-0.422,1.177-5.037-1.742-7.438
				C413.999,414.859,413.409,417.26,413.409,417.26z"/>
		</g>
		<g>
			<path fill="#2C3442" d="M407.69,425.217c0,0,2.824,0.705,3.907,0c1.083-0.707,4.764-6.928,5.983-7.303
				c0,0-1.183-2.395-4.172-0.654C413.409,417.26,408.491,424.18,407.69,425.217z"/>
		</g>
		<g>
			<path fill="#353F54" d="M438.655,330.805c0,0,3.982,5.178,5.063,11.322c1.08,6.143-0.639,26.764-0.591,29.799
				c0.047,3.037,2.68,12.484,2.114,18.205c-0.564,5.719-3.523,29.594-3.523,29.594l-6.899-0.123c0,0,1.382-25.762,1.029-28.164
				c-0.353-2.4-1.477-12.615-1.618-13.604s-7.862-27.131-7.862-31.561S429.051,323.578,438.655,330.805z"/>
		</g>
		<g>
			<path fill="#353F54" d="M418.648,332.828c0,0-6.545,24.975-7.321,28.436c-0.776,3.459-2.33,7.979-2.26,8.613
				c0.07,0.637,0.824,11.299,0.824,11.299l1.859,36.297h6.897c0,0,2.212-23.092,2.564-27.752c0.354-4.66-2.542-11.863-1.837-13.84
				c0.707-1.979,11.37-24.785,11.37-24.785S438.819,325.578,418.648,332.828z"/>
		</g>
		<g>
			<path fill="#B04A4A" d="M420.672,295.451c0,0-2.616,0.246-4.594,2.365c-1.979,2.117-3.833,5.496-4.352,6.625
				c-0.518,1.131-7.776,11.602-8.153,11.836c-0.376,0.236-3.548-0.598-6.091-0.811c-4.148-0.346-10.353-2.459-10.353-2.459
				l-0.922,4.688c0,0,15.262,4.924,18.783,4.057c4.307-1.061,14.221-13.779,14.221-13.779S426.604,299.311,420.672,295.451z"/>
		</g>
		<g>
			<path fill="#B04A4A" d="M425.237,293.615c0,0-3.389,1.6-4.565,1.836c-1.177,0.234-5.743,6.166-6.544,8.332s0,5.414,1.648,9.227
				c1.646,3.814,0.094,5.084,0.847,8.896c0.753,3.814,0.753,14.209,0.61,16.328c-0.141,2.119,21.795,6.113,26.172,2.254
				c0,0-2.964-9.771-6.473-13.441c-0.759-0.793-0.679-6.082-0.16-7.398c0.517-1.318,6.354-11.158,6.354-11.158
				s0.429-9.98-2.118-11.957c-2.214-1.719-8.244-2.332-9.325-2.707C430.6,293.449,427.451,293.285,425.237,293.615z"/>
		</g>
		<g>
			<path fill="#C4BCB6" d="M424.155,301.17l-2.059-2.412l1.787-6.35C423.884,292.408,424.485,295.945,424.155,301.17z"/>
		</g>
		<g>
			<path fill="#CBA284" d="M437.066,295.451c0,0,4.271-1.225,6.72,3.482c2.448,4.709,1.835,7.25,2.401,9.369
				c0.564,2.117,2.824,16.287,2.966,16.9c0.141,0.611,2.307,7.814,2.023,10.027c-0.282,2.213-2.307,18.973-2.211,19.535
				c0.092,0.566-3.908-0.541-3.908-0.541s0.164-17.111,0.023-18.523c-0.142-1.412-0.283-8.828-1.342-10.734
				c-1.06-1.906-3.672-13.557-4.237-14.758C438.938,309.008,433.464,296.98,437.066,295.451z"/>
		</g>
		<g>
			<path fill="#CBA284" d="M423.619,289.703c0,0,0.678,6.217,0.536,8.242c0,0,3.521,3.529,7.528-4.119c0,0-1.687-3.154-0.418-7.449
				C432.534,282.08,423.619,289.703,423.619,289.703z"/>
		</g>
		<g>
			<polygon fill="#CBA284" points="424.155,297.945 424.155,301.17 427.94,297.816 			"/>
		</g>
		<g>
			<polygon fill="#C4BCB6" points="424.155,301.17 425.839,299.088 431.508,293.438 433.631,294.381 			"/>
		</g>
		<g>
			<polygon fill="#EDE2DA" points="422.097,298.758 419.5,299.475 423.884,292.408 			"/>
		</g>
		<g>
			<polygon fill="#EDE2DA" points="425.839,299.088 428.208,302.885 433.718,294.244 431.358,293.043 			"/>
		</g>
		<path fill="#803939" d="M413.761,314.416c0,0-0.847-5.641,0.054-9.068c0,0,0.499,2.766,1.713,7.076L413.761,314.416z"/>
		<path fill="#803939" d="M440.09,313.666c0,0-2.344-7.754-2.482-8.178c0,0,0.161,7.127,1.059,10.652
			C438.666,316.141,439.53,314.637,440.09,313.666z"/>
		<polygon fill="#463026" points="352.793,274.809 389.675,321.277 388.389,322.271 		"/>
		<g>
			<path fill="#BB987D" d="M380.911,313.076c0,0,2.767-0.26,2.864,0.18c0.097,0.441-0.135,0.662-0.135,0.662l1.189,0.41
				c0,0,0.632,0.715-0.331,1.195c0,0,0.66,0.607-0.325,0.961c0,0,0.257,0.596-0.171,0.84s-2.217,0.338-2.217,0.338
				s-0.385-0.148-0.301-0.85c0,0-0.568-0.352-0.414-1.004c0,0-0.409-0.354-0.236-1.057c0,0-0.853-0.859-0.21-1.631
				C380.625,313.121,380.794,313.086,380.911,313.076z"/>
		</g>
		<g>
			<path fill="#CBA284" d="M385.454,312.182c0,0-1.609,1.025-2.241,1.971c-0.144,0.215-0.244,0.447-0.098,0.662
				c0.144,0.213,0.638,0.273,1.356-0.133c0.72-0.41,1.838-0.607,1.838-0.607S386.926,313.436,385.454,312.182z"/>
		</g>
		<path fill="#CBA284" d="M426.476,268.539c0,0-6.238-0.162-7.386,7.227c-1.148,7.387,1.506,13.879,2.546,14.918
			s7.28,0.25,8.75-3.586c1.47-3.838,3.621-6.635,3.299-9.934S434.151,268.414,426.476,268.539z"/>
		<path fill="#B67153" d="M418.823,278.561c0,0-1.67-9.215,6.613-10.863c8.284-1.65,11.189,4.016,11.978,7.387
			c0.789,3.371-0.145,12.875-0.145,12.875s-5.521,4.84-8.821,6.096c0,0,2.763-10.113,1.723-17.357c0,0-6.731,1.057-11.202-0.047
			C418.969,276.65,418.835,278.166,418.823,278.561z"/>
		<path fill="#8E7662" d="M423.762,291.09c0,0,2.167-0.014,5.114-1.93c0,0-2.074,2.605-4.965,3.557
			C423.911,292.717,423.739,291.422,423.762,291.09z"/>
		
			<rect x="434.466" y="340.521" transform="matrix(-0.9869 -0.1611 0.1611 -0.9869 831.2067 766.4894)" fill="#586E94" width="24.419" height="18.058"/>
		<g>
			<g>
				<g>
					<g>
						<g>
							<path fill="#CBA284" d="M449.797,360.117c0,0,0.378-0.613,0.411-0.963c0,0,0.015-0.641,0.052-1.096
								c0.013-0.143,0.026-0.27,0.044-0.348c0.072-0.336,0.331-1.047,0.281-1.898c-0.051-0.852-1.215-4.469-1.215-4.469
								l-2.133,0.074l-2.007-0.215c0,0-2.424,4.627-2.469,5.426c-0.004,0.078-0.006,0.156,0,0.227
								c0.028,0.682,0.335,1.176,0.39,1.531c0.021,0.129,0.318,1.412,0.669,1.586c0.488,0.246,0.926,0.217,1.249,0.031
								c0,0,0.976,0.436,1.67,0.246c0,0,0.889,0.432,1.685-0.049C448.424,360.201,449.374,360.539,449.797,360.117z"/>
						</g>
					</g>
				</g>
			</g>
		</g>
		<g>
			<path fill="#B04A4A" d="M437.066,295.451c0,0,4.271-1.225,6.72,3.482c2.448,4.709,2.436,6.717,2.763,9.016
				c0.31,2.17,3.294,15.064,3.436,15.676c0.142,0.613,1.266,8.338,1.335,11.271c0.052,2.229-0.613,17.188-0.52,17.752
				c0.095,0.564-6.761-0.988-6.761-0.988s0.759-13.488,0.617-14.9c-0.14-1.412-0.441-8.453-1.132-10.521
				c-0.811-2.43-4.011-14.678-4.575-15.877S433.464,296.98,437.066,295.451z"/>
		</g>
	</g>
	<g>
		<g>
			<g>
				<path fill="#CBA284" d="M162.996,307.066c0,0,0.544-2.824,0.642-3.252c0.097-0.43,1.066-1.313,2.314-1.977
					c1.212-0.646,2.81-1.732,3.041-1.658c0.231,0.076,0.471,0.035,0.85,0.535c0.377,0.498,0.421,1.127,0.421,1.127
					s0.755,0.396,0.751,1.178c0,0,0.692,0.406,0.543,1.289c0,0,0.665,0.416,0.503,1.049c0,0-0.893,0.846-1.132,1.254
					c-0.24,0.41-2.217,2.041-4.352,3.314C166.577,309.926,164.151,310.447,162.996,307.066z"/>
			</g>
		</g>
		<g>
			<g>
				<path fill="#CBA284" d="M166.577,309.926c0,0-2.742,1.209-3.852,0.891c-1.111-0.32-0.702-3.518-0.702-3.518l1.543-1.545
					L166.577,309.926z"/>
			</g>
		</g>
		<g>
			<path fill="#D1C7C0" d="M138.693,311.641c2.27-1.252,0.054-4.543,0.041-4.658l0.005,0.01c0.079,0.172,0.646,2.252,1.391,4.82
				c1.258,4.344,3.018,10.08,3.769,10.355c1.091,0.4,17.892-9.602,20.806-11.41l-1.794-4.699l-16.017,7.52l-8.034-21.154
				c-0.184-0.146-1.435-1.385-3.011-2.135c-1.607-0.766-3.545-1.891-5.302-2.852c-0.895-0.49-1.741-0.938-2.474-1.273l-0.112-0.051
				v-0.002c-1.212-0.553-2.016-0.92-2.016-0.92s-0.001,0-0.004,0c-0.028-0.004-0.218-0.021-0.526-0.051
				c-1.688-0.158-6.935-0.65-8.691-0.754c-0.146-0.01-0.267-0.014-0.361-0.018c-0.08-0.002-0.139-0.002-0.176,0
				c-0.223,0.014-1.305,0.391-2.727,0.932h-0.001c-0.054,0.021-0.107,0.041-0.162,0.063c-0.065,0.025-0.134,0.049-0.2,0.076
				c-0.124,0.047-0.249,0.094-0.376,0.145c-0.255,0.098-0.517,0.201-0.781,0.307c-0.092,0.035-0.185,0.07-0.278,0.107
				c-2.844,1.129-6.103,2.525-6.877,3.082c-0.512,0.365-2.104,3.369-3.953,7.084c-2.379,7.621-5.395,19.291-5.488,22.168
				c0,0.045-0.001,0.09-0.001,0.129c0,0.332,0.626,1.658,1.626,3.566c1.462-2.924,2.609-5.324,2.985-6.207
				c1.231-2.91,7.581-9.58,7.581-9.58s0,0.004,0.003,0.014c0,0.002,0.001,0.006,0.001,0.008c0.002,0.002,0.002,0.004,0.002,0.008
				c0.003,0.01,0.005,0.02,0.008,0.027c0.005,0.016,0.01,0.033,0.016,0.057c0.004,0.012,0.007,0.023,0.01,0.037
				c0.002,0.008,0.005,0.016,0.008,0.025c0.346,1.287,2.468,9.338,2.545,13.301c0.087,4.318,1.213,12.303,1.213,12.303l0.005,0.002
				l1.326,0.186l2.934,0.414l0.35,0.049l0.854,0.119l7.778,1.094l2.759,0.389l0.373,0.055l1.577,0.219l4.354,0.613l1.11,0.156
				l0.01,0.002l0.832,0.117l1.149,0.16c0,0,0,0,0.001,0c0.031-0.043,1.119-1.531,0.951-4.836
				C137.702,330.758,134.357,314.035,138.693,311.641z"/>
		</g>
		<g>
			<path fill="#CBA284" d="M122.181,262.285c0,0,8.829-2.83,7.774,8.689c-1.056,11.52-3.143,12.602-8.786,10.736
				c-5.642-1.865-5.798-9.172-6.386-12.709C114.194,265.463,119.317,262.662,122.181,262.285z"/>
		</g>
		<g>
			<path fill="#CBA284" d="M126.817,287.531c0,0-3.616,4.584-10.262,1.297c0,0,0.6-9.291-0.539-13.689
				c-1.137-4.4,8.84,6.189,8.84,6.189c-0.112,0.072-0.153,0.504-0.116,1.113c0.029,0.516,0.114,1.154,0.254,1.809
				C125.31,285.717,125.911,287.244,126.817,287.531z"/>
		</g>
		<g>
			<path fill="#414349" d="M115.735,274.781c0,0-0.083-3.594,1.212-3.82c1.295-0.229,1.623,1.193,1.623,1.193l1.34,0.133
				c0,0-0.694-3.094,0.561-3.756c1.254-0.664,8.593,0.977,9.559-0.035c0.964-1.012-0.091-7.318-2.059-8.021
				c-1.967-0.701-7.363-2.186-10.962,0.742c0,0-3.012-0.076-3.241,2.371C113.538,266.033,114.766,273.061,115.735,274.781z"/>
		</g>
		<g>
			<path fill="#8E7662" d="M124.994,284.25c-6.683-1.432-7.521-5.305-7.53-5.365c2.467,3.492,7.276,3.557,7.276,3.557
				C124.77,282.957,124.854,283.596,124.994,284.25z"/>
		</g>
		<g>
			<g>
				<path fill="#AE886E" d="M166.463,304.906c0,0,0.304,1.412,0.188,1.852c-0.115,0.441,2.888,0.336,2.888,0.336
					S168.19,304.582,166.463,304.906z"/>
			</g>
		</g>
		<g>
			<g>
				<path fill="#BB987D" d="M168.664,300.391c0,0-2.754,2.293-2.439,2.783s0.728,0.479,0.728,0.479l-0.705,1.459
					c0,0,0.079,1.229,1.395,0.783c0,0-0.047,1.156,1.174,0.576c0,0,0.31,0.775,0.922,0.605c0.613-0.168,2.323-1.719,2.323-1.719
					s0.214-0.49-0.503-1.049c0,0,0.192-0.838-0.543-1.289c0,0-0.021-0.98-0.822-1.461c0,0-0.192-1.158-1.229-1.389
					C168.964,300.17,168.779,300.293,168.664,300.391z"/>
			</g>
		</g>
		<g>
			<g>
				<path fill="#CBA284" d="M163.716,303.732c0,0,2.4-0.539,3.841-0.26c0.325,0.064,0.629,0.186,0.692,0.512
					s-0.327,0.834-1.355,1.119c-1.027,0.287-2.225,1.129-2.225,1.129S163.526,306.217,163.716,303.732z"/>
			</g>
		</g>
		<g>
			<path fill="#3D3F41" d="M143.223,422.984c0,0,2.63,2.934,5.298,3.549c2.67,0.615,4.537,1.4,4.558,3.084
				c0.02,1.686-7.682,2.795-10.736,1.098c-4.559-2.535-5.022-1.771-5.527-3.037c-0.506-1.268,0.606-4.654,0.574-5.057
				C137.348,422.121,143.223,422.984,143.223,422.984z"/>
		</g>
		<g>
			<path fill="#7F7E7C" d="M142.928,421.58c0,0,0.347,1.375,0.295,1.404s-6.014,0.738-5.834-0.363
				c0.146-0.896,0.354-1.869,0.354-1.869L142.928,421.58z"/>
		</g>
		<g>
			<path fill="#3D3F41" d="M116.399,423.75c0,0,1.934,2.857,4.521,3.518c2.551,0.65,4.205,1.889,4.329,3.525
				c0.126,1.637-6.015,3.781-10.326,0.904c-2.836-1.889-3.893-1.781-4.464-2.982c-0.57-1.199,0.3-4.564,0.243-4.955
				C110.631,423.279,116.399,423.75,116.399,423.75z"/>
		</g>
		<g>
			<path fill="#7F7E7C" d="M116.319,422.336c0,0,0.128,1.383,0.08,1.414c-0.049,0.031-5.732,1.1-5.697,0.01
				c0.026-0.865,0.359-1.941,0.359-1.941L116.319,422.336z"/>
		</g>
		<g>
			<path fill="#363739" d="M137.506,339.258c0,0,2.674,19.365,3.803,26.574c1.318,8.432,1.553,13.078,1.92,17.439
				c0.462,5.488,0.26,36.5,0.584,38.104c0.323,1.605-7.185,0.443-7.185,0.443s-3.693-35.273-5.071-41.117
				c-1.283-5.441-6.044-28.873-7.214-27.387s-2.622,27.344-3.489,31.635c-0.866,4.293-3.528,38.207-3.528,38.207
				s-5.95,0.877-7.539-0.469c0,0-0.724-28.957-0.171-37.004c0.21-3.066-3.594-36.771,1.284-50.34
				C113.477,328.174,137.506,339.258,137.506,339.258z"/>
		</g>
		<g>
			<path fill="#4F5256" d="M136.751,335.592c0,0,0.585,0.701,0.755,3.666c0,0-24.063-2.807-26.606-3.914c0,0-0.1-3.266,0.439-3.322
				C111.932,331.959,136.751,335.592,136.751,335.592z"/>
		</g>
		<g>
			<path fill="#363739" d="M116.838,332.6c0,0-0.526,3.313-0.571,4.176l-1.114-0.223c0,0,0.308-3.504,0.487-4.092L116.838,332.6z"/>
		</g>
		<g>
			<path fill="#363739" d="M134.744,335.207c0,0,0.421,3.01,0.431,4.148l-1.178-0.154c0,0-0.24-3.758-0.375-4.152L134.744,335.207z"
				/>
		</g>
		<g>
			<path fill="#B04A4A" d="M116.703,289.441c-1.615-2.297-2.967-3.834-3.228-4.125c-0.007-0.006-0.011-0.012-0.016-0.016
				c-0.055,0.021-0.108,0.041-0.163,0.063c-0.065,0.025-0.134,0.049-0.2,0.076c-0.124,0.047-0.249,0.094-0.376,0.145
				c-0.255,0.1-0.517,0.201-0.781,0.307c-0.092,0.035-0.185,0.07-0.278,0.107c-2.923,1.148-8.795,3.141-9.569,3.695
				c-0.447,0.32-1.279,4.35-2.434,8.051c-2.38,7.623-4.246,17.717-4.315,20.588c0,0.045-0.001,0.09-0.001,0.129
				c0,0.332,0.626,1.658,1.626,3.568c1.546,2.949,3.986,7.289,6.395,11.498c-0.444,0.828-0.873,1.646-1.271,2.449
				c-0.582,1.174-1.095,2.307-1.478,3.379c-0.548,1.537-1.313,5.477,0.149,6.209l7.696,4.248c0.837-2.813,7.584-17.305,7.584-17.305
				c2.225-4.059,4.73-7.453,5.53-12.43c0.077-0.48,0.15-0.959,0.22-1.434c0.116-0.791,0.223-1.57,0.321-2.334
				c0.035-0.289,0.07-0.576,0.106-0.859c0.399-3.32,0.64-6.279,0.832-8.342C123.656,300.689,119.724,293.736,116.703,289.441z
				 M107.427,325.545c0,0-3.129-5.293-3.352-8.354c-0.371-5.08,3.462-10.938,3.462-10.938c0,0.002,0.001,0.006,0.001,0.008
				c0.002,0.002,0.003,0.004,0.003,0.008c0.002,0.01,0.004,0.02,0.007,0.029c0.006,0.018,0.012,0.035,0.016,0.055
				c0.005,0.012,0.007,0.023,0.01,0.037c0.002,0.008,0.006,0.016,0.008,0.025c0.767,3.021,1.082,14.178,1.082,14.178
				C108.777,323.658,107.427,325.545,107.427,325.545z"/>
		</g>
		<g>
			<path fill="#B04A4A" d="M164.295,311.662c-0.159,0.902-19.909,11.414-21.126,10.965c-0.274-0.1-0.74-0.934-1.298-2.168
				s-1.208-2.865-1.849-4.559c-0.479-1.262-0.953-2.561-1.383-3.75c-0.009-0.025-0.017-0.049-0.026-0.072
				c-0.512,2.699-1.395,5.543-1.161,8.564c0,0.002,0,0.006,0.001,0.008c-0.24,14.004,3.976,24.34,5.173,28.203
				c0.2,0.645-0.319,1.377-0.817,1.838l-0.985,0.91l-1.407,1.297c0,0-1.826-8.336-3.116-13.783
				c-0.033-0.148-0.068-0.295-0.102-0.438c-0.291-1.271-0.506-2.398-0.598-3.244v-0.008c-0.46-4.318-1.901-10.102-2.533-15.738
				v-0.002c-0.801-7.15-1.635-14.234-2.227-18.396c-0.052-0.352-0.103-0.695-0.151-1.033c-0.02-0.139-0.04-0.275-0.061-0.412
				c-0.004-0.021-0.008-0.047-0.011-0.072c-0.03-0.201-0.06-0.402-0.092-0.6c-0.005-0.035-0.009-0.07-0.014-0.104
				c-0.046-0.299-0.092-0.59-0.136-0.879c-0.002-0.002-0.002-0.002-0.002-0.004c-1.33-8.551-2.359-11.977-2.359-11.977l0.058-0.045
				c0.701,0.322,1.529,0.701,2.41,1.109c1.844,0.852,3.922,1.816,5.563,2.598c1.576,0.75,3.035,1.506,3.22,1.65l8.289,21.139
				l14.419-6.889C162.831,307.762,164.295,311.662,164.295,311.662z"/>
		</g>
		<g>
			<path fill="#863D3D" d="M115.49,294.672l3.557,2.006l-1.52,1.551l4.047,21.85c0.825-5.121,1.2-9.984,1.479-12.969
				c0.933-9.926-8.976-21.123-9.593-21.811c-0.476,0.182-0.99,0.381-1.521,0.592L115.49,294.672z"/>
		</g>
		<g>
			<path fill="#863D3D" d="M126.897,285.625c0,0,2.393,4.828,3.941,15.664c0.594,4.162,1.428,11.246,2.229,18.396l0.828-20.463
				l-1.694-1.836l1.506-1.883l-3.614-8.41c-0.881-0.408-1.318-0.607-2.02-0.93L126.897,285.625z"/>
		</g>
		<g>
			<path fill="#E8DED5" d="M113.282,285.344l3.432-1.791c0,0,0.813,2.809,6.903,5.842l-2.073,5.842L113.282,285.344z"/>
		</g>
		<g>
			<path fill="#E8DED5" d="M124.994,284.25c0,0,0.451,1.863-1.377,5.145l4.049,5.277l-0.769-9.047L124.994,284.25z"/>
		</g>
		<g>
			<path fill="#4F5256" d="M123.606,289.395c0,0-0.784,3.139-0.503,4.018c0,0,1.726,0.627,2.967-0.158
				C126.07,293.254,125.191,291.059,123.606,289.395z"/>
		</g>
		<g>
			<g>
				<path fill="#A29B95" d="M127.663,334.654c0.439-2.213,0.021-8.848,0.002-9.131l-0.375,0.025
					c0.004,0.068,0.433,6.867,0.003,9.033L127.663,334.654z"/>
			</g>
		</g>
		<g>
			<path fill="#637EAD" d="M124.59,333.635c0,0,3.541,0.422,4.712,0.713l-0.153,3.969l-4.636-0.494L124.59,333.635z"/>
		</g>
		<g>
			<path fill="#4F5256" d="M125.365,292.973c0,0,3.948,9.973,3.305,21.135c-0.667,11.572-1.764,15.77-1.764,15.77l-2.435,3.053
				l-1.074-3.752c0,0,3.269-14.756,1.158-29.113c-0.381-2.602-0.949-7.531-0.949-7.531L125.365,292.973z"/>
		</g>
		<g>
			<path fill="#7C3838" d="M140.022,315.9c-0.479-1.262-0.953-2.561-1.383-3.75c-0.009-0.025-0.017-0.049-0.026-0.072v-0.002
				c0,0,0.021-2.377-0.112-5.055c-0.123-2.537-0.383-5.342-0.924-6.654c0.072,0.121,2.362,4.055,2.552,11.445
				C140.163,313.074,140.134,314.438,140.022,315.9z"/>
		</g>
		<g>
			<path fill="#CBA284" d="M113.755,340.586c0,0,0.846,1.695,1.694,1.979c0.848,0.281,2.083,1.658,2.083,1.658l-5.967,3.143
				c0,0-1.589-3.107-1.658-5.084C109.836,340.305,113.755,340.586,113.755,340.586z"/>
		</g>
		<g>
			<path fill="#D1C7C0" d="M114.065,340.227l0.395,0.795c0.004-0.006-3.784,2.758-4.81,2.947l-0.351-1.059L114.065,340.227z"/>
		</g>
		<g>
			<path fill="#B04A4A" d="M107.427,325.545l7.31,14.48l-5.798,3.34l-5.576-9.838C103.362,333.527,103.829,326.975,107.427,325.545z
				"/>
		</g>
		<g>
			<path fill="#CBA284" d="M170.192,301.559c0,0-3.262,2.041-3.432,2.396s-0.951-0.834-0.784-1.129
				c0.165-0.293,2.578-2.463,2.866-2.621C169.128,300.047,170.348,300.57,170.192,301.559z"/>
		</g>
		<g>
			<path fill="#CBA284" d="M168.214,300.518c0,0,5.281-2.516,5.563-1.865c0.281,0.648-0.229,0.896-4.46,3.355
				C165.204,304.398,168.214,300.518,168.214,300.518z"/>
		</g>
		<g>
			<path fill="#7C3838" d="M108.4,342.414l-6.309-6.438c0.397-0.803,0.826-1.621,1.271-2.449L108.4,342.414z"/>
		</g>
	</g>
	<g>
		<g>
			<g>
				<g>
					<path fill="#CBA284" d="M246.026,351.182c0,0,0.655,1.074,0.736,1.951c0.065,0.693,0.649,1.73,0.901,2.303
						c0.253,0.574,1.066,3.168,1.095,3.842c0.013,0.275-0.604,2.016-0.517,2.57c0.088,0.557,0.406,1.658-0.093,1.732
						c-0.5,0.072-1.066-0.832-1.066-0.832s0.048,0.514-0.375,0.709c-0.821,0.379-1.257,0.045-1.257,0.045s-0.303,0.563-0.683,0.639
						c-0.84,0.168-1.251-0.168-1.251-0.168s-0.368,0.314-0.949,0.303c-0.741-0.014-1.054-0.654-1.054-0.654s-0.938,0.191-1.21-0.248
						c-0.271-0.438-0.226-0.904-0.339-1.303c-0.111-0.396-0.027-3.982,1.19-6.563c1.219-2.582-0.31-5.1-0.31-5.1L246.026,351.182z"
						/>
				</g>
			</g>
		</g>
		<g>
			<g>
				<path fill="#BB987D" d="M247.215,362.412c0,0,0.085-3.217-0.763-3.9c-0.847-0.686-0.942,0.475-0.942,0.475
					s0.115-1.146-0.811-1.301c-0.925-0.154-0.964,1.207-0.964,1.207s-0.152-0.885-1.124-0.703s-0.739,1.311-0.739,1.311
					s-0.928-1.105-1.531-0.043c-1.016,1.797-0.036,3.916-0.036,3.916s0.286,0.488,1.21,0.248c0,0,0.62,1.246,2.003,0.352
					c0,0,1.418,0.779,1.934-0.471C245.451,363.502,247.013,364.244,247.215,362.412z"/>
			</g>
		</g>
		<path fill="#3A3C57" d="M256.938,304.846c0,0-5.507,18.352-7.367,25.123c-0.584,2.121-1.996,22.398-2.245,23.215
			s-7.233,1.934-7.233,1.934s0.846-25.363,0.926-26.748c0.079-1.383,7.706-29.709,9.924-30.719c1.663-0.758,2.54-0.133,4.634,1.422
			C258.515,301.256,256.938,304.846,256.938,304.846z"/>
		<g>
			
				<rect x="316.688" y="267.948" transform="matrix(0.547 0.8371 -0.8371 0.547 374.3188 -140.7866)" fill="#80A2EA" width="1.118" height="15.064"/>
		</g>
		<path fill="#CCA486" d="M325.2,275.629c0,0-0.12,0.713-0.325,1c0,0-0.413,0.492-0.685,0.859c-0.085,0.115-0.158,0.221-0.198,0.293
			c-0.166,0.299-0.44,1.008-1.04,1.617c-0.601,0.609-2.938,2.545-2.938,2.545l-2.003-1.701l-2.08-0.932c0,0,1.164-5.061,1.658-5.693
			c0.048-0.061,0.099-0.121,0.149-0.172c0.471-0.494,1.027-0.666,1.305-0.896c0.101-0.086,1.171-0.855,1.552-0.756
			c0.53,0.137,0.842,0.445,0.962,0.801c0,0,1.024,0.316,1.425,0.916c0,0,0.954,0.26,1.237,1.15
			C324.219,274.66,325.158,275.033,325.2,275.629z"/>
		<g>
			<g>
				<path fill="#484A6F" d="M252.47,430.156c0,0-0.502,3.482-0.564,4.006c-0.063,0.525-5.584-0.307-5.584-0.307l-0.446-4.148
					C245.875,429.707,251.78,429.664,252.47,430.156z"/>
			</g>
		</g>
		<g>
			<g>
				<path fill="#323349" d="M251.964,433.721c0,0,1.749,2.1,3.441,3.014c1.691,0.916,4.351,1.277,5.352,2.225
					c0.722,0.684,2.63,3.627-4.397,3.568c-7.027-0.061-10.415,0.416-11.168-0.713s1.089-8.332,1.089-8.332
					S247.945,434.082,251.964,433.721z"/>
			</g>
		</g>
		<g>
			<g>
				<path fill="#484A6F" d="M292.029,430.156c0,0-0.502,3.482-0.564,4.006c-0.063,0.525-5.584-0.307-5.584-0.307l-0.447-4.148
					C285.434,429.707,291.34,429.664,292.029,430.156z"/>
			</g>
		</g>
		<g>
			<g>
				<path fill="#323349" d="M291.524,433.721c0,0,1.748,2.1,3.44,3.014c1.692,0.916,7.917,1.666,8.918,2.613
					c0.723,0.684,1.923,3.438-7.964,3.18c-7.024-0.184-10.414,0.416-11.167-0.713s1.089-8.332,1.089-8.332
					S287.408,434.123,291.524,433.721z"/>
			</g>
		</g>
		<g>
			<g>
				<path fill="#323349" d="M257.041,340.629c0,0-5.187,8.242-4.8,15.693s-1.881,15.586-2.661,23.367
					c-0.868,8.678-4.424,29.219-4.554,33.859c-0.129,4.643,0.552,19.463,0.552,19.463l7.118,0.162c0,0,5.979-35.912,7.525-39.574
					c1.549-3.664,9.226-29.787,9.484-32.719C269.964,357.949,257.041,340.629,257.041,340.629z"/>
			</g>
		</g>
		<g>
			<g>
				<path fill="#323349" d="M284.351,341.746c0,0,3.91,20.422,4.426,24.98c0.516,4.561,0.86,22.068,1.117,24.918
					c0.259,2.85,2.412,37.209,3.098,41.529h-9.1c0,0-6.983-25.039-6.983-36.887s-5.396-25.758-8.88-33.574
					s-11.457-8.002-13.598-22.506C254.431,340.207,281.452,337.146,284.351,341.746z"/>
			</g>
		</g>
		<g>
			<g>
				<path fill="#CBA284" d="M265.698,271.332c0,0,6.963-2.6,10.175,2.701c3.21,5.299,2.901,15.91-0.609,17.217
					c-3.51,1.305-8.782,0.621-10.58-2.695c-1.796-3.316-3.419-8.111-3.341-11.316C261.421,274.035,263.87,272.258,265.698,271.332z"
					/>
			</g>
		</g>
		<g>
			<g>
				<path fill="#CBA284" d="M274.508,291.492c0,0-0.289,1.881,0.19,2.807c0.478,0.926-9.021,0.951-9.021,0.951
					s-0.773-5.039-2.234-9.295C261.98,281.699,274.508,291.492,274.508,291.492z"/>
			</g>
		</g>
		<g>
			<g>
				<path fill="#B28658" d="M263.442,285.955c0,0,0.656,1.082,3.333,0.662c2.675-0.42,5.941-3.98,7.059-4.371
					s1.128-1.049,1.128-1.049l0.7,1.023l1.187,0.074c0,0-1.083-3.186,0.551-4.484c1.633-1.299-1.695-10.311-10.278-7.311
					c0,0-6.593,1.818-6.354,5.566C261.007,279.816,261.968,284.088,263.442,285.955z"/>
			</g>
		</g>
		<g>
			<g>
				<path fill="#D7CEC6" d="M275.261,294.188c0,0-0.029-1.771-0.832-1.939c-0.802-0.17-8.853-0.943-9.838-0.557v2.061
					C264.591,293.752,266.488,294.918,275.261,294.188z"/>
			</g>
		</g>
		<g>
			<g>
				<path fill="#CBA284" d="M274.785,279.834c-0.151-0.629-1.751-2.426-2.362-0.502c-0.612,1.926,0.925,4.514,1.783,4.291
					C275.063,283.402,275.165,281.43,274.785,279.834z"/>
			</g>
		</g>
		<g>
			<g>
				<path fill="#3A3C57" d="M288.578,296.865c-5.521-0.727-13.317-2.678-13.317-2.678l-10.67-0.436c0,0-9.792,2.154-13.649,3.898
					c-0.364,0.164-0.367,8.734-1.371,10.982l3.197,6.746c0,0,1.848,13.361,2.231,19.305c0.176,2.727-3.811,25.58-3.811,25.58
					s4.271,1.26,11.553,2.063c7.282,0.801,25.477-0.291,25.592-1.152c0.115-0.859-3.523-32.025-3.685-33.639
					c-0.248-2.479,0.854-15.641,0.854-15.641c1.68-1.305,16.442-8.158,20.471-11.729c1.077-0.955,5.627-5.387,6.92-6.914
					c4.578-5.416,8.333-10.061,8.789-11.063c0.52-0.57-4.976-3.557-5.473-3.723c-0.437-0.145-6.627,7.875-9.009,10.457
					c-1.063,1.15-5.479,4.363-5.479,4.363S292.03,297.064,288.578,296.865z"/>
			</g>
		</g>
		<g>
			<g>
				<path fill="#B28658" d="M263.714,271.957c0,0-8.877,0.695-0.271,13.998L263.714,271.957z"/>
			</g>
		</g>
		<polygon fill="#DCDDE4" points="323.855,271.822 324.585,270.711 323.243,270.887 		"/>
	</g>
</g>
<g id="OBJECTS">
</g>
</svg>
