<?xml version="1.0" encoding="utf-8"?>
<!-- Generator: Adobe Illustrator 16.0.0, SVG Export Plug-In . SVG Version: 6.00 Build 0)  -->
<!DOCTYPE svg PUBLIC "-//W3C//DTD SVG 1.1//EN" "http://www.w3.org/Graphics/SVG/1.1/DTD/svg11.dtd">
<svg version="1.1" id="Layer_1" xmlns="http://www.w3.org/2000/svg" xmlns:xlink="http://www.w3.org/1999/xlink" x="0px" y="0px"
	 width="761.404px" height="127.494px" viewBox="64.111 238.734 761.404 127.494"
	 enable-background="new 64.111 238.734 761.404 127.494" xml:space="preserve">
<g>
	<path d="M771.669,260.807h-3.267v3.188h-2.976v-3.188h-3.285v-2.822h3.285v-3.188h2.976v3.188h3.267V260.807z"/>
	<path d="M784.072,261.812c0,2.415-1.816,4.618-5.894,4.618c-1.875,0-3.865-0.464-5.239-1.333l1.374-2.88
		c1.102,0.734,2.453,1.122,3.748,1.122c1.296,0,2.164-0.522,2.164-1.429c0-0.831-0.561-1.372-2.629-1.372h-3.67l0.675-7.904h8.619
		v2.957h-5.449l-0.175,1.971h0.908C782.505,257.561,784.072,259.415,784.072,261.812z"/>
	<path d="M795.49,261.927c0,2.299-1.815,4.502-5.895,4.502c-1.873,0-3.865-0.464-5.255-1.333l1.39-2.88
		c1.084,0.734,2.474,1.122,3.749,1.122c1.295,0,2.145-0.503,2.145-1.41c0-0.811-0.598-1.314-2.066-1.314h-1.604V258.2l2.413-2.609
		h-5.332v-2.957h9.777v2.396l-2.802,3.015C794.291,258.526,795.49,259.994,795.49,261.927z"/>
	<path d="M796.299,256.207c0-2.338,1.468-3.749,3.458-3.749c2.011,0,3.479,1.41,3.479,3.749c0,2.356-1.468,3.749-3.479,3.749
		C797.767,259.956,796.299,258.565,796.299,256.207z M807.756,252.633h2.784l-9.237,13.526h-2.782L807.756,252.633z
		 M800.896,256.207c0-1.372-0.481-1.913-1.139-1.913c-0.62,0-1.14,0.541-1.14,1.913c0,1.372,0.52,1.913,1.14,1.913
		C800.415,258.121,800.896,257.58,800.896,256.207z M805.843,262.584c0-2.337,1.45-3.749,3.46-3.749c2.011,0,3.477,1.41,3.477,3.749
		c0,2.357-1.466,3.749-3.477,3.749C807.293,266.333,805.843,264.941,805.843,262.584z M810.444,262.584
		c0-1.372-0.504-1.913-1.141-1.913c-0.639,0-1.142,0.541-1.142,1.913c0,1.372,0.503,1.913,1.142,1.913
		C809.94,264.497,810.444,263.956,810.444,262.584z"/>
	<path d="M771.669,290.751h-3.267v3.188h-2.976v-3.188h-3.285v-2.821h3.285v-3.189h2.976v3.189h3.267V290.751z"/>
	<path d="M784.072,291.756c0,2.415-1.816,4.618-5.894,4.618c-1.875,0-3.865-0.464-5.239-1.333l1.374-2.879
		c1.102,0.734,2.453,1.121,3.748,1.121c1.296,0,2.164-0.522,2.164-1.43c0-0.831-0.561-1.372-2.629-1.372h-3.67l0.675-7.903h8.619
		v2.957h-5.449l-0.175,1.972h0.908C782.505,287.505,784.072,289.36,784.072,291.756z"/>
	<path d="M790.967,282.578v13.526h-3.825v-10.57h-2.514v-2.957L790.967,282.578L790.967,282.578z"/>
	<path d="M792.762,286.151c0-2.337,1.47-3.749,3.458-3.749c2.011,0,3.479,1.41,3.479,3.749c0,2.357-1.469,3.749-3.479,3.749
		C794.232,289.9,792.762,288.51,792.762,286.151z M804.221,282.578h2.784l-9.238,13.526h-2.781L804.221,282.578z M797.361,286.151
		c0-1.371-0.481-1.913-1.141-1.913c-0.618,0-1.138,0.542-1.138,1.913c0,1.372,0.52,1.913,1.138,1.913
		C796.879,288.065,797.361,287.524,797.361,286.151z M802.308,292.529c0-2.338,1.45-3.749,3.458-3.749
		c2.011,0,3.479,1.41,3.479,3.749c0,2.356-1.468,3.749-3.479,3.749C803.758,296.278,802.308,294.886,802.308,292.529z
		 M806.909,292.529c0-1.372-0.504-1.913-1.143-1.913c-0.637,0-1.14,0.541-1.14,1.913c0,1.371,0.503,1.913,1.14,1.913
		C806.405,294.442,806.909,293.9,806.909,292.529z"/>
	<path d="M771.669,320.697h-3.267v3.187h-2.976v-3.187h-3.285v-2.821h3.285v-3.189h2.976v3.189h3.267V320.697z"/>
	<path d="M786.237,323.458h-2.01v2.591h-3.729v-2.591h-7.15v-2.493l6.066-8.444h3.962l-5.507,7.904h2.744v-2.301h3.615v2.301h2.008
		V323.458L786.237,323.458z"/>
	<path d="M798.193,318.918c0,4.714-2.917,7.4-7.207,7.4c-1.507,0-2.976-0.349-3.963-0.986l1.393-2.744
		c0.771,0.542,1.623,0.697,2.491,0.697c1.914,0,3.188-1.082,3.402-3.131c-0.753,0.639-1.759,0.985-3.033,0.985
		c-2.553,0-4.657-1.68-4.657-4.271c0-2.821,2.356-4.618,5.293-4.618C795.721,312.251,798.193,314.532,798.193,318.918z
		 M794.057,316.676c0-1.005-0.733-1.7-1.892-1.7c-1.083,0-1.835,0.657-1.835,1.719c0,1.043,0.752,1.7,1.854,1.7
		C793.288,318.395,794.057,317.7,794.057,316.676z"/>
	<path d="M799.273,316.096c0-2.338,1.47-3.748,3.46-3.748c2.01,0,3.477,1.41,3.477,3.748c0,2.357-1.467,3.749-3.477,3.749
		C800.743,319.845,799.273,318.456,799.273,316.096z M810.732,312.523h2.783l-9.237,13.526h-2.783L810.732,312.523z
		 M803.872,316.096c0-1.371-0.482-1.913-1.139-1.913c-0.62,0-1.142,0.542-1.142,1.913c0,1.372,0.521,1.912,1.142,1.912
		C803.389,318.01,803.872,317.468,803.872,316.096z M808.818,322.474c0-2.339,1.45-3.749,3.459-3.749c2.01,0,3.479,1.41,3.479,3.749
		c0,2.356-1.469,3.748-3.479,3.748C810.268,326.222,808.818,324.831,808.818,322.474z M813.417,322.474
		c0-1.372-0.501-1.914-1.14-1.914s-1.141,0.542-1.141,1.914c0,1.371,0.504,1.911,1.141,1.911S813.417,323.845,813.417,322.474z"/>
	<path d="M771.669,350.64h-3.267v3.188h-2.976v-3.188h-3.285v-2.822h3.285v-3.188h2.976v3.188h3.267V350.64z"/>
	<path d="M786.237,353.402h-2.01v2.591h-3.729v-2.591h-7.15v-2.492l6.066-8.443h3.962l-5.507,7.904h2.744v-2.301h3.615v2.301h2.008
		V353.402L786.237,353.402z"/>
	<path d="M798.193,348.862c0,4.715-2.917,7.4-7.207,7.4c-1.507,0-2.976-0.347-3.963-0.985l1.393-2.745
		c0.771,0.542,1.623,0.697,2.491,0.697c1.914,0,3.188-1.082,3.402-3.131c-0.753,0.637-1.759,0.985-3.033,0.985
		c-2.553,0-4.657-1.68-4.657-4.271c0-2.82,2.356-4.617,5.293-4.617C795.721,342.196,798.193,344.476,798.193,348.862z
		 M794.057,346.62c0-1.003-0.733-1.7-1.892-1.7c-1.083,0-1.835,0.659-1.835,1.721c0,1.043,0.752,1.7,1.854,1.7
		C793.288,348.34,794.057,347.645,794.057,346.62z"/>
	<path d="M799.273,346.042c0-2.339,1.47-3.749,3.46-3.749c2.01,0,3.477,1.41,3.477,3.749c0,2.356-1.467,3.749-3.477,3.749
		C800.743,349.791,799.273,348.398,799.273,346.042z M810.732,342.466h2.783l-9.237,13.526h-2.783L810.732,342.466z
		 M803.872,346.042c0-1.372-0.482-1.913-1.139-1.913c-0.62,0-1.142,0.541-1.142,1.913s0.521,1.912,1.142,1.912
		C803.389,347.954,803.872,347.414,803.872,346.042z M808.818,352.417c0-2.336,1.45-3.748,3.459-3.748
		c2.01,0,3.479,1.412,3.479,3.748c0,2.357-1.469,3.749-3.479,3.749C810.268,356.166,808.818,354.774,808.818,352.417z
		 M813.417,352.417c0-1.371-0.501-1.911-1.14-1.911s-1.141,0.542-1.141,1.911c0,1.374,0.504,1.914,1.141,1.914
		S813.417,353.791,813.417,352.417z"/>
</g>
<rect x="303.981" y="248.312" fill="#ED1C24" width="24.178" height="23.753"/>
<rect x="303.981" y="276.815" fill="#ED1C24" width="19.104" height="23.753"/>
<rect x="303.981" y="305.32" fill="#ED1C24" width="14.994" height="23.752"/>
<rect x="303.981" y="333.822" fill="#ED1C24" width="23.332" height="23.752"/>
<rect x="323.319" y="248.312" fill="#FBB040" width="37.588" height="23.753"/>
<rect x="318.967" y="276.815" fill="#FBB040" width="45.325" height="23.753"/>
<rect x="318.604" y="305.32" fill="#FBB040" width="51.364" height="23.752"/>
<rect x="326.581" y="333.822" fill="#FBB040" width="36.986" height="23.752"/>
<rect x="361.019" y="248.312" fill="#1C75BC" width="123.138" height="23.753"/>
<rect x="362.711" y="276.815" fill="#1C75BC" width="104.528" height="23.753"/>
<rect x="367.663" y="305.32" fill="#1C75BC" width="88.821" height="23.752"/>
<rect x="363.667" y="333.822" fill="#1C75BC" width="205.915" height="23.752"/>
<rect x="458.896" y="248.312" fill="#D7DF23" width="200.95" height="23.753"/>
<rect x="466.815" y="276.815" fill="#D7DF23" width="269.031" height="23.753"/>
<rect x="456.227" y="305.32" fill="#D7DF23" width="203.619" height="23.752"/>
<rect x="458.379" y="333.822" fill="#D7DF23" width="201.467" height="23.752"/>
<rect x="642.196" y="248.312" fill="#662D91" width="107.914" height="23.753"/>
<rect x="638.814" y="276.815" fill="#662D91" width="111.296" height="23.753"/>
<rect x="637.968" y="305.32" fill="#662D91" width="112.142" height="23.752"/>
<rect x="641.281" y="333.822" fill="#662D91" width="108.829" height="23.752"/>
<g>
	<path fill="#FFFFFF" d="M312.961,261.967h-1.004v1.293h-1.863v-1.293h-3.572v-1.246l3.031-4.219h1.979l-2.752,3.949h1.371v-1.148
		h1.805v1.148h1.003v1.516H312.961z"/>
	<path fill="#FFFFFF" d="M312.946,258.29c0-1.168,0.734-1.873,1.728-1.873c1.004,0,1.738,0.704,1.738,1.873
		c0,1.178-0.734,1.873-1.738,1.873C313.68,260.163,312.946,259.467,312.946,258.29z M318.671,256.502h1.39l-4.614,6.758h-1.39
		L318.671,256.502z M315.244,258.29c0-0.686-0.242-0.956-0.57-0.956c-0.309,0-0.569,0.27-0.569,0.956
		c0,0.685,0.26,0.956,0.569,0.956C315.002,259.245,315.244,258.975,315.244,258.29z M317.715,261.474
		c0-1.167,0.725-1.873,1.729-1.873c1.003,0,1.737,0.706,1.737,1.873c0,1.177-0.733,1.874-1.737,1.874
		C318.439,263.348,317.715,262.653,317.715,261.474z M320.013,261.474c0-0.685-0.251-0.955-0.569-0.955
		c-0.319,0-0.57,0.271-0.57,0.955c0,0.686,0.251,0.956,0.57,0.956S320.013,262.16,320.013,261.474z"/>
	<path fill="#FFFFFF" d="M311.793,290.126c0,1.148-0.907,2.25-2.945,2.25c-0.937,0-1.931-0.232-2.626-0.667l0.695-1.438
		c0.541,0.367,1.235,0.561,1.873,0.561c0.646,0,1.071-0.251,1.071-0.705c0-0.405-0.299-0.657-1.033-0.657h-0.802v-1.207l1.207-1.303
		h-2.664v-1.477h4.885v1.197l-1.399,1.506C311.196,288.427,311.793,289.16,311.793,290.126z"/>
	<path fill="#FFFFFF" d="M312.202,287.268c0-1.167,0.733-1.873,1.728-1.873c1.004,0,1.738,0.704,1.738,1.873
		c0,1.178-0.734,1.873-1.738,1.873C312.936,289.141,312.202,288.446,312.202,287.268z M317.927,285.481h1.39l-4.614,6.758h-1.391
		L317.927,285.481z M314.5,287.268c0-0.686-0.242-0.956-0.57-0.956c-0.31,0-0.569,0.271-0.569,0.956
		c0,0.685,0.261,0.956,0.569,0.956C314.258,288.224,314.5,287.953,314.5,287.268z M316.972,290.453c0-1.168,0.725-1.873,1.729-1.873
		c1.003,0,1.737,0.705,1.737,1.873c0,1.178-0.733,1.873-1.737,1.873C317.695,292.326,316.972,291.632,316.972,290.453z
		 M319.269,290.453c0-0.685-0.251-0.955-0.568-0.955c-0.319,0-0.57,0.27-0.57,0.955c0,0.686,0.251,0.956,0.57,0.956
		C319.018,291.41,319.269,291.139,319.269,290.453z"/>
	<path fill="#FFFFFF" d="M311.793,319.105c0,1.148-0.907,2.249-2.945,2.249c-0.937,0-1.931-0.232-2.626-0.666l0.695-1.439
		c0.541,0.368,1.235,0.561,1.873,0.561c0.646,0,1.071-0.25,1.071-0.704c0-0.405-0.299-0.657-1.033-0.657h-0.802v-1.208l1.207-1.302
		h-2.664v-1.478h4.885v1.196l-1.399,1.507C311.196,317.405,311.793,318.138,311.793,319.105z"/>
	<path fill="#FFFFFF" d="M312.202,316.248c0-1.169,0.733-1.873,1.728-1.873c1.004,0,1.738,0.704,1.738,1.873
		c0,1.177-0.734,1.872-1.738,1.872C312.936,318.12,312.202,317.424,312.202,316.248z M317.927,314.46h1.39l-4.614,6.758h-1.391
		L317.927,314.46z M314.5,316.248c0-0.686-0.242-0.957-0.57-0.957c-0.31,0-0.569,0.271-0.569,0.957c0,0.685,0.261,0.954,0.569,0.954
		C314.258,317.202,314.5,316.932,314.5,316.248z M316.972,319.431c0-1.168,0.725-1.872,1.729-1.872c1.003,0,1.737,0.704,1.737,1.872
		c0,1.179-0.733,1.873-1.737,1.873C317.695,321.304,316.972,320.61,316.972,319.431z M319.269,319.431
		c0-0.685-0.251-0.954-0.568-0.954c-0.319,0-0.57,0.27-0.57,0.954c0,0.686,0.251,0.958,0.57,0.958
		C319.018,320.389,319.269,320.117,319.269,319.431z"/>
	<path fill="#FFFFFF" d="M311.9,348.024c0,1.208-0.907,2.308-2.945,2.308c-0.937,0-1.931-0.231-2.615-0.665l0.685-1.438
		c0.551,0.366,1.227,0.56,1.873,0.56c0.646,0,1.082-0.263,1.082-0.715c0-0.416-0.281-0.686-1.313-0.686h-1.834l0.338-3.948h4.306
		v1.477h-2.722l-0.087,0.984h0.454C311.118,345.901,311.9,346.828,311.9,348.024z"/>
	<path fill="#FFFFFF" d="M312.24,345.224c0-1.167,0.734-1.871,1.729-1.871c1.004,0,1.737,0.704,1.737,1.871
		c0,1.179-0.734,1.874-1.737,1.874C312.975,347.098,312.24,346.403,312.24,345.224z M317.966,343.439h1.39l-4.615,6.758h-1.39
		L317.966,343.439z M314.538,345.224c0-0.684-0.241-0.954-0.569-0.954c-0.309,0-0.569,0.271-0.569,0.954
		c0,0.687,0.261,0.956,0.569,0.956C314.297,346.18,314.538,345.911,314.538,345.224z M317.01,348.411
		c0-1.169,0.725-1.873,1.728-1.873c1.004,0,1.738,0.704,1.738,1.873c0,1.177-0.733,1.872-1.738,1.872
		C317.734,350.283,317.01,349.587,317.01,348.411z M319.308,348.411c0-0.686-0.251-0.957-0.569-0.957
		c-0.319,0-0.569,0.271-0.569,0.957c0,0.685,0.25,0.954,0.569,0.954C319.057,349.367,319.308,349.095,319.308,348.411z"/>
</g>
<g>
	<path fill="#FFFFFF" d="M343.11,259.699c0,2.355-1.458,3.698-3.602,3.698c-0.752,0-1.486-0.174-1.979-0.493l0.695-1.371
		c0.386,0.271,0.811,0.348,1.247,0.348c0.955,0,1.592-0.541,1.699-1.564c-0.377,0.319-0.879,0.493-1.516,0.493
		c-1.274,0-2.326-0.84-2.326-2.134c0-1.409,1.177-2.308,2.645-2.308C341.875,256.368,343.11,257.507,343.11,259.699z
		 M341.043,258.578c0-0.502-0.367-0.85-0.946-0.85c-0.541,0-0.917,0.329-0.917,0.86c0,0.521,0.376,0.849,0.926,0.849
		C340.657,259.438,341.043,259.09,341.043,258.578z"/>
	<path fill="#FFFFFF" d="M343.653,258.29c0-1.168,0.734-1.873,1.729-1.873c1.004,0,1.737,0.704,1.737,1.873
		c0,1.178-0.734,1.873-1.737,1.873C344.388,260.163,343.653,259.467,343.653,258.29z M349.379,256.502h1.39l-4.615,6.758h-1.39
		L349.379,256.502z M345.951,258.29c0-0.686-0.241-0.956-0.569-0.956c-0.309,0-0.569,0.27-0.569,0.956
		c0,0.685,0.261,0.956,0.569,0.956C345.71,259.245,345.951,258.975,345.951,258.29z M348.422,261.474
		c0-1.167,0.724-1.873,1.728-1.873s1.738,0.706,1.738,1.873c0,1.177-0.733,1.874-1.738,1.874
		C349.146,263.348,348.422,262.653,348.422,261.474z M350.721,261.474c0-0.685-0.251-0.955-0.569-0.955
		c-0.319,0-0.57,0.271-0.57,0.955c0,0.686,0.251,0.956,0.57,0.956C350.469,262.43,350.721,262.16,350.721,261.474z"/>
	<path fill="#FFFFFF" d="M340.397,285.481v6.758h-1.912v-5.281h-1.255v-1.477H340.397z"/>
	<path fill="#FFFFFF" d="M341.413,288.86c0-2.23,1.255-3.514,2.983-3.514c1.718,0,2.973,1.285,2.973,3.514
		c0,2.229-1.255,3.514-2.973,3.514C342.667,292.375,341.413,291.091,341.413,288.86z M345.448,288.86
		c0-1.419-0.445-1.951-1.052-1.951c-0.618,0-1.063,0.531-1.063,1.951c0,1.418,0.444,1.95,1.063,1.95
		C345.003,290.811,345.448,290.28,345.448,288.86z"/>
	<path fill="#FFFFFF" d="M347.913,287.268c0-1.167,0.734-1.873,1.729-1.873c1.004,0,1.737,0.704,1.737,1.873
		c0,1.178-0.734,1.873-1.737,1.873C348.647,289.141,347.913,288.446,347.913,287.268z M353.639,285.481h1.39l-4.615,6.758h-1.39
		L353.639,285.481z M350.211,287.268c0-0.686-0.241-0.956-0.569-0.956c-0.309,0-0.569,0.271-0.569,0.956
		c0,0.685,0.261,0.956,0.569,0.956C349.97,288.224,350.211,287.953,350.211,287.268z M352.683,290.453
		c0-1.168,0.725-1.873,1.728-1.873c1.004,0,1.738,0.705,1.738,1.873c0,1.178-0.733,1.873-1.738,1.873
		C353.407,292.326,352.683,291.632,352.683,290.453z M354.98,290.453c0-0.685-0.251-0.955-0.569-0.955
		c-0.319,0-0.569,0.27-0.569,0.955c0,0.686,0.25,0.956,0.569,0.956C354.729,291.41,354.98,291.139,354.98,290.453z"/>
	<path fill="#FFFFFF" d="M340.397,314.46v6.758h-1.912v-5.28h-1.255v-1.478H340.397z"/>
	<path fill="#FFFFFF" d="M346.616,319.105c0,1.148-0.907,2.249-2.945,2.249c-0.937,0-1.931-0.232-2.626-0.666l0.695-1.439
		c0.541,0.368,1.235,0.561,1.873,0.561c0.646,0,1.071-0.25,1.071-0.704c0-0.405-0.299-0.657-1.033-0.657h-0.802v-1.208l1.207-1.302
		h-2.664v-1.478h4.885v1.196l-1.399,1.507C346.018,317.405,346.616,318.138,346.616,319.105z"/>
	<path fill="#FFFFFF" d="M347.025,316.248c0-1.169,0.733-1.873,1.728-1.873c1.005,0,1.738,0.704,1.738,1.873
		c0,1.177-0.734,1.872-1.738,1.872C347.758,318.12,347.025,317.424,347.025,316.248z M352.75,314.46h1.39l-4.614,6.758h-1.39
		L352.75,314.46z M349.323,316.248c0-0.686-0.242-0.957-0.57-0.957c-0.309,0-0.569,0.271-0.569,0.957
		c0,0.685,0.261,0.954,0.569,0.954C349.081,317.202,349.323,316.932,349.323,316.248z M351.794,319.431
		c0-1.168,0.725-1.872,1.729-1.872c1.003,0,1.737,0.704,1.737,1.872c0,1.179-0.733,1.873-1.737,1.873
		C352.518,321.304,351.794,320.61,351.794,319.431z M354.091,319.431c0-0.685-0.251-0.954-0.568-0.954
		c-0.319,0-0.57,0.27-0.57,0.954c0,0.686,0.251,0.958,0.57,0.958C353.84,320.389,354.091,320.117,354.091,319.431z"/>
	<path fill="#FFFFFF" d="M340.397,343.439v6.758h-1.912v-5.28h-1.255v-1.478H340.397z"/>
	<path fill="#FFFFFF" d="M341.413,346.817c0-2.229,1.255-3.514,2.983-3.514c1.718,0,2.973,1.284,2.973,3.514
		c0,2.23-1.255,3.515-2.973,3.515C342.667,350.332,341.413,349.047,341.413,346.817z M345.448,346.817
		c0-1.417-0.445-1.95-1.052-1.95c-0.618,0-1.063,0.533-1.063,1.95c0,1.419,0.444,1.952,1.063,1.952
		C345.003,348.769,345.448,348.236,345.448,346.817z"/>
	<path fill="#FFFFFF" d="M347.913,345.224c0-1.167,0.734-1.871,1.729-1.871c1.004,0,1.737,0.704,1.737,1.871
		c0,1.179-0.734,1.874-1.737,1.874C348.647,347.098,347.913,346.403,347.913,345.224z M353.639,343.439h1.39l-4.615,6.758h-1.39
		L353.639,343.439z M350.211,345.224c0-0.684-0.241-0.954-0.569-0.954c-0.309,0-0.569,0.271-0.569,0.954
		c0,0.687,0.261,0.956,0.569,0.956C349.97,346.18,350.211,345.911,350.211,345.224z M352.683,348.411
		c0-1.169,0.725-1.873,1.728-1.873c1.004,0,1.738,0.704,1.738,1.873c0,1.177-0.733,1.872-1.738,1.872
		C353.407,350.283,352.683,349.587,352.683,348.411z M354.98,348.411c0-0.686-0.251-0.957-0.569-0.957
		c-0.319,0-0.569,0.271-0.569,0.957c0,0.685,0.25,0.954,0.569,0.954C354.729,349.367,354.98,349.095,354.98,348.411z"/>
</g>
<g>
	<path fill="#FFFFFF" d="M415.169,261.745v1.515h-5.261v-1.196l2.53-2.366c0.54-0.502,0.618-0.81,0.618-1.09
		c0-0.435-0.29-0.695-0.869-0.695c-0.492,0-0.937,0.222-1.207,0.657l-1.419-0.792c0.512-0.849,1.467-1.409,2.799-1.409
		c1.555,0,2.626,0.802,2.626,2.057c0,0.657-0.183,1.255-1.148,2.144l-1.273,1.178L415.169,261.745L415.169,261.745z"/>
	<path fill="#FFFFFF" d="M418.63,256.502v6.758h-1.912v-5.281h-1.255v-1.477H418.63z"/>
	<path fill="#FFFFFF" d="M419.529,258.29c0-1.168,0.734-1.873,1.729-1.873c1.005,0,1.737,0.704,1.737,1.873
		c0,1.178-0.732,1.873-1.737,1.873C420.263,260.163,419.529,259.467,419.529,258.29z M425.255,256.502h1.39l-4.615,6.758h-1.39
		L425.255,256.502z M421.828,258.29c0-0.686-0.242-0.956-0.57-0.956c-0.309,0-0.569,0.27-0.569,0.956
		c0,0.685,0.262,0.956,0.569,0.956C421.585,259.245,421.828,258.975,421.828,258.29z M424.299,261.474
		c0-1.167,0.725-1.873,1.728-1.873c1.004,0,1.738,0.706,1.738,1.873c0,1.177-0.733,1.874-1.738,1.874
		C425.023,263.348,424.299,262.653,424.299,261.474z M426.596,261.474c0-0.685-0.251-0.955-0.569-0.955s-0.569,0.271-0.569,0.955
		c0,0.686,0.251,0.956,0.569,0.956S426.596,262.16,426.596,261.474z"/>
	<path fill="#FFFFFF" d="M415.169,290.724v1.516h-5.261v-1.197l2.53-2.366c0.54-0.502,0.618-0.811,0.618-1.091
		c0-0.435-0.29-0.695-0.869-0.695c-0.492,0-0.937,0.222-1.207,0.657l-1.419-0.791c0.512-0.849,1.467-1.409,2.799-1.409
		c1.555,0,2.626,0.802,2.626,2.056c0,0.657-0.183,1.255-1.148,2.144l-1.273,1.177L415.169,290.724L415.169,290.724z"/>
	<path fill="#FFFFFF" d="M420.937,290.126c0,1.148-0.906,2.25-2.943,2.25c-0.938,0-1.932-0.232-2.627-0.667l0.695-1.438
		c0.541,0.367,1.236,0.561,1.873,0.561c0.646,0,1.071-0.251,1.071-0.705c0-0.405-0.299-0.657-1.032-0.657h-0.802v-1.207l1.207-1.303
		h-2.664v-1.477h4.885v1.197l-1.4,1.506C420.339,288.427,420.937,289.16,420.937,290.126z"/>
	<path fill="#FFFFFF" d="M421.346,287.268c0-1.167,0.733-1.873,1.728-1.873c1.005,0,1.738,0.704,1.738,1.873
		c0,1.178-0.735,1.873-1.738,1.873C422.08,289.141,421.346,288.446,421.346,287.268z M427.07,285.481h1.391l-4.613,6.758h-1.392
		L427.07,285.481z M423.644,287.268c0-0.686-0.242-0.956-0.57-0.956c-0.31,0-0.569,0.271-0.569,0.956
		c0,0.685,0.261,0.956,0.569,0.956C423.402,288.224,423.644,287.953,423.644,287.268z M426.115,290.453
		c0-1.168,0.726-1.873,1.729-1.873c1.004,0,1.738,0.705,1.738,1.873c0,1.178-0.733,1.873-1.738,1.873
		S426.115,291.632,426.115,290.453z M428.413,290.453c0-0.685-0.252-0.955-0.569-0.955c-0.319,0-0.569,0.27-0.569,0.955
		c0,0.686,0.25,0.956,0.569,0.956C428.161,291.41,428.413,291.139,428.413,290.453z"/>
	<path fill="#FFFFFF" d="M412.843,314.46v6.758h-1.911v-5.28h-1.255v-1.478H412.843z"/>
	<path fill="#FFFFFF" d="M419.469,317.656c0,2.355-1.458,3.698-3.602,3.698c-0.753,0-1.486-0.174-1.979-0.493l0.695-1.369
		c0.387,0.27,0.811,0.346,1.246,0.346c0.956,0,1.593-0.539,1.699-1.563c-0.377,0.318-0.879,0.492-1.516,0.492
		c-1.274,0-2.326-0.841-2.326-2.135c0-1.408,1.178-2.307,2.645-2.307C418.232,314.326,419.469,315.465,419.469,317.656z
		 M417.402,316.537c0-0.504-0.366-0.851-0.944-0.851c-0.542,0-0.918,0.328-0.918,0.859c0,0.521,0.377,0.85,0.927,0.85
		C417.015,317.395,417.402,317.048,417.402,316.537z"/>
	<path fill="#FFFFFF" d="M420.012,316.248c0-1.169,0.733-1.873,1.728-1.873c1.006,0,1.738,0.704,1.738,1.873
		c0,1.177-0.733,1.872-1.738,1.872C420.746,318.12,420.012,317.424,420.012,316.248z M425.738,314.46h1.39l-4.614,6.758h-1.39
		L425.738,314.46z M422.311,316.248c0-0.686-0.242-0.957-0.571-0.957c-0.308,0-0.568,0.271-0.568,0.957
		c0,0.685,0.261,0.954,0.568,0.954C422.069,317.202,422.311,316.932,422.311,316.248z M424.783,319.431
		c0-1.168,0.725-1.872,1.728-1.872s1.738,0.704,1.738,1.872c0,1.179-0.733,1.873-1.738,1.873
		C425.506,321.304,424.783,320.61,424.783,319.431z M427.08,319.431c0-0.685-0.252-0.954-0.569-0.954
		c-0.318,0-0.569,0.27-0.569,0.954c0,0.686,0.251,0.958,0.569,0.958C426.828,320.389,427.08,320.117,427.08,319.431z"/>
	<path fill="#FFFFFF" d="M415.169,348.681v1.516h-5.261V349l2.53-2.366c0.54-0.503,0.618-0.81,0.618-1.091
		c0-0.434-0.29-0.695-0.869-0.695c-0.492,0-0.937,0.223-1.207,0.657l-1.419-0.792c0.512-0.85,1.467-1.408,2.799-1.408
		c1.555,0,2.626,0.801,2.626,2.056c0,0.657-0.183,1.255-1.148,2.144l-1.273,1.177H415.169L415.169,348.681z"/>
	<path fill="#FFFFFF" d="M418.63,343.439v6.758h-1.912v-5.28h-1.255v-1.478H418.63z"/>
	<path fill="#FFFFFF" d="M419.529,345.224c0-1.167,0.734-1.871,1.729-1.871c1.005,0,1.737,0.704,1.737,1.871
		c0,1.179-0.732,1.874-1.737,1.874C420.263,347.098,419.529,346.403,419.529,345.224z M425.255,343.439h1.39l-4.615,6.758h-1.39
		L425.255,343.439z M421.828,345.224c0-0.684-0.242-0.954-0.57-0.954c-0.309,0-0.569,0.271-0.569,0.954
		c0,0.687,0.262,0.956,0.569,0.956C421.585,346.18,421.828,345.911,421.828,345.224z M424.299,348.411
		c0-1.169,0.725-1.873,1.728-1.873c1.004,0,1.738,0.704,1.738,1.873c0,1.177-0.733,1.872-1.738,1.872
		C425.023,350.283,424.299,349.587,424.299,348.411z M426.596,348.411c0-0.686-0.251-0.957-0.569-0.957s-0.569,0.271-0.569,0.957
		c0,0.685,0.251,0.954,0.569,0.954C426.345,349.367,426.596,349.095,426.596,348.411z"/>
</g>
<g>
	<path fill="#FFFFFF" d="M550.383,261.146c0,1.149-0.906,2.25-2.943,2.25c-0.938,0-1.933-0.232-2.625-0.667l0.692-1.438
		c0.542,0.367,1.237,0.561,1.874,0.561c0.647,0,1.07-0.251,1.07-0.706c0-0.404-0.299-0.657-1.032-0.657h-0.801v-1.207l1.206-1.303
		h-2.663v-1.477h4.885v1.197l-1.401,1.506C549.786,259.448,550.383,260.181,550.383,261.146z"/>
	<path fill="#FFFFFF" d="M556.835,261.271c0,1.293-1.188,2.125-2.933,2.125c-1.748,0-2.936-0.831-2.936-2.125
		c0-0.694,0.355-1.226,0.965-1.574c-0.454-0.319-0.724-0.782-0.724-1.361c0-1.197,1.1-1.969,2.694-1.969
		c1.592,0,2.692,0.772,2.692,1.969c0,0.58-0.271,1.043-0.725,1.361C556.48,260.046,556.835,260.577,556.835,261.271z
		 M554.917,261.215c0-0.522-0.406-0.841-1.014-0.841c-0.609,0-1.017,0.319-1.017,0.841c0,0.521,0.407,0.839,1.017,0.839
		C554.51,262.054,554.917,261.735,554.917,261.215z M553.1,258.424c0,0.444,0.319,0.704,0.803,0.704c0.481,0,0.81-0.261,0.81-0.704
		c0-0.454-0.338-0.715-0.81-0.715C553.43,257.709,553.1,257.97,553.1,258.424z"/>
	<path fill="#FFFFFF" d="M557.255,258.29c0-1.168,0.735-1.873,1.728-1.873c1.005,0,1.74,0.704,1.74,1.873
		c0,1.178-0.735,1.873-1.74,1.873C557.989,260.163,557.255,259.467,557.255,258.29z M562.981,256.502h1.391l-4.613,6.758h-1.391
		L562.981,256.502z M559.553,258.29c0-0.686-0.242-0.956-0.57-0.956c-0.309,0-0.569,0.27-0.569,0.956
		c0,0.685,0.261,0.956,0.569,0.956C559.311,259.245,559.553,258.975,559.553,258.29z M562.023,261.474
		c0-1.167,0.727-1.873,1.729-1.873c1.004,0,1.737,0.706,1.737,1.873c0,1.177-0.733,1.874-1.737,1.874
		C562.75,263.348,562.023,262.653,562.023,261.474z M564.322,261.474c0-0.685-0.252-0.955-0.569-0.955
		c-0.319,0-0.57,0.271-0.57,0.955c0,0.686,0.251,0.956,0.57,0.956C564.07,262.43,564.322,262.16,564.322,261.474z"/>
	<path fill="#FFFFFF" d="M550.383,290.126c0,1.148-0.906,2.25-2.943,2.25c-0.938,0-1.933-0.232-2.625-0.667l0.692-1.438
		c0.542,0.367,1.237,0.561,1.874,0.561c0.647,0,1.07-0.251,1.07-0.705c0-0.405-0.299-0.657-1.032-0.657h-0.801v-1.207l1.206-1.303
		h-2.663v-1.477h4.885v1.197l-1.401,1.506C549.786,288.427,550.383,289.16,550.383,290.126z"/>
	<path fill="#FFFFFF" d="M556.219,290.067c0,1.207-0.907,2.308-2.944,2.308c-0.936,0-1.93-0.232-2.616-0.667l0.687-1.438
		c0.549,0.367,1.226,0.561,1.871,0.561c0.646,0,1.082-0.261,1.082-0.715c0-0.415-0.281-0.685-1.313-0.685h-1.833l0.337-3.949h4.307
		v1.477h-2.722l-0.087,0.985h0.452C555.437,287.943,556.219,288.87,556.219,290.067z"/>
	<path fill="#FFFFFF" d="M556.56,287.268c0-1.167,0.733-1.873,1.728-1.873c1.005,0,1.738,0.704,1.738,1.873
		c0,1.178-0.733,1.873-1.738,1.873C557.293,289.141,556.56,288.446,556.56,287.268z M562.285,285.481h1.39l-4.613,6.758h-1.39
		L562.285,285.481z M558.859,287.268c0-0.686-0.243-0.956-0.571-0.956c-0.309,0-0.569,0.271-0.569,0.956
		c0,0.685,0.261,0.956,0.569,0.956C558.616,288.224,558.859,287.953,558.859,287.268z M561.331,290.453
		c0-1.168,0.722-1.873,1.728-1.873c1.005,0,1.738,0.705,1.738,1.873c0,1.178-0.733,1.873-1.738,1.873
		C562.052,292.326,561.331,291.632,561.331,290.453z M563.625,290.453c0-0.685-0.25-0.955-0.569-0.955
		c-0.317,0-0.569,0.27-0.569,0.955c0,0.686,0.252,0.956,0.569,0.956C563.375,291.41,563.625,291.139,563.625,290.453z"/>
	<path fill="#FFFFFF" d="M550.383,319.105c0,1.148-0.906,2.249-2.943,2.249c-0.938,0-1.933-0.232-2.625-0.666l0.692-1.439
		c0.542,0.368,1.237,0.561,1.874,0.561c0.647,0,1.07-0.25,1.07-0.704c0-0.405-0.299-0.657-1.032-0.657h-0.801v-1.208l1.206-1.302
		h-2.663v-1.478h4.885v1.196l-1.401,1.507C549.786,317.405,550.383,318.138,550.383,319.105z"/>
	<path fill="#FFFFFF" d="M556.789,319.046c0,1.41-1.179,2.308-2.654,2.308c-1.894,0-3.129-1.141-3.129-3.331
		c0-2.355,1.458-3.697,3.592-3.697c0.763,0,1.496,0.175,1.988,0.492l-0.694,1.372c-0.387-0.272-0.813-0.349-1.244-0.349
		c-0.967,0-1.614,0.542-1.711,1.574c0.377-0.328,0.89-0.504,1.526-0.504C555.738,316.912,556.789,317.752,556.789,319.046z
		 M554.935,319.133c0-0.521-0.378-0.85-0.927-0.85c-0.551,0-0.938,0.347-0.938,0.859c0,0.501,0.366,0.85,0.944,0.85
		C554.559,319.993,554.935,319.665,554.935,319.133z"/>
	<path fill="#FFFFFF" d="M556.965,316.248c0-1.169,0.735-1.873,1.729-1.873c1.003,0,1.738,0.704,1.738,1.873
		c0,1.177-0.735,1.872-1.738,1.872C557.701,318.12,556.965,317.424,556.965,316.248z M562.691,314.46h1.391l-4.615,6.758h-1.391
		L562.691,314.46z M559.263,316.248c0-0.686-0.24-0.957-0.568-0.957c-0.309,0-0.569,0.271-0.569,0.957
		c0,0.685,0.261,0.954,0.569,0.954C559.023,317.202,559.263,316.932,559.263,316.248z M561.735,319.431
		c0-1.168,0.723-1.872,1.728-1.872c1.006,0,1.738,0.704,1.738,1.872c0,1.179-0.732,1.873-1.738,1.873
		C562.458,321.304,561.735,320.61,561.735,319.431z M564.032,319.431c0-0.685-0.252-0.954-0.569-0.954
		c-0.319,0-0.57,0.27-0.57,0.954c0,0.686,0.251,0.958,0.57,0.958S564.032,320.117,564.032,319.431z"/>
	<path fill="#FFFFFF" d="M550.383,348.083c0,1.149-0.906,2.249-2.943,2.249c-0.938,0-1.933-0.231-2.625-0.665l0.692-1.438
		c0.542,0.366,1.237,0.56,1.874,0.56c0.647,0,1.07-0.252,1.07-0.704c0-0.406-0.299-0.656-1.032-0.656h-0.801v-1.208l1.206-1.304
		h-2.663v-1.477h4.885v1.197l-1.401,1.507C549.786,346.382,550.383,347.118,550.383,348.083z"/>
	<path fill="#FFFFFF" d="M556.789,348.024c0,1.408-1.179,2.308-2.654,2.308c-1.894,0-3.129-1.138-3.129-3.33
		c0-2.355,1.458-3.698,3.592-3.698c0.763,0,1.496,0.174,1.988,0.493l-0.694,1.369c-0.387-0.27-0.813-0.346-1.244-0.346
		c-0.967,0-1.614,0.541-1.711,1.574c0.377-0.329,0.89-0.504,1.526-0.504C555.738,345.89,556.789,346.731,556.789,348.024z
		 M554.935,348.112c0-0.521-0.378-0.85-0.927-0.85c-0.551,0-0.938,0.347-0.938,0.858c0,0.504,0.366,0.851,0.944,0.851
		C554.559,348.971,554.935,348.643,554.935,348.112z"/>
	<path fill="#FFFFFF" d="M556.965,345.224c0-1.167,0.735-1.871,1.729-1.871c1.003,0,1.738,0.704,1.738,1.871
		c0,1.179-0.735,1.874-1.738,1.874C557.701,347.098,556.965,346.403,556.965,345.224z M562.691,343.439h1.391l-4.615,6.758h-1.391
		L562.691,343.439z M559.263,345.224c0-0.684-0.24-0.954-0.568-0.954c-0.309,0-0.569,0.271-0.569,0.954
		c0,0.687,0.261,0.956,0.569,0.956C559.023,346.18,559.263,345.911,559.263,345.224z M561.735,348.411
		c0-1.169,0.723-1.873,1.728-1.873c1.006,0,1.738,0.704,1.738,1.873c0,1.177-0.732,1.872-1.738,1.872
		C562.458,350.283,561.735,349.587,561.735,348.411z M564.032,348.411c0-0.686-0.252-0.957-0.569-0.957
		c-0.319,0-0.57,0.271-0.57,0.957c0,0.685,0.251,0.954,0.57,0.954C563.782,349.367,564.032,349.095,564.032,348.411z"/>
</g>
<g>
	<path fill="#FFFFFF" d="M696.263,261.745v1.515h-5.261v-1.196l2.528-2.366c0.542-0.502,0.618-0.81,0.618-1.09
		c0-0.435-0.29-0.695-0.868-0.695c-0.492,0-0.936,0.222-1.205,0.657l-1.422-0.792c0.513-0.849,1.469-1.409,2.801-1.409
		c1.554,0,2.627,0.802,2.627,2.057c0,0.657-0.185,1.255-1.149,2.144l-1.273,1.178L696.263,261.745L696.263,261.745z"/>
	<path fill="#FFFFFF" d="M702.657,261.271c0,1.293-1.186,2.125-2.933,2.125c-1.75,0-2.936-0.831-2.936-2.125
		c0-0.694,0.356-1.226,0.965-1.574c-0.454-0.319-0.724-0.782-0.724-1.361c0-1.197,1.1-1.969,2.694-1.969
		c1.592,0,2.692,0.772,2.692,1.969c0,0.58-0.271,1.043-0.725,1.361C702.301,260.046,702.657,260.577,702.657,261.271z
		 M700.738,261.215c0-0.522-0.406-0.841-1.014-0.841c-0.609,0-1.015,0.319-1.015,0.841c0,0.521,0.405,0.839,1.015,0.839
		C700.332,262.054,700.738,261.735,700.738,261.215z M698.923,258.424c0,0.444,0.317,0.704,0.801,0.704
		c0.481,0,0.81-0.261,0.81-0.704c0-0.454-0.337-0.715-0.81-0.715S698.923,257.97,698.923,258.424z"/>
	<path fill="#FFFFFF" d="M703.077,258.29c0-1.168,0.735-1.873,1.729-1.873c1.003,0,1.736,0.704,1.736,1.873
		c0,1.178-0.733,1.873-1.736,1.873C703.81,260.163,703.077,259.467,703.077,258.29z M708.8,256.502h1.391l-4.613,6.758h-1.39
		L708.8,256.502z M705.375,258.29c0-0.686-0.241-0.956-0.569-0.956c-0.311,0-0.571,0.27-0.571,0.956
		c0,0.685,0.261,0.956,0.571,0.956C705.134,259.245,705.375,258.975,705.375,258.29z M707.847,261.474
		c0-1.167,0.722-1.873,1.727-1.873c1.004,0,1.739,0.706,1.739,1.873c0,1.177-0.735,1.874-1.739,1.874
		C708.569,263.348,707.847,262.653,707.847,261.474z M710.143,261.474c0-0.685-0.251-0.955-0.569-0.955s-0.568,0.271-0.568,0.955
		c0,0.686,0.25,0.956,0.568,0.956S710.143,262.16,710.143,261.474z"/>
	<path fill="#FFFFFF" d="M696.263,290.724v1.516h-5.261v-1.197l2.528-2.366c0.542-0.502,0.618-0.811,0.618-1.091
		c0-0.435-0.29-0.695-0.868-0.695c-0.492,0-0.936,0.222-1.205,0.657l-1.422-0.791c0.513-0.849,1.469-1.409,2.801-1.409
		c1.554,0,2.627,0.802,2.627,2.056c0,0.657-0.185,1.255-1.149,2.144l-1.273,1.177L696.263,290.724L696.263,290.724z"/>
	<path fill="#FFFFFF" d="M702.436,288.677c0,2.355-1.457,3.698-3.601,3.698c-0.753,0-1.486-0.174-1.98-0.493l0.696-1.37
		c0.387,0.271,0.812,0.347,1.244,0.347c0.958,0,1.595-0.541,1.7-1.563c-0.378,0.319-0.879,0.493-1.516,0.493
		c-1.273,0-2.326-0.841-2.326-2.134c0-1.409,1.179-2.308,2.646-2.308C701.2,285.346,702.436,286.486,702.436,288.677z
		 M700.37,287.557c0-0.502-0.366-0.85-0.945-0.85c-0.543,0-0.917,0.329-0.917,0.859c0,0.522,0.376,0.849,0.927,0.849
		C699.985,288.417,700.37,288.069,700.37,287.557z"/>
	<path fill="#FFFFFF" d="M702.98,287.268c0-1.167,0.733-1.873,1.728-1.873c1.005,0,1.738,0.704,1.738,1.873
		c0,1.178-0.733,1.873-1.738,1.873C703.713,289.141,702.98,288.446,702.98,287.268z M708.705,285.481h1.39l-4.613,6.758h-1.39
		L708.705,285.481z M705.279,287.268c0-0.686-0.243-0.956-0.571-0.956c-0.309,0-0.569,0.271-0.569,0.956
		c0,0.685,0.261,0.956,0.569,0.956C705.036,288.224,705.279,287.953,705.279,287.268z M707.75,290.453
		c0-1.168,0.722-1.873,1.728-1.873c1.005,0,1.738,0.705,1.738,1.873c0,1.178-0.733,1.873-1.738,1.873
		C708.472,292.326,707.75,291.632,707.75,290.453z M710.046,290.453c0-0.685-0.251-0.955-0.568-0.955
		c-0.319,0-0.569,0.27-0.569,0.955c0,0.686,0.25,0.956,0.569,0.956C709.795,291.41,710.046,291.139,710.046,290.453z"/>
	<path fill="#FFFFFF" d="M696.263,319.703v1.516h-5.261v-1.198l2.528-2.364c0.542-0.503,0.618-0.812,0.618-1.091
		c0-0.436-0.29-0.696-0.868-0.696c-0.492,0-0.936,0.223-1.205,0.658l-1.422-0.792c0.513-0.85,1.469-1.409,2.801-1.409
		c1.554,0,2.627,0.802,2.627,2.058c0,0.656-0.185,1.255-1.149,2.143l-1.273,1.177H696.263L696.263,319.703z"/>
	<path fill="#FFFFFF" d="M702.436,317.656c0,2.355-1.457,3.698-3.601,3.698c-0.753,0-1.486-0.174-1.98-0.493l0.696-1.369
		c0.387,0.27,0.812,0.346,1.244,0.346c0.958,0,1.595-0.539,1.7-1.563c-0.378,0.318-0.879,0.492-1.516,0.492
		c-1.273,0-2.326-0.841-2.326-2.135c0-1.408,1.179-2.307,2.646-2.307C701.2,314.326,702.436,315.465,702.436,317.656z
		 M700.37,316.537c0-0.504-0.366-0.851-0.945-0.851c-0.543,0-0.917,0.328-0.917,0.859c0,0.521,0.376,0.85,0.927,0.85
		S700.37,317.048,700.37,316.537z"/>
	<path fill="#FFFFFF" d="M702.98,316.248c0-1.169,0.733-1.873,1.728-1.873c1.005,0,1.738,0.704,1.738,1.873
		c0,1.177-0.733,1.872-1.738,1.872C703.713,318.12,702.98,317.424,702.98,316.248z M708.705,314.46h1.39l-4.613,6.758h-1.39
		L708.705,314.46z M705.279,316.248c0-0.686-0.243-0.957-0.571-0.957c-0.309,0-0.569,0.271-0.569,0.957
		c0,0.685,0.261,0.954,0.569,0.954C705.036,317.202,705.279,316.932,705.279,316.248z M707.75,319.431
		c0-1.168,0.722-1.872,1.728-1.872c1.005,0,1.738,0.704,1.738,1.872c0,1.179-0.733,1.873-1.738,1.873
		C708.472,321.304,707.75,320.61,707.75,319.431z M710.046,319.431c0-0.685-0.251-0.954-0.568-0.954
		c-0.319,0-0.569,0.27-0.569,0.954c0,0.686,0.25,0.958,0.569,0.958C709.795,320.389,710.046,320.117,710.046,319.431z"/>
	<path fill="#FFFFFF" d="M696.263,348.681v1.516h-5.261V349l2.528-2.366c0.542-0.503,0.618-0.81,0.618-1.091
		c0-0.434-0.29-0.695-0.868-0.695c-0.492,0-0.936,0.223-1.205,0.657l-1.422-0.792c0.513-0.85,1.469-1.408,2.801-1.408
		c1.554,0,2.627,0.801,2.627,2.056c0,0.657-0.185,1.255-1.149,2.144l-1.273,1.177H696.263L696.263,348.681z"/>
	<path fill="#FFFFFF" d="M702.657,348.207c0,1.295-1.186,2.123-2.933,2.123c-1.75,0-2.936-0.828-2.936-2.123
		c0-0.694,0.356-1.226,0.965-1.572c-0.454-0.319-0.724-0.782-0.724-1.362c0-1.197,1.1-1.971,2.694-1.971
		c1.592,0,2.692,0.773,2.692,1.971c0,0.58-0.271,1.043-0.725,1.362C702.301,346.981,702.657,347.513,702.657,348.207z
		 M700.738,348.15c0-0.521-0.406-0.839-1.014-0.839c-0.609,0-1.015,0.317-1.015,0.839c0,0.522,0.405,0.84,1.015,0.84
		C700.332,348.99,700.738,348.672,700.738,348.15z M698.923,345.359c0,0.443,0.317,0.704,0.801,0.704c0.481,0,0.81-0.261,0.81-0.704
		c0-0.452-0.337-0.713-0.81-0.713S698.923,344.907,698.923,345.359z"/>
	<path fill="#FFFFFF" d="M703.077,345.224c0-1.167,0.735-1.871,1.729-1.871c1.003,0,1.736,0.704,1.736,1.871
		c0,1.179-0.733,1.874-1.736,1.874C703.81,347.098,703.077,346.403,703.077,345.224z M708.8,343.439h1.391l-4.613,6.758h-1.39
		L708.8,343.439z M705.375,345.224c0-0.684-0.241-0.954-0.569-0.954c-0.311,0-0.571,0.271-0.571,0.954
		c0,0.687,0.261,0.956,0.571,0.956C705.134,346.18,705.375,345.911,705.375,345.224z M707.847,348.411
		c0-1.169,0.722-1.873,1.727-1.873c1.004,0,1.739,0.704,1.739,1.873c0,1.177-0.735,1.872-1.739,1.872
		C708.569,350.283,707.847,349.587,707.847,348.411z M710.143,348.411c0-0.686-0.251-0.957-0.569-0.957s-0.568,0.271-0.568,0.957
		c0,0.685,0.25,0.954,0.568,0.954C709.892,349.367,710.143,349.095,710.143,348.411z"/>
</g>
<text transform="matrix(1 0 0 1 85.6685 263.4878)"><tspan x="0" y="0" font-family="'Montserrat-Black'" font-size="11.2075">Employee trust in the company</tspan><tspan x="0" y="28.392" font-family="'Montserrat-Black'" font-size="11.2075">Corporate reputation</tspan><tspan x="0" y="56.784" font-family="'Montserrat-Black'" font-size="11.2075">Productivity</tspan><tspan x="0" y="85.177" font-family="'Montserrat-Black'" font-size="11.2075">Employee satisfaction</tspan></text>
</svg>
