<?xml version="1.0" encoding="utf-8"?>
<!-- Generator: Adobe Illustrator 16.0.0, SVG Export Plug-In . SVG Version: 6.00 Build 0)  -->
<!DOCTYPE svg PUBLIC "-//W3C//DTD SVG 1.1//EN" "http://www.w3.org/Graphics/SVG/1.1/DTD/svg11.dtd">
<svg version="1.1" id="Layer_1" xmlns="http://www.w3.org/2000/svg" xmlns:xlink="http://www.w3.org/1999/xlink" x="0px" y="0px"
	 width="157.667px" height="139.667px" viewBox="0 0 157.667 139.667" enable-background="new 0 0 157.667 139.667"
	 xml:space="preserve">
<g>
	<g>
		<g>
			<g>
				<path fill="#778195" d="M43.633,67.197c0-21.619,17.526-39.139,39.141-39.139v-6.373c-25.093,0-45.512,20.412-45.512,45.512
					c0,25.094,20.419,45.512,45.512,45.512v-6.375C61.16,106.334,43.633,88.813,43.633,67.197z"/>
				<path fill="#FFFFFF" d="M43.633,67.197c0,21.616,17.526,39.137,39.141,39.137v-6.368c-18.063,0-32.767-14.7-32.767-32.769
					c0-18.071,14.704-32.771,32.767-32.771v-6.368C61.16,28.058,43.633,45.579,43.633,67.197z"/>
				<path fill="#778195" d="M56.38,67.197c0-14.557,11.839-26.399,26.394-26.399v-6.372c-18.063,0-32.767,14.7-32.767,32.771
					c0,18.069,14.704,32.769,32.767,32.769v-6.377C68.219,93.589,56.38,81.75,56.38,67.197z"/>
				<path fill="#FFFFFF" d="M56.38,67.197c0,14.553,11.839,26.392,26.394,26.392v-6.368c-11.04,0-20.024-8.985-20.024-20.024
					c0-11.045,8.985-20.026,20.024-20.026v-6.373C68.219,40.798,56.38,52.64,56.38,67.197z"/>
				<path fill="#778195" d="M69.12,67.197c0-7.529,6.126-13.655,13.655-13.655v-6.372c-11.04,0-20.024,8.981-20.024,20.026
					c0,11.04,8.985,20.024,20.024,20.024v-6.37C75.246,80.852,69.12,74.725,69.12,67.197z"/>
				<path fill="#FFFFFF" d="M69.12,67.197c0,7.527,6.126,13.655,13.655,13.655v-6.373c-4.017,0-7.282-3.265-7.282-7.282
					c0-4.017,3.265-7.284,7.282-7.284v-6.371C75.246,53.542,69.12,59.668,69.12,67.197z"/>
				<path fill="#778195" d="M75.493,67.197c0,4.017,3.265,7.282,7.282,7.282V59.914C78.758,59.914,75.493,63.18,75.493,67.197z"/>
				<path fill="#778195" d="M82.774,21.685v6.373c21.619,0,39.141,17.521,39.141,39.139c0,21.616-17.522,39.137-39.141,39.137v6.375
					c25.097,0,45.514-20.418,45.514-45.512C128.288,42.097,107.872,21.685,82.774,21.685z"/>
				<path fill="#FFFFFF" d="M115.545,67.197c0,18.069-14.703,32.769-32.771,32.769v6.368c21.619,0,39.141-17.521,39.141-39.137
					c0-21.619-17.522-39.139-39.141-39.139v6.368C100.842,34.426,115.545,49.126,115.545,67.197z"/>
				<path fill="#778195" d="M115.545,67.197c0-18.071-14.703-32.771-32.771-32.771v6.372c14.557,0,26.399,11.842,26.399,26.399
					c0,14.553-11.842,26.392-26.399,26.392v6.377C100.842,99.966,115.545,85.266,115.545,67.197z"/>
				<path fill="#FFFFFF" d="M102.798,67.197c0,11.04-8.979,20.024-20.023,20.024v6.368c14.557,0,26.399-11.839,26.399-26.392
					c0-14.557-11.842-26.399-26.399-26.399v6.373C93.819,47.171,102.798,56.152,102.798,67.197z"/>
				<path fill="#778195" d="M102.798,67.197c0-11.045-8.979-20.026-20.023-20.026v6.372c7.528,0,13.655,6.125,13.655,13.655
					c0,7.527-6.127,13.655-13.655,13.655v6.37C93.819,87.222,102.798,78.237,102.798,67.197z"/>
				<path fill="#FFFFFF" d="M90.06,67.197c0,4.017-3.268,7.282-7.286,7.282v6.373c7.528,0,13.655-6.127,13.655-13.655
					c0-7.529-6.127-13.655-13.655-13.655v6.371C86.792,59.914,90.06,63.18,90.06,67.197z"/>
				<path fill="#778195" d="M90.06,67.197c0-4.017-3.268-7.284-7.286-7.284v14.565C86.792,74.479,90.06,71.214,90.06,67.197z"/>
			</g>
			<g>
				<path fill="#F9A12C" d="M82.75,67.767c-4.008-5.983-11.144-12.762-11.144-12.762l-1.086,1.146l-1.084,1.141
					C69.436,57.292,76.568,64.068,82.75,67.767z"/>
				<path fill="#F9A12C" d="M71.117,56.715c0,0,1.703-1.5,0.958-2.203l-12.4-11.781l-3.114,3.277l12.404,11.78
					C69.708,58.492,71.117,56.715,71.117,56.715z"/>
				<polygon fill="#F9A12C" points="45.86,35.841 48.973,32.568 64.261,47.085 61.149,50.364 				"/>
				<path fill="#1C4670" d="M49.319,36.003c0,0,5.009-7.611,0.479-11.875C46.451,20.979,38.149,12.7,30.484,18.12
					c-5.016,7.928,3.676,15.795,6.994,18.978C41.97,41.403,49.319,36.003,49.319,36.003z"/>
				<g>
					<path fill="#FFFFFF" d="M41.351,17.711c-0.627-0.305-1.271-0.573-1.931-0.788l0.458,10.117l-10.129,0.065
						c0.249,0.646,0.551,1.278,0.888,1.889l11.221-0.074L41.351,17.711z"/>
					<path fill="#FFFFFF" d="M45.89,32.753l-0.566-12.541c-0.752-0.578-1.559-1.139-2.407-1.651l0.538,11.875l-11.887,0.075
						c0.551,0.822,1.155,1.594,1.766,2.32L45.89,32.753z"/>
				</g>
			</g>
			<g>
				<path fill="#F9A12C" d="M81.904,69.754c-5.002-2.697-12.476-4.796-12.476-4.796l-0.339,1.199l-0.333,1.197
					C68.755,67.354,76.231,69.453,81.904,69.754z"/>
				<path fill="#F9A12C" d="M69.715,66.332c0,0,0.636-1.677-0.142-1.89L56.58,60.79l-0.966,3.432l12.996,3.651
					C69.386,68.089,69.715,66.332,69.715,66.332z"/>
				
					<rect x="51.113" y="53.286" transform="matrix(-0.2704 0.9628 -0.9628 -0.2704 126.5074 27.3364)" fill="#F9A12C" width="3.565" height="16.637"/>
				<path fill="#1C4670" d="M46.877,59.914c0,0,0.692-7.159-4.044-8.462c-3.491-0.966-12.333-3.684-15.687,2.922
					c-0.577,7.383,8.386,9.666,11.874,10.663C43.74,66.389,46.877,59.914,46.877,59.914z"/>
				<g>
					<path fill="#FFFFFF" d="M34.582,50.088c-0.555,0.015-1.102,0.066-1.638,0.158l4.041,6.892l-7.041,3.778
						c0.412,0.355,0.856,0.687,1.314,0.987l7.806-4.18L34.582,50.088z"/>
					<path fill="#FFFFFF" d="M43.287,58.91l-5.016-8.544c-0.738-0.126-1.506-0.218-2.285-0.264l4.75,8.088l-8.263,4.431
						c0.683,0.37,1.392,0.686,2.083,0.967L43.287,58.91z"/>
				</g>
			</g>
			<g>
				<path fill="#F9A12C" d="M83.46,68.44c3.598-5.364,9.994-11.444,9.994-11.444l0.975,1.028l0.973,1.024
					C95.402,59.049,89.002,65.126,83.46,68.44z"/>
				<path fill="#F9A12C" d="M93.893,58.531c0,0-1.524-1.344-0.858-1.973l11.12-10.568l2.793,2.938L95.823,59.491
					C95.156,60.125,93.893,58.531,93.893,58.531z"/>
				
					<rect x="106.266" y="35.402" transform="matrix(0.6886 0.7251 -0.7251 0.6886 66.2493 -64.5578)" fill="#F9A12C" width="4.048" height="18.909"/>
				<path fill="#1C4670" d="M113.442,39.959c0,0-4.491-6.823-0.432-10.647c3.003-2.827,10.448-10.25,17.32-5.392
					c4.5,7.11-3.296,14.166-6.272,17.019C120.03,44.801,113.442,39.959,113.442,39.959z"/>
				<g>
					<path fill="#FFFFFF" d="M120.584,23.556c0.566-0.274,1.143-0.515,1.732-0.708l-0.409,9.072l9.084,0.06
						c-0.223,0.578-0.493,1.146-0.798,1.693l-10.061-0.067L120.584,23.556z"/>
					<path fill="#FFFFFF" d="M116.514,37.043l0.508-11.246c0.674-0.519,1.398-1.021,2.16-1.48L118.7,34.967l10.656,0.066
						c-0.493,0.738-1.035,1.431-1.58,2.08L116.514,37.043z"/>
				</g>
			</g>
		</g>
		<g>
			<polygon fill="#F9A12C" points="91.309,86.959 83.082,76.695 74.877,86.966 78.984,86.966 78.992,117.926 87.218,117.926 
				87.198,86.958 			"/>
			<polygon fill="#FCD650" points="101.543,94.6 95.361,86.884 89.177,94.61 92.271,94.61 92.282,117.896 98.462,117.896 
				98.447,94.604 			"/>
			<polygon fill="#FCD650" points="64.647,94.669 70.82,86.945 77.006,94.663 73.914,94.665 73.926,117.958 67.752,117.96 
				67.739,94.669 			"/>
		</g>
	</g>
	<g>
		<path fill-rule="evenodd" clip-rule="evenodd" fill="#582E12" d="M122.167,86.125c0.26-3.391,1.409-6.946,0.583-10.094
			c-1.927-4.496-11.027-6.616-15.401-5.82c-2.734,4.601-1.605,10.276-1.104,15.519L122.167,86.125z"/>
		<path fill-rule="evenodd" clip-rule="evenodd" fill="#492711" d="M114.158,85.925V70.633c3.733,0.875,7.441,2.713,8.592,5.397
			c0.825,3.148-0.324,6.703-0.584,10.094L114.158,85.925z"/>
		<path fill-rule="evenodd" clip-rule="evenodd" fill="#B1D7DD" d="M114.019,117.937c2.416,0.035,4.792-0.069,7.139-0.316V96.086
			l-0.801-0.351c-1.765-0.772-3.948-1.66-6.337-1.985V117.937z"/>
		<path fill-rule="evenodd" clip-rule="evenodd" fill="#B1D7DD" d="M114.019,117.937c-2.414,0.035-4.791-0.069-7.138-0.316V96.086
			l0.802-0.351c1.765-0.772,3.949-1.66,6.336-1.985V117.937z"/>
		<path fill-rule="evenodd" clip-rule="evenodd" fill="#DFAB7E" d="M108.922,89.514h10.195v6.15c-3.398,2.7-6.797,2.808-10.195,0
			V89.514z"/>
		<path fill-rule="evenodd" clip-rule="evenodd" fill="#F0C094" d="M109.822,76.889c-1.444-0.282-2.826,1.195-3.086,2.643
			c-0.237,1.328-0.404,2.69-0.466,4.055c-0.039-0.006,0.173-0.01-0.118-0.01s-1.239,0.216-1.195,1.477
			c0.034,0.946,0.857,3.696,1.939,3.245c1.565,4.196,3.674,6.563,7.123,7.403c0.058-0.11,0.086-0.026,0.14-0.061V77.33
			C112.766,77.335,111.375,77.192,109.822,76.889z"/>
		<path fill-rule="evenodd" clip-rule="evenodd" fill="#EAB586" d="M118.356,76.889c1.444-0.282,2.827,1.195,3.086,2.643
			c0.237,1.328,0.405,2.69,0.466,4.055c0.039-0.006-0.175-0.01,0.118-0.01c0.29,0,1.239,0.216,1.194,1.477
			c-0.033,0.946-0.855,3.696-1.937,3.245c-1.587,4.252-3.73,6.595-7.264,7.403V77.33C115.412,77.335,116.803,77.192,118.356,76.889z
			"/>
		<polygon fill-rule="evenodd" clip-rule="evenodd" fill="#F9A12C" points="114.019,97.729 115.763,97.729 115.024,100.496 
			114.02,100.496 114.018,100.496 113.014,100.496 112.276,97.729 		"/>
		<polygon fill-rule="evenodd" clip-rule="evenodd" fill="#F9A12C" points="115.024,100.412 115.737,110.877 114.019,114.016 
			112.301,110.877 113.014,100.412 		"/>
		<path fill-rule="evenodd" clip-rule="evenodd" fill="#F0F8FA" d="M114.019,97.729l-2.99,2.908l-3.347-4.901l1.24-0.676
			C110.175,96.381,111.89,97.222,114.019,97.729z"/>
		<path fill-rule="evenodd" clip-rule="evenodd" fill="#1C4670" d="M114.019,113.733l-7.34-17.558
			c-6.634,2.862-10.894,5.068-11.644,13.471c3.016,5.376,10.211,9.779,18.984,9.771V113.733z"/>
		<path fill-rule="evenodd" clip-rule="evenodd" fill="#0B436A" d="M101.034,115.766c0.264,0.187,0.566,0.338,0.846,0.513
			l-0.021-3.477L101.034,115.766z"/>
		<polygon fill-rule="evenodd" clip-rule="evenodd" fill="#1C4670" points="114.019,113.733 114.019,118.171 107.11,105.796 
			109.166,103.303 106.036,102.26 104.623,97.074 108.041,95.58 		"/>
		<path fill-rule="evenodd" clip-rule="evenodd" fill="#F0F8FA" d="M114.019,97.729l2.992,2.908l3.346-4.901l-1.239-0.676
			C117.864,96.381,116.147,97.222,114.019,97.729z"/>
		<path fill-rule="evenodd" clip-rule="evenodd" fill="#1C4670" d="M114.019,113.733l7.341-17.558
			c6.634,2.862,10.895,5.068,11.644,13.471c-3.015,5.376-10.21,9.779-18.985,9.771V113.733z"/>
		<path fill-rule="evenodd" clip-rule="evenodd" fill="#0B436A" d="M127.004,115.766c-0.265,0.187-0.567,0.338-0.846,0.513
			l0.02-3.477L127.004,115.766z"/>
		<polygon fill-rule="evenodd" clip-rule="evenodd" fill="#1C4670" points="114.019,113.733 114.019,118.171 120.929,105.796 
			118.874,103.303 122.003,102.26 123.415,97.074 120.12,95.607 		"/>
	</g>
</g>
</svg>
