<?xml version="1.0" encoding="utf-8"?>
<!-- Generator: Adobe Illustrator 16.0.0, SVG Export Plug-In . SVG Version: 6.00 Build 0)  -->
<!DOCTYPE svg PUBLIC "-//W3C//DTD SVG 1.1//EN" "http://www.w3.org/Graphics/SVG/1.1/DTD/svg11.dtd">
<svg version="1.1" id="Layer_1" xmlns="http://www.w3.org/2000/svg" xmlns:xlink="http://www.w3.org/1999/xlink" x="0px" y="0px"
	 width="157.667px" height="139.667px" viewBox="0 0 157.667 139.667" enable-background="new 0 0 157.667 139.667"
	 xml:space="preserve">
<g>
	<g>
		<path fill="#E5AE7E" d="M52.64,69.459c6.481,2.945,15.094,4.738,24.543,4.738c9.454,0,18.066-1.793,24.544-4.738
			c-6.478-2.941-15.09-4.736-24.544-4.736C67.733,64.724,59.121,66.518,52.64,69.459z"/>
	</g>
	<g>
		<g>
			<path fill="#FCD650" d="M92.345,49.806c1.657-2.738,2.612-5.948,2.612-9.384c0-10.024-8.128-18.149-18.153-18.149
				c-10.022,0-18.148,8.125-18.148,18.149c0,3.436,0.95,6.646,2.612,9.384c4.903,8.766,5.899,10.864,5.958,14.869
				c0.092,5.998,0,10.788,0,10.788h9.578h9.578c0,0-0.088-4.79,0-10.788C86.447,60.67,87.439,58.572,92.345,49.806z"/>
		</g>
		<g>
			<path fill="#192652" d="M76.804,78.203h-6.807c1.01,5.484,6.807,5.484,6.807,5.484s5.797,0,6.809-5.484H76.804z"/>
		</g>
		<g>
			<path fill="#778195" d="M89.158,69.288c0,1.74-1.411,3.149-3.153,3.149h-18.4c-1.741,0-3.152-1.409-3.152-3.149l0,0
				c0-1.742,1.411-3.15,3.152-3.15h18.4C87.747,66.138,89.158,67.546,89.158,69.288L89.158,69.288z"/>
		</g>
		<g>
			<path fill="#ADBECD" d="M88.171,68.67c0,1.402-1.301,2.534-2.902,2.534H68.341c-1.604,0-2.898-1.132-2.898-2.534l0,0
				c0-1.401,1.295-2.532,2.898-2.532h16.928C86.87,66.138,88.171,67.269,88.171,68.67L88.171,68.67z"/>
		</g>
		<g>
			<path fill="#778195" d="M89.158,75.462c0,1.741-1.411,3.152-3.153,3.152h-18.4c-1.741,0-3.152-1.411-3.152-3.152l0,0
				c0-1.742,1.411-3.152,3.152-3.152h18.4C87.747,72.31,89.158,73.721,89.158,75.462L89.158,75.462z"/>
		</g>
		<g>
			<path fill="#F9A12C" d="M77.187,9.362c0.682,0,1.242,0.556,1.242,1.244v7.246c0,0.683-0.561,1.236-1.242,1.236l0,0
				c-0.688,0-1.242-0.553-1.242-1.236v-7.246C75.944,9.918,76.499,9.362,77.187,9.362L77.187,9.362z"/>
		</g>
		<g>
			<path fill="#F9A12C" d="M60.712,13.642c0.593-0.345,1.351-0.14,1.693,0.452l3.622,6.276c0.344,0.592,0.143,1.349-0.452,1.69l0,0
				c-0.592,0.344-1.353,0.142-1.693-0.452l-3.623-6.274C59.917,14.742,60.123,13.983,60.712,13.642L60.712,13.642z"/>
		</g>
		<g>
			<path fill="#F9A12C" d="M48.583,25.577c0.345-0.591,1.104-0.793,1.696-0.452l6.274,3.623c0.593,0.342,0.796,1.101,0.452,1.696
				l0,0c-0.34,0.59-1.099,0.794-1.691,0.453l-6.275-3.624C48.447,26.929,48.242,26.174,48.583,25.577L48.583,25.577z"/>
		</g>
		<g>
			<path fill="#F9A12C" d="M44.047,41.982c0-0.685,0.558-1.241,1.244-1.241h7.245c0.683,0,1.24,0.556,1.24,1.241l0,0
				c0,0.687-0.558,1.242-1.24,1.242h-7.245C44.605,43.224,44.047,42.668,44.047,41.982L44.047,41.982z"/>
		</g>
		<g>
			<path fill="#F9A12C" d="M48.325,58.455c-0.344-0.592-0.138-1.35,0.454-1.695l6.272-3.623c0.597-0.344,1.355-0.142,1.696,0.455
				l0,0c0.346,0.593,0.14,1.353-0.452,1.693l-6.274,3.623C49.428,59.25,48.669,59.048,48.325,58.455L48.325,58.455z"/>
		</g>
		<g>
			<path fill="#F9A12C" d="M93.656,13.642c-0.591-0.345-1.349-0.14-1.694,0.452l-3.621,6.276c-0.342,0.592-0.141,1.349,0.454,1.69
				l0,0c0.597,0.344,1.354,0.142,1.694-0.452l3.625-6.274C94.454,14.742,94.253,13.983,93.656,13.642L93.656,13.642z"/>
		</g>
		<g>
			<path fill="#F9A12C" d="M105.787,25.577c-0.341-0.591-1.103-0.793-1.696-0.452l-6.273,3.623
				c-0.592,0.342-0.797,1.101-0.457,1.696l0,0c0.345,0.59,1.109,0.794,1.699,0.453l6.273-3.624
				C105.929,26.929,106.131,26.174,105.787,25.577L105.787,25.577z"/>
		</g>
		<g>
			<path fill="#F9A12C" d="M110.317,41.982c0-0.685-0.555-1.241-1.24-1.241h-7.242c-0.684,0-1.238,0.556-1.238,1.241l0,0
				c0,0.687,0.555,1.242,1.238,1.242h7.242C109.763,43.224,110.317,42.668,110.317,41.982L110.317,41.982z"/>
		</g>
		<g>
			<path fill="#F9A12C" d="M106.045,58.455c0.344-0.592,0.138-1.35-0.456-1.695l-6.27-3.623c-0.596-0.344-1.354-0.142-1.698,0.455
				l0,0c-0.341,0.593-0.135,1.353,0.457,1.693l6.274,3.623C104.942,59.25,105.708,59.048,106.045,58.455L106.045,58.455z"/>
		</g>
		<g>
			<path fill="#ADBECD" d="M88.171,74.849c0,1.399-1.301,2.533-2.902,2.533H68.341c-1.604,0-2.898-1.134-2.898-2.533l0,0
				c0-1.404,1.295-2.539,2.898-2.539h16.928C86.87,72.31,88.171,73.445,88.171,74.849L88.171,74.849z"/>
		</g>
	</g>
	<g>
		<g>
			<polygon fill="#1C4670" points="55.114,73.325 52.346,72.18 60.342,52.865 65.86,61.686 75.468,41.584 83.725,51.638 
				92.863,30.579 97.204,38.695 109.067,16.604 111.707,18.022 97.198,45.041 93.144,37.46 84.522,57.331 76.141,47.128 
				66.212,67.899 60.887,59.385 			"/>
		</g>
		<g>
			<g>
				<polygon fill="#1C4670" points="114.796,21.666 114.429,9.717 104.265,16.009 				"/>
			</g>
		</g>
	</g>
	<g>
		<path fill="#F2C196" d="M101.771,89.304h-0.486c0.206-1.673,0.418-3.318,0.617-4.876c0.429-3.287,1.076-9.153-0.213-14.948
			c-6.48,2.931-15.072,4.718-24.506,4.718c-9.43,0-18.024-1.787-24.502-4.718c-1.289,5.795-0.645,11.661-0.215,14.948
			c0.203,1.558,0.412,3.203,0.618,4.876h-0.486c-4.281-3.168-4.641,5.103-2.857,7.929c1.484,2.341,1.515,2.598,2.405,5.174
			c0.663,1.902,1.753,2.152,2.667,1.946c0.115,1.127,0.214,2.109,0.286,2.89c0.392,4.347,10.842,13.055,13.213,15.782
			c2.214,2.554,5.92,1.56,7.104,1.506c1.202-0.057,1.771-0.086,1.771-0.086s0.568,0.029,1.766,0.086
			c1.188,0.054,4.89,1.047,7.109-1.506c2.371-2.728,12.816-11.435,13.211-15.782c0.074-0.78,0.173-1.763,0.283-2.89
			c0.92,0.206,2.011-0.044,2.669-1.946c0.892-2.577,0.923-2.833,2.405-5.174C106.415,94.407,106.048,86.135,101.771,89.304z"/>
	</g>
</g>
</svg>
