<?xml version="1.0" encoding="utf-8"?>
<!-- Generator: Adobe Illustrator 16.0.0, SVG Export Plug-In . SVG Version: 6.00 Build 0)  -->
<!DOCTYPE svg PUBLIC "-//W3C//DTD SVG 1.1//EN" "http://www.w3.org/Graphics/SVG/1.1/DTD/svg11.dtd">
<svg version="1.1" id="Layer_1" xmlns="http://www.w3.org/2000/svg" xmlns:xlink="http://www.w3.org/1999/xlink" x="0px" y="0px"
	 width="157.667px" height="139.667px" viewBox="0 0 157.667 139.667" enable-background="new 0 0 157.667 139.667"
	 xml:space="preserve">
<g>
	<g>
		<g>
			<ellipse fill="#FFFFFF" cx="113.197" cy="101.231" rx="36.275" ry="2.44"/>
			<ellipse fill="#FEFEFE" cx="113.197" cy="101.206" rx="35.853" ry="2.412"/>
			<ellipse fill="#FDFDFD" cx="113.197" cy="101.181" rx="35.431" ry="2.383"/>
			<ellipse fill="#FCFDFD" cx="113.198" cy="101.156" rx="35.01" ry="2.355"/>
			<ellipse fill="#FBFCFC" cx="113.198" cy="101.131" rx="34.589" ry="2.326"/>
			<ellipse fill="#FAFBFB" cx="113.197" cy="101.105" rx="34.167" ry="2.298"/>
			<ellipse fill="#F9FAFA" cx="113.198" cy="101.08" rx="33.747" ry="2.271"/>
			<ellipse fill="#F8F9F9" cx="113.198" cy="101.055" rx="33.325" ry="2.242"/>
			<ellipse fill="#F7F9F9" cx="113.198" cy="101.03" rx="32.903" ry="2.213"/>
			<ellipse fill="#F6F8F8" cx="113.198" cy="101.005" rx="32.481" ry="2.185"/>
			<ellipse fill="#F5F7F7" cx="113.198" cy="100.979" rx="32.061" ry="2.157"/>
			<ellipse fill="#F4F6F6" cx="113.198" cy="100.955" rx="31.639" ry="2.128"/>
			<ellipse fill="#F3F5F5" cx="113.198" cy="100.93" rx="31.218" ry="2.1"/>
			<ellipse fill="#F2F5F5" cx="113.198" cy="100.905" rx="30.796" ry="2.071"/>
			<ellipse fill="#F1F4F4" cx="113.198" cy="100.879" rx="30.375" ry="2.043"/>
			<ellipse fill="#F0F3F3" cx="113.198" cy="100.854" rx="29.953" ry="2.015"/>
			<ellipse fill="#EFF2F2" cx="113.198" cy="100.83" rx="29.531" ry="1.986"/>
			<ellipse fill="#EEF1F1" cx="113.198" cy="100.805" rx="29.11" ry="1.958"/>
			<ellipse fill="#EDF1F1" cx="113.198" cy="100.779" rx="28.688" ry="1.93"/>
			<ellipse fill="#ECF0F0" cx="113.197" cy="100.754" rx="28.267" ry="1.901"/>
			<ellipse fill="#ECEFEF" cx="113.198" cy="100.729" rx="27.846" ry="1.873"/>
			<ellipse fill="#EBEEEE" cx="113.198" cy="100.704" rx="27.425" ry="1.844"/>
			<ellipse fill="#EAEEEE" cx="113.198" cy="100.679" rx="27.003" ry="1.816"/>
			<ellipse fill="#E9EDED" cx="113.198" cy="100.654" rx="26.581" ry="1.788"/>
			<ellipse fill="#E8ECEC" cx="113.198" cy="100.629" rx="26.16" ry="1.759"/>
			<ellipse fill="#E7EBEB" cx="113.198" cy="100.604" rx="25.739" ry="1.731"/>
			<ellipse fill="#E6EAEA" cx="113.198" cy="100.579" rx="25.317" ry="1.702"/>
			<ellipse fill="#E5EAEA" cx="113.198" cy="100.554" rx="24.895" ry="1.674"/>
			<ellipse fill="#E4E9E9" cx="113.198" cy="100.528" rx="24.474" ry="1.646"/>
			<ellipse fill="#E3E8E8" cx="113.198" cy="100.503" rx="24.053" ry="1.617"/>
			<ellipse fill="#E2E7E7" cx="113.198" cy="100.478" rx="23.632" ry="1.589"/>
			<ellipse fill="#E1E6E6" cx="113.198" cy="100.453" rx="23.21" ry="1.56"/>
			<ellipse fill="#E0E6E6" cx="113.198" cy="100.428" rx="22.789" ry="1.532"/>
			<ellipse fill="#DFE5E5" cx="113.198" cy="100.403" rx="22.367" ry="1.503"/>
			<ellipse fill="#DEE4E4" cx="113.198" cy="100.378" rx="21.946" ry="1.475"/>
			<ellipse fill="#DDE3E3" cx="113.198" cy="100.353" rx="21.524" ry="1.447"/>
			<ellipse fill="#DCE2E2" cx="113.198" cy="100.328" rx="21.103" ry="1.418"/>
			<ellipse fill="#DBE2E2" cx="113.198" cy="100.303" rx="20.681" ry="1.39"/>
			<ellipse fill="#DAE1E1" cx="113.198" cy="100.277" rx="20.26" ry="1.361"/>
			<ellipse fill="#D9E0E0" cx="113.198" cy="100.252" rx="19.838" ry="1.333"/>
		</g>
		<g>
			<path fill="#3E3E3E" d="M122.52,43.604c5.047,2.956,6.61,5.774,6.26,34.01l-15.14-0.005l-0.209-35.997
				C113.431,41.612,118.597,41.306,122.52,43.604z"/>
			<path fill="#3E3E3E" d="M104.76,43.604c-5.048,2.956-6.609,5.774-6.26,34.01l15.14-0.005l0.208-35.997
				C113.848,41.612,108.685,41.306,104.76,43.604z"/>
			<path fill="#FFDAA7" d="M113.434,71.064l-6.665-3.344V82.83c0,0,2.58,3.094,6.665,3.094c4.829,0,6.663-2.85,6.663-2.85V69.949
				L113.434,71.064z"/>
			<path fill="#EFBC6C" d="M120.097,73.602c0,0-3.181,2.938-13.328,8.454l0.021-9.88L120.097,73.602z"/>
			<g>
				<path fill="#FFDAA7" d="M102.362,58.806c0,0,1.669,12.952,2.021,13.58c0.347,0.626,6.883,4.196,9.052,4.04V43.905
					C110.895,43.909,100.771,44.504,102.362,58.806z"/>
				<path fill="#FFDAA7" d="M113.592,43.905c-0.048,0-0.104,0-0.158,0v32.521c2.167,0.156,8.708-3.414,9.053-4.04
					c0.349-0.628,2.02-13.58,2.02-13.58C125.731,44.477,116.207,43.925,113.592,43.905z"/>
			</g>
			<path fill="#FFDAA7" d="M103.391,66.444c0,0-1.506,0.714-2.58-2.742c-1.349-4.347-1.198-5.739-0.11-5.731
				c1.676,0.012,2.142,1.041,2.142,1.041L103.391,66.444z"/>
			<path fill="#3E3E3E" d="M113.799,41.612c-0.048-0.002-0.108-0.002-0.165-0.002c-0.06,0-0.131,0.002-0.203,0.002
				c-2.883,0.032-13.578,2.205-11.108,16.824c0,0,6.57-0.823,11.108-3.409c5.163-2.941,8.595-7.558,8.595-7.558
				C122.693,43.079,116.473,41.626,113.799,41.612z"/>
			<path fill="#F2F2F2" d="M115.433,101.231h-4.12c0,0-7.049-12.808-7.015-13.928c0.041-1.119,9.129-3.915,9.129-3.915
				s7.316,0.042,8.344,0.423C124.271,84.741,119.163,97.101,115.433,101.231z"/>
			<path fill="#3E3E3E" d="M121.737,46.201c0,0-1.197,6.462,2.719,12.235c3.918,5.772,1.256-7.694,1.256-7.694
				S122.873,46.201,121.737,46.201z"/>
			<path fill="#FFDAA7" d="M123.481,66.365c0,0,1.637,0.401,2.473-3.119c0.967-4.063,0.752-4.935-0.318-5.101
				c-0.938-0.141-1.951,0.866-1.951,0.866L123.481,66.365z"/>
			<rect x="112.06" y="83.388" fill="#F6F7F7" width="2.749" height="17.843"/>
			<g>
				<path fill="#E4E4E4" d="M120.113,78.916c0,0-0.959,3.346-6.686,4.473c0,0,2.043,5.564,7.453,3.425
					C126.507,84.588,123.745,80.292,120.113,78.916z"/>
			</g>
			<g>
				<path fill="#D6D6D6" d="M106.756,78.794c0,0,0.943,3.467,6.671,4.594c0,0-2.046,5.564-7.456,3.425
					C100.347,84.588,103.126,80.171,106.756,78.794z"/>
			</g>
			<g>
				<path fill="#BFBEBE" d="M100.558,91.374l1.479-2.132l0.741-1.064l-2.688-4.425l-1.004-1.651l-0.019-0.028
					c0,0-10.491,4.796-10.506,4.814c-0.752,0.81-2.103,8.056-3.012,14.344h22.493L100.558,91.374z"/>
				<path fill="#D0D0D1" d="M126.142,91.374l-7.489,9.857h22.499c-0.908-6.288-2.264-13.534-3.012-14.344
					c-0.016-0.019-10.51-4.814-10.51-4.814l-3.709,6.104L126.142,91.374z"/>
				<polygon fill="#9D9D9D" points="102.778,88.177 102.037,89.242 100.561,91.374 108.042,101.231 111.313,101.231 110.14,97.202 
					106.179,83.614 104.986,79.515 99.067,82.073 100.089,83.752 				"/>
				<polygon fill="#C1C1C1" points="126.142,91.374 123.921,88.177 127.63,82.073 121.868,79.653 120.688,83.61 116.92,96.245 
					115.433,101.231 118.653,101.231 				"/>
			</g>
			<g>
				<g>
					<path fill="#F6F7F7" d="M112.322,88.758c0.007,0.566,0.461,1.018,1.021,1.021v-2.059
						C112.774,87.728,112.319,88.19,112.322,88.758z"/>
					<path fill="#FFFFFF" d="M113.348,87.721c-0.003,0-0.006,0-0.006,0v2.059c0.008,0,0.015,0.003,0.018,0.003
						c0.571-0.004,1.03-0.467,1.025-1.038C114.382,88.173,113.919,87.718,113.348,87.721z"/>
				</g>
				<g>
					<path fill="#C8C8C8" d="M113.195,88.755c0.002,0.123-0.1,0.229-0.225,0.229c-0.128,0-0.227-0.101-0.227-0.226
						c-0.003-0.128,0.098-0.232,0.223-0.232C113.092,88.526,113.197,88.628,113.195,88.755z"/>
					<path fill="#D3D3D3" d="M114.016,88.748c0.002,0.125-0.1,0.229-0.225,0.23c-0.128,0.002-0.232-0.1-0.232-0.223
						c0-0.132,0.104-0.232,0.229-0.232C113.914,88.523,114.016,88.623,114.016,88.748z"/>
				</g>
			</g>
			<g>
				<g>
					<path fill="#F6F7F7" d="M112.336,97.377c0.005,0.563,0.458,1.018,1.021,1.026V96.34
						C112.789,96.346,112.333,96.811,112.336,97.377z"/>
					<path fill="#FFFFFF" d="M113.36,96.338c-0.003,0-0.003,0.002-0.003,0.002v2.063c0.003,0,0.012,0,0.018,0
						c0.572-0.004,1.028-0.469,1.024-1.038C114.396,96.794,113.931,96.334,113.36,96.338z"/>
				</g>
				<g>
					<circle fill="#C8C8C8" cx="112.981" cy="97.375" r="0.228"/>
					<circle fill="#D3D3D3" cx="113.802" cy="97.369" r="0.228"/>
				</g>
			</g>
		</g>
	</g>
	<g>
		<g>
			<path fill="#FFFFFF" d="M78.025,99.723c0,1.895-15.818,3.436-35.328,3.436c-19.514,0-35.329-1.541-35.329-3.436
				c0-1.897,15.815-3.437,35.329-3.437C62.207,96.287,78.025,97.826,78.025,99.723z"/>
			<path fill="#FEFEFE" d="M77.615,99.688c0,1.873-15.635,3.396-34.918,3.396c-19.287,0-34.918-1.523-34.918-3.396
				c0-1.875,15.631-3.396,34.918-3.396C61.98,96.291,77.615,97.813,77.615,99.688z"/>
			<ellipse fill="#FDFDFD" cx="42.697" cy="99.652" rx="34.508" ry="3.355"/>
			<path fill="#FCFDFD" d="M76.793,99.617c0,1.828-15.267,3.315-34.097,3.315c-18.834,0-34.098-1.487-34.098-3.315
				c0-1.832,15.264-3.317,34.098-3.317C61.527,96.3,76.793,97.786,76.793,99.617z"/>
			<ellipse fill="#FBFCFC" cx="42.696" cy="99.582" rx="33.687" ry="3.275"/>
			<path fill="#FAFBFB" d="M75.972,99.546c0,1.784-14.898,3.236-33.275,3.236c-18.38,0-33.277-1.452-33.277-3.236
				c0-1.787,14.897-3.237,33.277-3.237C61.074,96.309,75.972,97.759,75.972,99.546z"/>
			<ellipse fill="#F9FAFA" cx="42.696" cy="99.511" rx="32.866" ry="3.195"/>
			<ellipse fill="#F8F9F9" cx="42.696" cy="99.475" rx="32.456" ry="3.156"/>
			<ellipse fill="#F7F9F9" cx="42.696" cy="99.439" rx="32.045" ry="3.116"/>
			<ellipse fill="#F6F8F8" cx="42.696" cy="99.404" rx="31.635" ry="3.076"/>
			<ellipse fill="#F5F7F7" cx="42.697" cy="99.369" rx="31.225" ry="3.036"/>
			<ellipse fill="#F4F6F6" cx="42.696" cy="99.333" rx="30.815" ry="2.997"/>
			<ellipse fill="#F3F5F5" cx="42.696" cy="99.298" rx="30.404" ry="2.956"/>
			<ellipse fill="#F2F5F5" cx="42.696" cy="99.263" rx="29.994" ry="2.916"/>
			<ellipse fill="#F1F4F4" cx="42.696" cy="99.227" rx="29.583" ry="2.876"/>
			<ellipse fill="#F0F3F3" cx="42.696" cy="99.191" rx="29.173" ry="2.836"/>
			<ellipse fill="#EFF2F2" cx="42.696" cy="99.156" rx="28.762" ry="2.796"/>
			<ellipse fill="#EEF1F1" cx="42.696" cy="99.121" rx="28.352" ry="2.756"/>
			<ellipse fill="#EDF1F1" cx="42.696" cy="99.085" rx="27.942" ry="2.716"/>
			<ellipse fill="#ECF0F0" cx="42.697" cy="99.05" rx="27.531" ry="2.677"/>
			<ellipse fill="#ECEFEF" cx="42.696" cy="99.015" rx="27.121" ry="2.637"/>
			<ellipse fill="#EBEEEE" cx="42.696" cy="98.979" rx="26.71" ry="2.596"/>
			<ellipse fill="#EAEEEE" cx="42.696" cy="98.943" rx="26.3" ry="2.557"/>
			<ellipse fill="#E9EDED" cx="42.696" cy="98.908" rx="25.89" ry="2.517"/>
			<ellipse fill="#E8ECEC" cx="42.696" cy="98.873" rx="25.479" ry="2.477"/>
			<ellipse fill="#E7EBEB" cx="42.696" cy="98.837" rx="25.069" ry="2.437"/>
			<ellipse fill="#E6EAEA" cx="42.696" cy="98.802" rx="24.659" ry="2.396"/>
			<ellipse fill="#E5EAEA" cx="42.696" cy="98.767" rx="24.249" ry="2.356"/>
			<ellipse fill="#E4E9E9" cx="42.696" cy="98.731" rx="23.838" ry="2.317"/>
			<ellipse fill="#E3E8E8" cx="42.696" cy="98.696" rx="23.427" ry="2.276"/>
			<ellipse fill="#E2E7E7" cx="42.696" cy="98.66" rx="23.017" ry="2.236"/>
			<ellipse fill="#E1E6E6" cx="42.696" cy="98.625" rx="22.607" ry="2.196"/>
			<ellipse fill="#E0E6E6" cx="42.696" cy="98.589" rx="22.197" ry="2.157"/>
			<ellipse fill="#DFE5E5" cx="42.696" cy="98.554" rx="21.786" ry="2.117"/>
			<ellipse fill="#DEE4E4" cx="42.696" cy="98.519" rx="21.375" ry="2.077"/>
			<ellipse fill="#DDE3E3" cx="42.696" cy="98.483" rx="20.965" ry="2.037"/>
			<ellipse fill="#DCE2E2" cx="42.696" cy="98.447" rx="20.555" ry="1.997"/>
			<ellipse fill="#DBE2E2" cx="42.697" cy="98.412" rx="20.145" ry="1.957"/>
			<ellipse fill="#DAE1E1" cx="42.697" cy="98.376" rx="19.734" ry="1.917"/>
			<ellipse fill="#D9E0E0" cx="42.696" cy="98.341" rx="19.324" ry="1.877"/>
		</g>
		<g>
			<path fill="#BC632C" d="M35.425,78.3c0,0,1.077-4.938,7.409-4.426c0,0-7.981-12.393-10.935-12.328
				C28.944,61.614,33.752,77.074,35.425,78.3z"/>
			<path fill="#BC632C" d="M50.246,78.3c0,0-1.074-4.938-7.411-4.426c0,0,7.988-12.393,10.938-12.328
				C56.727,61.614,51.92,77.074,50.246,78.3z"/>
			<path fill="#FFDAA7" d="M42.792,71.023l-5.75-2.883v13.032c0,0,2.226,2.671,5.75,2.671c4.165,0,5.751-2.459,5.751-2.459V70.062
				L42.792,71.023z"/>
			<path fill="#EFBC6C" d="M48.005,72.263c0,0-2.618,2.89-10.964,7.427l0.019-8.126L48.005,72.263z"/>
			<path fill="#FFDAA7" d="M33.238,59.653c0,0,1.443,11.173,1.741,11.716c0.304,0.54,5.945,3.617,7.813,3.48V47.82
				C42.792,47.82,31.679,45.475,33.238,59.653z"/>
			<path fill="#FFDAA7" d="M52.343,59.653c0,0-1.438,11.173-1.743,11.716c-0.298,0.54-5.937,3.617-7.809,3.48V47.82
				c0,0,4.371-1.606,7.39-0.145C52.448,48.775,52.985,53.851,52.343,59.653z"/>
			<path fill="#FFDAA7" d="M50.867,66.112c0,0,1.411,0.684,2.741-2.455c1.531-3.614,1.443-5.176,0-5.274
				c-1.441-0.096-1.937,1.255-1.937,1.255L50.867,66.112z"/>
			<path fill="#FFDAA7" d="M34.714,66.112c0,0-1.406,0.684-2.74-2.455c-1.53-3.614-1.44-5.176,0-5.274
				c1.443-0.096,1.938,1.255,1.938,1.255L34.714,66.112z"/>
			<path fill="#FAB68C" d="M39.426,68.05c0,0,0.297,0.065,0.919,0.125C39.782,68.112,39.426,68.05,39.426,68.05z"/>
			<path fill="#F3763D" d="M35.425,48.815c0,0-5.263,12.325,0,29.485c0,0-15.1-11.384-5.263-29.74
				c1.218-2.273,5.813-7.468,12.534-6.252v4.928C42.697,47.236,36.968,46.838,35.425,48.815z"/>
			<path fill="#F3763D" d="M49.967,48.815c0,0,5.265,12.325,0,29.485c0,0,15.101-11.384,5.265-29.74
				c-1.222-2.273-5.813-7.468-12.535-6.252v4.928C42.697,47.236,48.425,46.838,49.967,48.815z"/>
			<g>
				<path fill="#F3763D" d="M33.485,56.731h9.212V45.306C40.362,45.338,32.329,46.038,33.485,56.731z"/>
				<path fill="#F3763D" d="M42.994,45.306c-0.038,0-0.086,0-0.134,0c-0.05,0-0.105,0-0.163,0v11.425h9.42
					C53.009,45.754,45.162,45.32,42.994,45.306z"/>
			</g>
			<path fill="#CCCBCB" d="M44.59,99.723h-3.742c-0.308-0.217-4.676-9.871-4.643-10.948c0.04-1.073,5.133-5.786,6.493-5.786
				c1.358,0,6.692-1.577,8.079,0.573C52.16,85.711,44.59,99.723,44.59,99.723z"/>
			<path fill="#DEE0DD" d="M37.042,79.261l-1.944,0.729l2.931,10.051l4.671-7.053C42.699,82.989,40.795,82.487,37.042,79.261z"/>
			<path fill="#F9F7F9" d="M48.542,79.261l1.895,0.858l-2.938,9.85l-4.801-6.98C42.699,82.989,44.789,82.487,48.542,79.261z"/>
			<g>
				<path fill="#3C566C" d="M31.074,90.764l1.348-1.936l0.67-0.968l-2.442-4.018l-0.911-1.501l-0.015-0.027
					c0,0-9.535,4.354-9.55,4.371c-0.678,0.741-1.91,7.321-2.733,13.037h20.438L31.074,90.764z"/>
				<path fill="#60778E" d="M54.318,90.764l-6.798,8.959h20.435c-0.825-5.716-2.054-12.296-2.734-13.037
					c-0.014-0.017-9.548-4.371-9.548-4.371l-3.374,5.546L54.318,90.764z"/>
				<polygon fill="#5A7D8F" points="33.094,87.861 32.421,88.829 31.077,90.764 37.877,99.723 40.848,99.723 39.781,96.06 
					36.182,83.716 35.097,79.991 29.723,82.315 30.649,83.843 				"/>
				<polygon fill="#5A7D8F" points="31.077,90.764 32.421,88.829 31.074,90.764 37.877,99.723 37.877,99.723 				"/>
				<polygon fill="#5A7D8F" points="30.649,83.843 29.723,82.315 29.738,82.342 				"/>
				<polygon fill="#3D5C73" points="54.318,90.764 52.298,87.861 55.672,82.315 50.437,80.12 49.367,83.712 45.943,95.19 
					44.59,99.723 47.52,99.723 				"/>
			</g>
			<g>
				<g>
					<g>
						<path fill="#3C566C" d="M38.426,81.624c-0.782,0.279-0.459,3.29-0.459,3.29s-0.323,3.008,0.459,3.289
							c0.782,0.278,5.221-3.289,5.221-3.289S39.208,81.341,38.426,81.624z"/>
					</g>
					<g>
						<path fill="#60778E" d="M47.163,81.624c-0.785-0.282-5.226,3.29-5.226,3.29s4.44,3.567,5.226,3.289
							c0.78-0.281,0.452-3.289,0.452-3.289S47.943,81.903,47.163,81.624z"/>
					</g>
					<path fill="#49596B" d="M43.53,83.666h-0.738h-0.739c0,0-0.256,0.995,0,2.493h0.739h0.738
						C43.789,84.661,43.53,83.666,43.53,83.666z"/>
				</g>
			</g>
		</g>
	</g>
	<g>
		<ellipse fill="#FFFFFF" cx="81.451" cy="103.38" rx="34.296" ry="3.174"/>
		<ellipse fill="#FEFEFE" cx="81.451" cy="103.348" rx="33.897" ry="3.137"/>
		<ellipse fill="#FDFDFD" cx="81.451" cy="103.315" rx="33.499" ry="3.1"/>
		<ellipse fill="#FCFDFD" cx="81.451" cy="103.282" rx="33.101" ry="3.063"/>
		<ellipse fill="#FBFCFC" cx="81.451" cy="103.25" rx="32.702" ry="3.026"/>
		<ellipse fill="#FAFBFB" cx="81.451" cy="103.216" rx="32.304" ry="2.99"/>
		<ellipse fill="#F9FAFA" cx="81.451" cy="103.184" rx="31.905" ry="2.953"/>
		<ellipse fill="#F8F9F9" cx="81.451" cy="103.151" rx="31.507" ry="2.916"/>
		<ellipse fill="#F7F9F9" cx="81.451" cy="103.118" rx="31.109" ry="2.879"/>
		<ellipse fill="#F6F8F8" cx="81.451" cy="103.086" rx="30.71" ry="2.841"/>
		<ellipse fill="#F5F7F7" cx="81.451" cy="103.053" rx="30.311" ry="2.805"/>
		<ellipse fill="#F4F6F6" cx="81.451" cy="103.021" rx="29.913" ry="2.768"/>
		<ellipse fill="#F3F5F5" cx="81.451" cy="102.987" rx="29.515" ry="2.73"/>
		<ellipse fill="#F2F5F5" cx="81.451" cy="102.954" rx="29.117" ry="2.694"/>
		<ellipse fill="#F1F4F4" cx="81.451" cy="102.922" rx="28.718" ry="2.657"/>
		<ellipse fill="#F0F3F3" cx="81.451" cy="102.889" rx="28.319" ry="2.62"/>
		<ellipse fill="#EFF2F2" cx="81.451" cy="102.856" rx="27.921" ry="2.583"/>
		<ellipse fill="#EEF1F1" cx="81.452" cy="102.824" rx="27.522" ry="2.546"/>
		<ellipse fill="#EDF1F1" cx="81.452" cy="102.791" rx="27.124" ry="2.51"/>
		<ellipse fill="#ECF0F0" cx="81.452" cy="102.758" rx="26.726" ry="2.472"/>
		<ellipse fill="#ECEFEF" cx="81.452" cy="102.726" rx="26.327" ry="2.436"/>
		<ellipse fill="#EBEEEE" cx="81.452" cy="102.692" rx="25.929" ry="2.399"/>
		<ellipse fill="#EAEEEE" cx="81.452" cy="102.66" rx="25.53" ry="2.362"/>
		<ellipse fill="#E9EDED" cx="81.451" cy="102.627" rx="25.131" ry="2.325"/>
		<ellipse fill="#E8ECEC" cx="81.452" cy="102.594" rx="24.733" ry="2.288"/>
		<ellipse fill="#E7EBEB" cx="81.452" cy="102.562" rx="24.335" ry="2.251"/>
		<ellipse fill="#E6EAEA" cx="81.452" cy="102.528" rx="23.937" ry="2.215"/>
		<ellipse fill="#E5EAEA" cx="81.452" cy="102.496" rx="23.538" ry="2.177"/>
		<ellipse fill="#E4E9E9" cx="81.452" cy="102.463" rx="23.14" ry="2.141"/>
		<ellipse fill="#E3E8E8" cx="81.452" cy="102.431" rx="22.741" ry="2.104"/>
		<ellipse fill="#E2E7E7" cx="81.452" cy="102.398" rx="22.343" ry="2.066"/>
		<ellipse fill="#E1E6E6" cx="81.452" cy="102.365" rx="21.944" ry="2.029"/>
		<ellipse fill="#E0E6E6" cx="81.452" cy="102.333" rx="21.546" ry="1.993"/>
		<ellipse fill="#DFE5E5" cx="81.452" cy="102.3" rx="21.147" ry="1.956"/>
		<ellipse fill="#DEE4E4" cx="81.452" cy="102.267" rx="20.749" ry="1.918"/>
		<ellipse fill="#DDE3E3" cx="81.452" cy="102.234" rx="20.351" ry="1.881"/>
		<ellipse fill="#DCE2E2" cx="81.452" cy="102.201" rx="19.952" ry="1.845"/>
		<ellipse fill="#DBE2E2" cx="81.452" cy="102.168" rx="19.554" ry="1.809"/>
		<ellipse fill="#DAE1E1" cx="81.452" cy="102.136" rx="19.155" ry="1.771"/>
		<ellipse fill="#D9E0E0" cx="81.452" cy="102.103" rx="18.757" ry="1.734"/>
	</g>
	<g>
		<path fill="#CCCBCB" d="M80.059,100.038c0,0-5.525,0.265-5.903,0c-0.376-0.264-2.116-8.789-2.074-10.112
			c0.046-1.321,0.402-5.75,2.074-5.75c1.674,0,14.132-3.306,15.833-0.66C91.691,86.158,85.874,103.409,80.059,100.038z"/>
		<g>
			<path fill="#FFDAA7" d="M80.059,69.655l-7.843-3.932v17.773c0,0,3.035,3.638,7.843,3.638c5.679,0,7.841-3.35,7.841-3.35v-15.44
				L80.059,69.655z"/>
			<path fill="#EFBC6C" d="M87.9,72.643c0,0-3.746,3.454-15.684,9.943l0.024-11.621L87.9,72.643z"/>
			<path fill="#598895" d="M80.059,82.808v6.609l-1.991,0.714l-2.856-4.859C75.211,85.272,77.9,82.986,80.059,82.808z"/>
			<path fill="#DEE0DD" d="M72.226,78.356l-1.508,0.771l3.6,12.354l5.741-8.673C80.059,82.808,76.839,82.322,72.226,78.356z"/>
			<g>
				<path fill="#FFDAA7" d="M67.771,56.344c0,0,1.854,14.374,2.242,15.068c0.385,0.695,7.641,4.656,10.046,4.482V41.127
					C80.059,41.127,64.861,34.809,67.771,56.344z"/>
				<path fill="#FFDAA7" d="M92.346,56.344c0,0-1.854,14.374-2.242,15.068c-0.388,0.695-7.639,4.656-10.045,4.482V41.127
					C80.059,41.127,94.355,38.106,92.346,56.344z"/>
				<path fill="#FFDAA7" d="M90.175,64.87c0,0,2.129,0.793,3.439-3.395c1.506-4.817,0.465-6.984-0.901-6.844
					c-0.462,0.048-0.842,0.138-1.147,0.313c-0.912,0.529-1.173,1.536-1.173,1.536L90.175,64.87z"/>
				<path fill="#FFDAA7" d="M69.94,64.87c0,0-2.129,0.793-3.438-3.395c-1.506-4.817-0.465-6.984,0.898-6.844
					c0.464,0.048,0.843,0.138,1.148,0.313c0.915,0.529,1.177,1.536,1.177,1.536L69.94,64.87z"/>
				<g>
					<g>
						<path fill="#A73F24" d="M66.413,43.424c-1.053,2.887,1.114,11.486,1.114,11.486l1.417,2.191l-0.337-4.824
							c0,0,3.026-6.551,2.203-8.977l-1.917-2.764C68.893,40.538,66.752,42.484,66.413,43.424z"/>
					</g>
				</g>
				<g>
					<g>
						<path fill="#A73F24" d="M93.704,43.424c1.052,2.887-1.114,11.486-1.114,11.486l-1.418,2.191l0.338-4.824
							c0,0-3.026-6.551-2.2-8.977l1.915-2.764C91.224,40.538,93.364,42.484,93.704,43.424z"/>
					</g>
				</g>
				<path fill="#A73F24" d="M80.059,34.5c-3.644-0.007-8.903,1.652-11.166,6.038l1.917,2.764c0,0,5.142,2.752,9.388,3.065
					c2.662,0.198,6.927,0.327,10.168-2.239l0.858-3.59C91.224,40.538,88.599,34.518,80.059,34.5z"/>
			</g>
			<path fill="#4DBBC8" d="M80.059,82.808v6.609l1.99,0.714l2.854-4.859C84.904,85.272,82.217,82.986,80.059,82.808z"/>
			<path fill="#F9F7F9" d="M87.9,78.227l1.672,1.055l-3.607,12.111l-5.905-8.585C80.059,82.808,83.287,82.193,87.9,78.227z"/>
			<g>
				<path fill="#3C566C" d="M65.773,92.371l1.653-2.378l0.826-1.19l-3.004-4.942l-1.12-1.841l-0.02-0.036
					c0,0-11.72,5.354-11.738,5.374c-0.836,0.911-2.349,9-3.362,16.023h25.125L65.773,92.371z"/>
				<path fill="#60778E" d="M94.342,92.371l-8.36,11.01h25.125c-1.012-7.023-2.525-15.112-3.36-16.023
					c-0.02-0.02-11.738-5.374-11.738-5.374l-4.146,6.819L94.342,92.371z"/>
				<path fill="#598895" d="M80.059,103.38V89.417l-1.991,0.714c0,0-1.279,5.793-1.595,8.749l1.311,4.5H80.059z"/>
				<path fill="#4DBBC8" d="M82.333,103.38l1.311-4.5c-0.315-2.956-1.594-8.749-1.594-8.749l-1.99-0.714v13.963H82.333z"/>
				<polygon fill="#5A7D8F" points="68.253,88.802 67.426,89.993 65.776,92.371 74.133,103.38 77.784,103.38 76.473,98.88 
					72.049,83.705 70.718,79.127 64.109,81.983 65.249,83.86 				"/>
				<polygon fill="#3D5C73" points="94.342,92.371 91.863,88.802 96.008,81.983 89.572,79.282 88.256,83.699 84.046,97.811 
					82.386,103.38 85.982,103.38 				"/>
			</g>
		</g>
	</g>
</g>
</svg>
